<?xml version="1.0" encoding="utf-8"?>
<!-- Generator: Adobe Illustrator 26.1.0, SVG Export Plug-In . SVG Version: 6.00 Build 0)  -->
<svg version="1.1" id="Warstwa_1" xmlns="http://www.w3.org/2000/svg" xmlns:xlink="http://www.w3.org/1999/xlink" x="0px" y="0px"
	 viewBox="0 0 46.11 60.15" style="enable-background:new 0 0 46.11 60.15;" xml:space="preserve">
<style type="text/css">
	.st0{fill:#DDDDDD;}
</style>
<g>
	<polygon class="st0" points="36.7,51.35 36.65,51.37 36.65,51.82 36.7,51.84 37.01,51.84 37.06,51.82 37.06,51.37 37.01,51.35 	"/>
	<path class="st0" d="M45.92,53.56l-7.49-15.05c0.55-0.35,1.15-0.85,1.48-1.5c0.39-0.71,0.41-1.54,0.3-2.92
		c-0.04-0.53-0.09-1.13-0.05-1.66l0-0.05c0-0.24,0.06-0.6,0.11-0.92c0.16-1.02,0.36-2.3-0.42-3.36C39.41,27.5,38.8,27.04,38,26.7
		c0.18-0.04,0.37-0.06,0.56-0.06c-0.22-0.03-0.45-0.02-0.66,0c-0.01,0-0.01,0-0.02,0c-0.23-0.09-0.47-0.17-0.73-0.25
		c0.03-0.01,0.05-0.02,0.08-0.04c0.06-0.03,0.11-0.06,0.17-0.09c0.07-0.04,0.13-0.07,0.2-0.11l0.06-0.03c0.2,0,0.39-0.01,0.57-0.05
		c0.22-0.04,0.42-0.11,0.62-0.18c0.2-0.06,0.4-0.12,0.61-0.16c0.21-0.04,0.43-0.05,0.65-0.03c-0.23-0.04-0.45-0.05-0.68-0.04
		c-0.22,0.01-0.43,0.05-0.65,0.09c-0.21,0.04-0.42,0.09-0.64,0.11c-0.16,0.02-0.32,0.01-0.49,0l-0.03-0.02
		c-0.16-0.13-0.31-0.24-0.46-0.34c0.1,0.01,0.19,0.02,0.29,0.02c0.13,0,0.25-0.01,0.37-0.03c0.31-0.04,0.57-0.16,0.8-0.28
		c0.11-0.06,0.23-0.13,0.36-0.22l0.39-0.25c0.19,0.01,0.38,0.02,0.57,0c0.23-0.01,0.43-0.06,0.64-0.12
		c0.21-0.05,0.41-0.11,0.62-0.14c0.21-0.03,0.43-0.05,0.64-0.06c-0.22-0.01-0.44-0.02-0.66-0.01c-0.22,0.01-0.43,0.04-0.65,0.07
		c-0.21,0.03-0.42,0.05-0.64,0.04c-0.11,0-0.22-0.01-0.33-0.03c-0.05-0.01-0.11-0.02-0.16-0.02l-0.04-0.03
		c-0.18-0.13-0.35-0.25-0.52-0.36c0.2-0.03,0.4-0.08,0.59-0.12c0.21-0.05,0.42-0.11,0.63-0.16c0.21-0.06,0.41-0.12,0.62-0.18
		c0.41-0.12,0.81-0.26,1.22-0.4l0.3-0.11c0.1-0.04,0.2-0.07,0.3-0.11c0.2-0.08,0.39-0.17,0.58-0.27c-0.2,0.08-0.4,0.16-0.6,0.22
		c-0.1,0.03-0.2,0.06-0.31,0.09l-0.31,0.08c-0.42,0.1-0.83,0.2-1.25,0.29c-0.21,0.05-0.42,0.09-0.63,0.13
		c-0.09,0.02-0.19,0.03-0.28,0.05c0.19-0.13,0.37-0.3,0.55-0.5c0.12-0.14,0.24-0.3,0.35-0.47c0.51-0.18,1.02-0.36,1.54-0.53
		c0.42-0.14,0.85-0.27,1.27-0.4l0.32-0.1l0.16-0.05c0.05-0.02,0.11-0.04,0.15-0.06c0.2-0.09,0.41-0.18,0.61-0.26
		c-0.21,0.07-0.42,0.14-0.63,0.21c-0.05,0.02-0.1,0.03-0.16,0.05l-0.16,0.04l-0.33,0.07c-0.43,0.1-0.87,0.19-1.3,0.3
		c-0.4,0.09-0.79,0.19-1.19,0.29c0.15-0.26,0.29-0.54,0.44-0.86c0.5-0.25,1-0.5,1.51-0.73c0.83-0.38,1.68-0.74,2.53-1.08
		c-0.88,0.27-1.75,0.56-2.62,0.87c-0.51,0.18-1.01,0.38-1.51,0.58l-0.08-0.01c-0.33-0.04-0.63-0.07-0.94-0.09
		c0.35-0.25,0.71-0.5,1.06-0.74c0.39-0.26,0.78-0.51,1.18-0.76l0.3-0.18l0.15-0.09c0.05-0.03,0.1-0.05,0.16-0.08
		c0.21-0.1,0.43-0.18,0.64-0.28c-0.22,0.07-0.44,0.14-0.66,0.22c-0.06,0.02-0.11,0.04-0.16,0.06l-0.16,0.07l-0.32,0.15
		c-0.42,0.21-0.83,0.43-1.24,0.66c-0.53,0.3-1.06,0.61-1.57,0.94c-0.11,0.01-0.21,0.02-0.3,0.03c-0.21,0.04-0.41,0.09-0.59,0.16
		c-0.02,0.01-0.04,0.02-0.07,0.03c0.29-0.31,0.59-0.61,0.92-0.87c0.09-0.07,0.18-0.15,0.28-0.22c0.09-0.07,0.19-0.13,0.29-0.2
		c0.2-0.13,0.39-0.26,0.59-0.38c0.2-0.12,0.4-0.24,0.61-0.36l0.62-0.34l-0.64,0.29c-0.21,0.1-0.42,0.2-0.64,0.31
		c-0.21,0.1-0.42,0.22-0.63,0.33c-0.1,0.06-0.21,0.12-0.31,0.18c-0.1,0.06-0.2,0.13-0.3,0.2c-0.4,0.27-0.76,0.58-1.11,0.9
		c-0.11,0.1-0.21,0.2-0.31,0.29c0.01-0.27,0-0.57-0.02-0.89c0.14-0.16,0.3-0.31,0.47-0.45c0.1-0.08,0.21-0.17,0.31-0.24
		c0.11-0.08,0.21-0.16,0.32-0.24c0.11-0.08,0.21-0.16,0.32-0.25c0.1-0.08,0.21-0.17,0.31-0.26c0.2-0.18,0.38-0.39,0.52-0.62
		c-0.16,0.22-0.36,0.4-0.56,0.56c-0.1,0.08-0.21,0.15-0.32,0.23c-0.11,0.07-0.22,0.14-0.33,0.21c-0.11,0.07-0.23,0.14-0.34,0.2
		c-0.11,0.07-0.23,0.14-0.34,0.22c-0.17,0.12-0.34,0.25-0.5,0.39l-0.16,0.08c-0.14,0.08-0.28,0.15-0.41,0.22
		c-0.15,0.09-0.28,0.17-0.41,0.26c-0.28,0.2-0.51,0.42-0.69,0.67c-0.03,0.05-0.05,0.1-0.08,0.15c-0.01-0.07-0.02-0.14-0.03-0.21
		l-0.01-0.04c0.07-0.13,0.14-0.26,0.22-0.38c0.14-0.2,0.31-0.38,0.47-0.56c0.08-0.09,0.17-0.19,0.24-0.29
		c0.08-0.1,0.16-0.2,0.23-0.3c0.14-0.21,0.25-0.45,0.34-0.69c-0.11,0.23-0.24,0.45-0.4,0.64c-0.16,0.19-0.33,0.36-0.52,0.53
		c-0.09,0.08-0.18,0.17-0.27,0.25c-0.09,0.09-0.18,0.18-0.26,0.27c-0.11,0.13-0.21,0.27-0.3,0.42l-0.18,0.12
		c-0.24,0.17-0.47,0.32-0.67,0.51c-0.13,0.12-0.24,0.23-0.34,0.34c-0.1,0.12-0.2,0.26-0.28,0.41c-0.04,0.07-0.06,0.14-0.09,0.21
		c-0.01-0.07-0.03-0.13-0.04-0.2l-0.01-0.04c0.06-0.14,0.12-0.28,0.2-0.41c0.13-0.21,0.28-0.4,0.44-0.6c0.15-0.2,0.31-0.4,0.44-0.63
		c0.06-0.11,0.12-0.23,0.17-0.35c0.05-0.12,0.09-0.24,0.13-0.37c-0.05,0.12-0.1,0.24-0.16,0.35c-0.06,0.11-0.13,0.22-0.2,0.32
		c-0.15,0.2-0.32,0.38-0.49,0.57c-0.17,0.18-0.35,0.36-0.51,0.57c-0.1,0.14-0.19,0.29-0.27,0.45l-0.17,0.14
		c-0.23,0.19-0.45,0.37-0.64,0.57c-0.12,0.13-0.23,0.25-0.32,0.38c-0.1,0.14-0.18,0.28-0.25,0.43c-0.03,0.07-0.05,0.16-0.07,0.23
		c-0.02-0.06-0.04-0.13-0.06-0.19l-0.01-0.04c0.05-0.15,0.1-0.29,0.17-0.43c0.11-0.23,0.25-0.43,0.39-0.65
		c0.14-0.22,0.28-0.43,0.4-0.67c0.11-0.24,0.2-0.49,0.26-0.74c-0.04,0.13-0.09,0.25-0.14,0.36c-0.05,0.12-0.11,0.23-0.18,0.34
		c-0.13,0.22-0.29,0.41-0.45,0.61c-0.16,0.2-0.33,0.39-0.47,0.62c-0.07,0.11-0.14,0.23-0.19,0.35c-0.02,0.04-0.03,0.09-0.05,0.13
		l-0.06,0.05c-0.12,0.11-0.22,0.22-0.33,0.32c-0.05,0-0.1,0.01-0.15,0.01c-0.03-0.04-0.05-0.08-0.08-0.12
		c0.04-0.04,0.09-0.07,0.12-0.1c0.06-0.06,0.12-0.13,0.18-0.2l0.04-0.04c0.04-0.05,0.09-0.1,0.13-0.15c0.1-0.13,0.2-0.27,0.29-0.43
		c0.08-0.13,0.16-0.28,0.25-0.46l0.06-0.11l0.23-0.42c0.19-0.14,0.36-0.3,0.51-0.47c0.04-0.05,0.09-0.1,0.13-0.16
		c0.04-0.05,0.09-0.1,0.13-0.16c0.09-0.1,0.17-0.21,0.25-0.31c0.16-0.21,0.32-0.41,0.51-0.6c0.19-0.18,0.4-0.34,0.62-0.48
		c-0.24,0.12-0.46,0.26-0.67,0.43l-0.08,0.06l-0.07,0.07c-0.05,0.05-0.1,0.09-0.14,0.14c-0.09,0.09-0.19,0.19-0.28,0.29
		c-0.09,0.1-0.18,0.19-0.28,0.29c-0.09,0.09-0.19,0.19-0.28,0.28c-0.16,0.15-0.34,0.29-0.53,0.41l-0.01,0c-0.14-0.01-0.27,0-0.4,0
		c0.11-0.07,0.22-0.14,0.31-0.21c0.13-0.11,0.26-0.23,0.37-0.36c0.14-0.15,0.24-0.27,0.32-0.39c0.09-0.12,0.19-0.26,0.29-0.43
		c0.04-0.05,0.07-0.11,0.11-0.17c0.06-0.09,0.12-0.19,0.18-0.28l0.05-0.06c0.2-0.12,0.39-0.26,0.55-0.41
		c0.1-0.09,0.19-0.19,0.28-0.29c0.09-0.1,0.19-0.19,0.28-0.28c0.18-0.19,0.36-0.37,0.56-0.54c0.05-0.04,0.1-0.08,0.15-0.12
		c0.05-0.04,0.11-0.07,0.17-0.11c0.11-0.07,0.23-0.13,0.35-0.19c-0.12,0.05-0.25,0.1-0.37,0.16c-0.06,0.03-0.12,0.06-0.18,0.09
		c-0.06,0.03-0.11,0.07-0.17,0.11c-0.22,0.15-0.42,0.32-0.62,0.49c-0.1,0.09-0.2,0.17-0.31,0.26c-0.1,0.09-0.19,0.17-0.3,0.25
		c-0.17,0.14-0.36,0.25-0.56,0.35l-0.01,0c-0.14-0.02-0.26-0.03-0.37-0.04c0.1-0.05,0.21-0.11,0.3-0.17c0.14-0.1,0.28-0.2,0.41-0.32
		c0.06-0.06,0.12-0.12,0.18-0.18c0.02-0.03,0.05-0.05,0.07-0.08c0.03-0.03,0.07-0.07,0.1-0.1c0.23-0.24,0.43-0.52,0.66-0.8
		l0.04-0.06c0.02-0.01,0.05-0.02,0.07-0.04c0.06-0.03,0.13-0.07,0.19-0.1c0.12-0.07,0.24-0.15,0.35-0.23
		c0.22-0.16,0.41-0.35,0.61-0.52c0.2-0.17,0.41-0.34,0.62-0.48c0.11-0.07,0.22-0.14,0.33-0.2c0.06-0.03,0.11-0.06,0.18-0.09
		c0.06-0.03,0.12-0.05,0.19-0.07c-0.27,0.06-0.5,0.17-0.74,0.3c-0.23,0.13-0.46,0.28-0.68,0.43l-0.08,0.06l-0.08,0.06
		c-0.05,0.04-0.11,0.08-0.16,0.12c-0.11,0.08-0.21,0.15-0.33,0.22c-0.19,0.12-0.39,0.21-0.6,0.29l-0.01,0
		c-0.13-0.03-0.25-0.05-0.38-0.07c0.03-0.01,0.05-0.02,0.08-0.03c0.09-0.03,0.17-0.07,0.25-0.12c0.29-0.15,0.55-0.34,0.83-0.61
		c0.04-0.04,0.08-0.08,0.13-0.12l0.05-0.04c0.06-0.06,0.13-0.12,0.19-0.18c0.12-0.12,0.24-0.24,0.37-0.38l0.06-0.06
		c0.22-0.09,0.42-0.19,0.62-0.31c0.24-0.14,0.45-0.3,0.67-0.46c0.11-0.08,0.21-0.16,0.32-0.23c0.11-0.07,0.23-0.14,0.35-0.2
		c0.23-0.13,0.48-0.23,0.73-0.31c-0.26,0.05-0.52,0.14-0.77,0.24c-0.13,0.05-0.25,0.11-0.37,0.17c-0.12,0.06-0.23,0.13-0.35,0.2
		c-0.23,0.14-0.46,0.28-0.69,0.39c-0.12,0.06-0.24,0.11-0.37,0.15c-0.08,0.03-0.17,0.06-0.26,0.08l0,0
		c-0.23-0.08-0.44-0.13-0.66-0.18c0.14-0.03,0.27-0.07,0.39-0.12c0.05-0.02,0.09-0.03,0.13-0.05c0.04-0.02,0.09-0.03,0.13-0.05
		c0.08-0.04,0.17-0.08,0.25-0.12c0.29-0.16,0.55-0.36,0.82-0.63l0.18-0.18c0.06-0.06,0.13-0.13,0.19-0.19
		c0.12-0.12,0.23-0.25,0.35-0.38l0.05-0.05c0.09-0.03,0.18-0.06,0.27-0.09c0.06-0.02,0.13-0.05,0.19-0.07l0.09-0.04l0.1-0.04
		c0.26-0.1,0.5-0.24,0.72-0.38c0.11-0.07,0.23-0.14,0.34-0.21c0.11-0.07,0.22-0.14,0.35-0.19c0.24-0.12,0.49-0.22,0.74-0.31
		c-0.26,0.07-0.52,0.15-0.77,0.24c-0.13,0.04-0.25,0.1-0.37,0.16c-0.12,0.06-0.24,0.12-0.36,0.18c-0.24,0.12-0.48,0.23-0.73,0.3
		c-0.06,0.02-0.13,0.04-0.19,0.06c-0.06,0.02-0.12,0.04-0.19,0.05c-0.09,0.02-0.18,0.04-0.27,0.06l-0.02-0.01
		c-0.22-0.07-0.43-0.12-0.64-0.16c0.24-0.13,0.47-0.27,0.69-0.41c0.48-0.27,0.93-0.56,1.38-0.87c0.46-0.29,0.91-0.58,1.35-0.89
		c0.45-0.3,0.9-0.6,1.31-0.96c-0.43,0.33-0.9,0.6-1.37,0.87c-0.46,0.28-0.93,0.54-1.41,0.8c-0.33,0.19-0.67,0.38-1.02,0.56
		c0.19-0.21,0.37-0.45,0.53-0.73c0.04-0.08,0.09-0.16,0.13-0.24c0.01-0.03,0.03-0.05,0.04-0.08c0.03-0.05,0.06-0.11,0.09-0.16
		c0.03-0.05,0.05-0.12,0.08-0.17l0.32-0.22l0.69-0.48l0.71-0.45l0.71-0.45c0.12-0.08,0.24-0.15,0.36-0.22l0.36-0.22l0.36-0.22
		l0.18-0.11c0.06-0.04,0.12-0.08,0.17-0.12c0.11-0.08,0.22-0.17,0.34-0.25l0.35-0.24l-0.36,0.22c-0.12,0.07-0.24,0.15-0.35,0.23
		C43.06,8.68,43,8.71,42.94,8.75l-0.18,0.1l-0.37,0.2l-0.38,0.19c-0.13,0.06-0.25,0.13-0.37,0.2l-0.74,0.41l-0.74,0.41l-0.61,0.37
		c0.06-0.14,0.11-0.29,0.17-0.44c0.05-0.13,0.09-0.27,0.14-0.42c0.02-0.06,0.04-0.13,0.06-0.19c1.44-1.2,2.97-2.32,4.53-3.38
		c-1.6,0.93-3.16,1.93-4.66,3.02l-0.05,0.01c-0.26,0.05-0.49,0.11-0.72,0.16l-0.07,0.02c-0.12,0.03-0.24,0.06-0.35,0.1l0.51-0.56
		l0.62-0.62l0.63-0.62c0.1-0.11,0.21-0.2,0.32-0.3L41,7.08l0.33-0.29l0.17-0.14c0.06-0.05,0.11-0.09,0.17-0.14
		c0.12-0.09,0.24-0.18,0.36-0.26l0.36-0.25l-0.38,0.23c-0.12,0.08-0.25,0.16-0.37,0.24c-0.06,0.04-0.12,0.08-0.18,0.13l-0.18,0.13
		l-0.35,0.27l-0.35,0.28c-0.12,0.09-0.23,0.18-0.34,0.28l-0.67,0.58L38.9,8.72l-0.64,0.62l-0.41,0.39c-0.11,0.05-0.23,0.1-0.35,0.15
		c-0.23,0.12-0.44,0.25-0.64,0.4c-0.02,0.02-0.04,0.04-0.07,0.06c0.13-0.2,0.26-0.4,0.4-0.6c0.08-0.12,0.17-0.24,0.26-0.35
		c0.09-0.11,0.18-0.23,0.28-0.34c0.38-0.45,0.79-0.88,1.23-1.27l0.66-0.6l0.33-0.3L40.3,6.6l-0.36,0.26l-0.35,0.28l-0.7,0.56
		c-0.47,0.37-0.91,0.78-1.33,1.21c-0.1,0.11-0.21,0.22-0.31,0.33c-0.05,0.06-0.1,0.11-0.15,0.17l-0.14,0.18
		c-0.19,0.24-0.37,0.48-0.54,0.72c-0.09,0.12-0.18,0.24-0.26,0.36l-0.08,0.11c-0.01-0.05-0.01-0.09-0.02-0.14
		c-0.01-0.08-0.03-0.17-0.04-0.26c-0.03-0.18-0.07-0.36-0.11-0.55L35.9,9.78c0.13-0.22,0.28-0.43,0.45-0.64
		c0.05-0.06,0.1-0.13,0.16-0.19l0.08-0.1l0.08-0.09c0.11-0.12,0.22-0.25,0.33-0.37c0.22-0.25,0.44-0.5,0.64-0.77
		c0.2-0.28,0.39-0.54,0.51-0.84c-0.15,0.29-0.36,0.54-0.57,0.8c-0.22,0.25-0.45,0.49-0.69,0.72c-0.12,0.11-0.24,0.23-0.36,0.34
		c-0.12,0.11-0.24,0.24-0.35,0.36c-0.22,0.24-0.44,0.49-0.63,0.78c-0.29,0.25-0.56,0.52-0.83,0.83c-0.14,0.16-0.26,0.31-0.36,0.46
		c-0.11,0.16-0.22,0.33-0.29,0.52c-0.04,0.1-0.06,0.2-0.1,0.29c-0.03-0.08-0.05-0.15-0.08-0.23l-0.04-0.11
		c0.01-0.02,0.01-0.03,0.01-0.05c0.02-0.07,0.05-0.14,0.07-0.21c0.03-0.07,0.06-0.13,0.09-0.2c0.13-0.26,0.29-0.53,0.44-0.79
		c0.08-0.13,0.16-0.27,0.23-0.41c0.04-0.07,0.07-0.14,0.11-0.21c0.03-0.07,0.07-0.14,0.1-0.21c0.13-0.28,0.22-0.57,0.28-0.86
		c-0.09,0.29-0.21,0.57-0.36,0.83c-0.08,0.13-0.15,0.26-0.24,0.39c-0.08,0.13-0.17,0.26-0.26,0.38c-0.18,0.25-0.36,0.51-0.52,0.78
		c-0.04,0.07-0.08,0.14-0.11,0.21c-0.03,0.07-0.07,0.15-0.1,0.22c-0.03,0.08-0.05,0.15-0.08,0.23c-0.13,0.15-0.25,0.3-0.37,0.44
		c-0.07,0.08-0.13,0.16-0.19,0.24l-0.02,0.02c-0.06,0.07-0.12,0.15-0.17,0.23c-0.25,0.38-0.42,0.71-0.53,1.06
		c-0.03,0.1-0.06,0.19-0.08,0.29c0,0.02-0.01,0.05-0.01,0.07c-0.03-0.07-0.06-0.13-0.09-0.2L32,13.68c0.04-0.16,0.08-0.32,0.14-0.48
		c0.1-0.28,0.24-0.56,0.37-0.85c0.14-0.28,0.28-0.56,0.38-0.85c0.11-0.29,0.18-0.6,0.21-0.9c-0.06,0.3-0.16,0.6-0.29,0.88
		c-0.06,0.14-0.14,0.28-0.21,0.41c-0.04,0.07-0.08,0.13-0.12,0.2l-0.06,0.1l-0.06,0.1c-0.15,0.27-0.32,0.55-0.45,0.84
		c-0.1,0.22-0.18,0.45-0.24,0.68c-0.24,0.35-0.47,0.67-0.65,1c-0.05,0.09-0.1,0.18-0.14,0.26c-0.05,0.09-0.08,0.18-0.12,0.27l0,0.01
		c-0.07,0.19-0.13,0.38-0.17,0.57c-0.03,0.13-0.04,0.26-0.05,0.39c-0.04-0.07-0.07-0.14-0.12-0.21L30.36,16
		c0.02-0.16,0.05-0.33,0.09-0.5c0.04-0.15,0.08-0.29,0.13-0.44c0.05-0.15,0.11-0.29,0.17-0.44c0.11-0.29,0.22-0.59,0.3-0.9
		c0.04-0.15,0.07-0.31,0.09-0.46c0.03-0.15,0.04-0.3,0.05-0.45c-0.02,0.15-0.05,0.3-0.09,0.45c-0.04,0.15-0.08,0.3-0.13,0.45
		c-0.1,0.3-0.23,0.58-0.37,0.86c-0.14,0.28-0.27,0.57-0.37,0.88c-0.08,0.24-0.14,0.48-0.18,0.73l-0.12,0.2l-0.15,0.29
		c0,0,0,0.01-0.01,0.01c-0.05-0.47-0.11-0.92-0.16-1.28l-0.03-0.18c-0.03-0.22-0.07-0.49-0.12-0.79l-0.72-4.19
		c-0.18-1-0.34-1.94-0.47-2.61c0.07-0.07,0.12-0.13,0.18-0.2c0.08-0.1,0.15-0.22,0.21-0.33l0.05-0.09c0.05-0.11,0.1-0.23,0.16-0.45
		c0.02-0.08,0.04-0.18,0.04-0.22c0.01-0.08,0.02-0.15,0.03-0.23c0.01-0.2,0-0.4-0.03-0.62c-0.02-0.15-0.05-0.29-0.1-0.45
		c-0.03-0.12-0.08-0.25-0.13-0.4c0.25-0.45,0.31-0.98,0.15-1.47L28.46,2c-0.33-1.42-1.89-1.71-2.41-1.8C25.37,0.07,24.46,0,23.48,0
		c-0.98,0-1.89,0.07-2.57,0.19c-0.51,0.09-2.08,0.38-2.38,1.71l-0.39,1.25c-0.15,0.49-0.1,1.03,0.15,1.47
		c-0.05,0.14-0.1,0.28-0.13,0.41c-0.1,0.35-0.14,0.69-0.13,0.93c0,0.03,0,0.08,0,0.15c0.01,0.11,0.02,0.23,0.04,0.32l0.02,0.11
		c0.03,0.14,0.08,0.26,0.11,0.34l0.05,0.12c0.05,0.11,0.11,0.2,0.14,0.24c0.04,0.06,0.08,0.12,0.12,0.17
		c0.05,0.07,0.12,0.14,0.14,0.17c0.01,0.01,0.02,0.02,0.03,0.04c-0.35,1.93-0.82,4.59-1.11,6.37l-0.02,0.12
		c-0.07,0.43-0.13,0.81-0.18,1.12l-0.08,0.59c-0.04,0.29-0.07,0.61-0.11,0.96l-0.17,1.57c-0.08-0.2-0.14-0.41-0.2-0.61
		c0.04,0.25,0.1,0.51,0.18,0.76l-0.1,0.95c-0.08-0.12-0.16-0.25-0.24-0.37l-0.15-0.23c-0.02-0.1-0.04-0.2-0.07-0.29
		c-0.04-0.15-0.09-0.29-0.16-0.43c-0.13-0.27-0.28-0.53-0.43-0.78c-0.08-0.13-0.15-0.25-0.22-0.38c-0.07-0.13-0.14-0.26-0.21-0.39
		c-0.14-0.26-0.25-0.53-0.34-0.81c0.06,0.29,0.16,0.57,0.27,0.84c0.06,0.13,0.12,0.27,0.18,0.41c0.06,0.14,0.13,0.27,0.19,0.4
		c0.13,0.27,0.25,0.53,0.35,0.79c0.02,0.07,0.05,0.13,0.07,0.2c0.02,0.07,0.03,0.14,0.05,0.21c0.02,0.1,0.03,0.21,0.04,0.31
		c-0.07,0.13-0.13,0.25-0.19,0.37c-0.01-0.14-0.02-0.28-0.05-0.41c-0.04-0.17-0.09-0.33-0.18-0.52c-0.07-0.15-0.15-0.31-0.25-0.48
		c-0.09-0.14-0.18-0.29-0.31-0.47l-0.17-0.23c-0.04-0.06-0.08-0.11-0.12-0.16c-0.02-0.03-0.04-0.05-0.06-0.08l-0.04-0.05
		c-0.07-0.24-0.16-0.48-0.27-0.7c-0.14-0.27-0.3-0.52-0.46-0.76c-0.17-0.24-0.33-0.48-0.47-0.73c-0.14-0.25-0.27-0.52-0.37-0.79
		c0.08,0.28,0.18,0.56,0.3,0.83c0.12,0.27,0.27,0.52,0.41,0.77c0.07,0.12,0.14,0.25,0.21,0.38c0.06,0.13,0.13,0.26,0.18,0.39
		c0.09,0.23,0.16,0.46,0.2,0.7c-0.06,0.13-0.11,0.25-0.17,0.37c-0.02-0.14-0.04-0.27-0.08-0.4c-0.1-0.32-0.25-0.63-0.48-0.97
		c-0.18-0.26-0.4-0.51-0.62-0.78l-0.14-0.16c-0.08-0.24-0.17-0.47-0.3-0.69c-0.15-0.25-0.33-0.49-0.5-0.72
		c-0.17-0.23-0.35-0.46-0.5-0.71c-0.15-0.24-0.29-0.49-0.41-0.76c0.09,0.28,0.21,0.54,0.34,0.8c0.13,0.26,0.29,0.51,0.44,0.76
		c0.15,0.25,0.3,0.49,0.43,0.74c0.11,0.22,0.18,0.45,0.23,0.68l0,0c-0.1,0.23-0.17,0.45-0.24,0.66c-0.06-0.36-0.15-0.69-0.29-0.97
		c-0.16-0.29-0.36-0.57-0.64-0.86c-0.24-0.25-0.52-0.49-0.85-0.75l-0.02-0.02c-0.09-0.22-0.19-0.44-0.31-0.65
		c-0.14-0.25-0.31-0.48-0.49-0.7c-0.18-0.21-0.36-0.42-0.53-0.64C9.24,11,9.09,10.76,8.94,10.53c0.13,0.25,0.26,0.5,0.41,0.73
		c0.15,0.24,0.31,0.47,0.47,0.69c0.16,0.23,0.3,0.46,0.41,0.71c0.1,0.21,0.17,0.43,0.24,0.65l0,0.02c-0.05,0.23-0.09,0.44-0.12,0.65
		c-0.14-0.23-0.3-0.45-0.46-0.67c-0.16-0.22-0.33-0.44-0.5-0.65c-0.18-0.21-0.36-0.41-0.54-0.61c-0.18-0.2-0.37-0.4-0.56-0.59
		c-0.1-0.1-0.19-0.2-0.29-0.29L7.7,10.9c-0.4-0.36-0.82-0.72-1.27-1.02c0.43,0.33,0.81,0.71,1.19,1.1c0.38,0.38,0.72,0.8,1.06,1.22
		c0.17,0.21,0.33,0.42,0.49,0.64c0.07,0.1,0.13,0.2,0.2,0.29c-0.11-0.08-0.22-0.15-0.33-0.21c-0.14-0.07-0.29-0.14-0.45-0.21
		c-0.22-0.09-0.45-0.15-0.69-0.21c-0.09-0.09-0.18-0.18-0.27-0.26c-0.19-0.19-0.39-0.38-0.59-0.56l-0.6-0.55
		c-0.2-0.18-0.4-0.37-0.6-0.55l-0.62-0.53L4.9,9.78L4.74,9.65C4.69,9.61,4.63,9.57,4.57,9.53C4.35,9.38,4.12,9.23,3.9,9.08
		c0.21,0.17,0.43,0.32,0.64,0.5c0.05,0.04,0.1,0.09,0.15,0.13l0.15,0.14l0.29,0.28l0.58,0.57C5.81,10.8,5.9,10.89,6,10.99l0.28,0.3
		l0.56,0.59c0.15,0.17,0.31,0.33,0.46,0.5c-0.35-0.06-0.72-0.09-1.11-0.09c-1.4-1.02-2.83-2.01-4.29-2.95
		c1.38,1.03,2.73,2.11,4.05,3.22l0.05,0.12c0.08,0.19,0.17,0.37,0.25,0.54l0.04,0.08c0.04,0.08,0.08,0.16,0.11,0.24
		c-0.2-0.12-0.4-0.23-0.6-0.34l-0.69-0.38l-0.35-0.19c-0.11-0.06-0.23-0.13-0.35-0.19l-0.7-0.37l-0.35-0.19l-0.17-0.1
		c-0.05-0.03-0.11-0.07-0.16-0.11c-0.22-0.15-0.44-0.29-0.66-0.44c0.21,0.16,0.42,0.32,0.62,0.48c0.05,0.04,0.1,0.08,0.16,0.12
		l0.16,0.11l0.33,0.22l0.67,0.42c0.22,0.14,0.44,0.29,0.66,0.43l0.66,0.43c0.22,0.14,0.44,0.29,0.66,0.44
		c0.14,0.09,0.28,0.19,0.41,0.28c0.19,0.31,0.38,0.58,0.61,0.8c0.02,0.02,0.05,0.04,0.07,0.06c-0.08-0.03-0.15-0.07-0.23-0.1
		c-0.12-0.05-0.24-0.1-0.36-0.16c-0.24-0.11-0.47-0.22-0.69-0.34c-0.45-0.24-0.9-0.5-1.34-0.77L4.1,13.25l-0.67-0.4l0.63,0.45
		l0.63,0.45c0.42,0.3,0.85,0.6,1.29,0.88c0.22,0.14,0.45,0.27,0.68,0.39c0.23,0.12,0.47,0.24,0.69,0.36
		c0.14,0.08,0.28,0.15,0.43,0.22c-0.27,0.08-0.55,0.18-0.85,0.31c-0.09-0.03-0.18-0.07-0.26-0.11c-0.13-0.06-0.25-0.12-0.37-0.19
		c-0.25-0.13-0.49-0.27-0.73-0.41c-0.25-0.14-0.49-0.27-0.76-0.37c-0.26-0.1-0.54-0.18-0.83-0.2c0.28,0.04,0.54,0.14,0.79,0.27
		c0.25,0.12,0.48,0.28,0.71,0.43c0.23,0.16,0.46,0.32,0.69,0.48c0.12,0.08,0.24,0.15,0.36,0.23c0.07,0.04,0.15,0.08,0.22,0.11
		l0.1,0.09c0.52,0.47,1.02,0.91,1.66,1.16c0.06,0.02,0.13,0.03,0.19,0.05c-0.07,0.03-0.13,0.05-0.2,0.08l-0.04,0.02
		c-0.15-0.03-0.3-0.07-0.45-0.12c-0.12-0.04-0.23-0.09-0.34-0.14c-0.12-0.05-0.23-0.1-0.35-0.15c-0.23-0.1-0.47-0.2-0.72-0.26
		c-0.25-0.06-0.51-0.09-0.76-0.08c0.25,0.02,0.5,0.07,0.74,0.15c0.24,0.08,0.46,0.2,0.68,0.32c0.11,0.06,0.22,0.12,0.33,0.18
		c0.11,0.06,0.22,0.12,0.34,0.18c0.16,0.08,0.33,0.14,0.5,0.19l0.04,0.03C8.54,17.93,8.62,18,8.7,18.07
		c0.45,0.4,0.85,0.74,1.39,0.94c0.07,0.03,0.16,0.04,0.24,0.07c-0.06,0.02-0.12,0.04-0.19,0.06l-0.05,0.02
		c-0.15-0.04-0.3-0.08-0.44-0.14c-0.23-0.09-0.45-0.21-0.67-0.32c-0.22-0.12-0.46-0.22-0.71-0.29c-0.25-0.07-0.5-0.1-0.76-0.1
		c0.25,0.02,0.5,0.08,0.73,0.17c0.12,0.05,0.23,0.1,0.34,0.15c0.11,0.06,0.21,0.12,0.32,0.19c0.21,0.13,0.42,0.27,0.65,0.39
		c0.11,0.06,0.23,0.11,0.36,0.16c0.05,0.02,0.1,0.03,0.15,0.05l0.08,0.08c0.23,0.23,0.45,0.45,0.68,0.65
		c0.14,0.11,0.26,0.21,0.4,0.29l0.02,0.01c0.13,0.08,0.26,0.16,0.41,0.23c0.07,0.03,0.14,0.06,0.22,0.09
		c-0.06,0.02-0.12,0.03-0.18,0.05l-0.04,0.01c-0.14-0.05-0.29-0.1-0.42-0.16c-0.11-0.05-0.22-0.11-0.33-0.17
		c-0.11-0.06-0.22-0.12-0.33-0.18c-0.22-0.12-0.44-0.24-0.68-0.32c-0.24-0.09-0.49-0.13-0.75-0.14c0.13,0.02,0.25,0.04,0.37,0.07
		c0.12,0.03,0.23,0.08,0.35,0.13c0.22,0.1,0.43,0.24,0.63,0.38c0.1,0.07,0.2,0.14,0.31,0.21c0.05,0.04,0.1,0.07,0.16,0.1
		c0.05,0.04,0.1,0.07,0.16,0.1c0.15,0.09,0.3,0.17,0.47,0.23l0.05,0.06c0.11,0.13,0.22,0.24,0.33,0.36l0.34,0.35
		c0.26,0.26,0.51,0.44,0.79,0.58c0.07,0.04,0.14,0.06,0.21,0.09c-0.06,0.01-0.12,0.02-0.18,0.04l-0.05,0.01
		c-0.14-0.05-0.28-0.11-0.41-0.18c-0.21-0.12-0.42-0.26-0.62-0.39c-0.05-0.03-0.1-0.07-0.16-0.1c-0.05-0.03-0.11-0.06-0.17-0.09
		c-0.11-0.06-0.23-0.11-0.34-0.16c-0.24-0.09-0.48-0.15-0.74-0.17c0.25,0.05,0.48,0.13,0.7,0.24c0.22,0.11,0.42,0.25,0.61,0.4
		c0.19,0.15,0.37,0.31,0.58,0.46c0.14,0.1,0.3,0.18,0.47,0.26l0.04,0.05c0.21,0.27,0.4,0.53,0.61,0.75
		c0.12,0.13,0.24,0.24,0.34,0.33c0.13,0.11,0.25,0.21,0.39,0.3c0.06,0.04,0.14,0.07,0.21,0.1c-0.07,0.01-0.13,0.02-0.2,0.03
		l-0.05,0.01c-0.13-0.06-0.26-0.13-0.39-0.21c-0.1-0.06-0.19-0.14-0.29-0.21c-0.1-0.07-0.2-0.14-0.3-0.22
		c-0.01-0.01-0.02-0.01-0.03-0.02c-0.07-0.06-0.13-0.12-0.2-0.18c-0.18-0.17-0.35-0.36-0.51-0.56c0.12,0.19,0.26,0.38,0.41,0.55
		c-0.1-0.06-0.2-0.12-0.3-0.17c-0.11-0.05-0.22-0.1-0.35-0.14c-0.12-0.03-0.25-0.06-0.37-0.08c0.12,0.03,0.24,0.07,0.36,0.11
		c0.11,0.05,0.22,0.1,0.32,0.17c0.2,0.13,0.39,0.28,0.57,0.44c0.09,0.08,0.18,0.16,0.27,0.24c0.08,0.07,0.16,0.15,0.25,0.22
		c0.12,0.12,0.24,0.25,0.34,0.38c0.04,0.05,0.08,0.1,0.11,0.14c0.03,0.05,0.07,0.1,0.1,0.16c0.04,0.07,0.07,0.14,0.11,0.21
		c-0.07,0.01-0.14,0.02-0.21,0.04c-0.07-0.12-0.16-0.23-0.28-0.35c-0.1-0.11-0.21-0.21-0.34-0.32c-0.11-0.09-0.23-0.18-0.38-0.29
		l-0.2-0.14c-0.05-0.03-0.1-0.07-0.15-0.1c-0.02-0.02-0.05-0.03-0.07-0.05L12.75,24c-0.12-0.18-0.26-0.35-0.42-0.49
		c-0.19-0.18-0.39-0.34-0.59-0.49c-0.2-0.15-0.41-0.3-0.6-0.46c-0.19-0.16-0.37-0.35-0.53-0.54c0.14,0.21,0.3,0.41,0.48,0.59
		c0.18,0.18,0.37,0.35,0.56,0.52c0.1,0.08,0.19,0.17,0.28,0.26c0.09,0.09,0.18,0.18,0.26,0.27c0.14,0.16,0.26,0.33,0.36,0.51
		c-0.01,0.12-0.02,0.24-0.03,0.35c-0.06-0.1-0.11-0.21-0.18-0.31c-0.17-0.23-0.38-0.44-0.67-0.66c-0.22-0.16-0.47-0.31-0.73-0.46
		l-0.16-0.09c-0.13-0.17-0.28-0.34-0.44-0.48c-0.2-0.16-0.41-0.31-0.62-0.45c-0.21-0.14-0.41-0.28-0.61-0.44
		c-0.2-0.16-0.38-0.32-0.55-0.51c0.15,0.2,0.32,0.38,0.5,0.56c0.18,0.18,0.38,0.34,0.57,0.5c0.19,0.16,0.39,0.31,0.56,0.48
		c0.15,0.15,0.27,0.32,0.38,0.5v0c-0.01,0.22-0.01,0.42-0.01,0.61c-0.15-0.28-0.32-0.52-0.52-0.71c-0.21-0.2-0.45-0.36-0.77-0.52
		c-0.27-0.13-0.56-0.26-0.91-0.37l-0.03-0.01c-0.14-0.15-0.28-0.3-0.43-0.44c-0.19-0.16-0.39-0.31-0.6-0.43
		c-0.21-0.12-0.42-0.24-0.62-0.38c-0.2-0.13-0.39-0.28-0.59-0.43c0.18,0.17,0.36,0.33,0.55,0.48c0.19,0.15,0.39,0.29,0.58,0.43
		c0.2,0.14,0.38,0.29,0.54,0.46c0.14,0.15,0.26,0.31,0.39,0.47l0,0.01c0.02,0.2,0.05,0.38,0.09,0.56c-0.18-0.15-0.37-0.28-0.56-0.42
		c-0.2-0.13-0.4-0.26-0.6-0.39c-0.2-0.12-0.41-0.23-0.62-0.34c-0.21-0.11-0.42-0.22-0.63-0.32c-0.11-0.05-0.21-0.11-0.32-0.15
		L5.2,21.13c-0.43-0.18-0.87-0.36-1.33-0.47c0.45,0.14,0.87,0.35,1.29,0.56c0.42,0.21,0.82,0.45,1.21,0.7
		c0.2,0.12,0.39,0.25,0.58,0.38c0.08,0.06,0.16,0.12,0.24,0.18c-0.12-0.03-0.23-0.06-0.33-0.08c-0.14-0.02-0.28-0.03-0.43-0.04
		c-0.21-0.01-0.42,0-0.63,0.02c-0.1-0.05-0.19-0.09-0.29-0.14c-0.21-0.1-0.43-0.2-0.64-0.29l-0.65-0.28
		c-0.22-0.09-0.43-0.19-0.65-0.28l-0.66-0.26l-0.33-0.13l-0.17-0.06c-0.06-0.02-0.11-0.04-0.17-0.05c-0.23-0.06-0.45-0.12-0.68-0.18
		c0.22,0.07,0.45,0.14,0.67,0.22c0.06,0.02,0.11,0.04,0.16,0.06l0.16,0.07l0.32,0.15l0.63,0.3c0.11,0.05,0.21,0.1,0.31,0.16
		l0.31,0.16l0.62,0.33c0.17,0.09,0.35,0.18,0.52,0.28c-0.3,0.05-0.61,0.13-0.94,0.24C2.91,22.26,1.46,21.86,0,21.5
		c1.43,0.45,2.83,0.95,4.23,1.49l0.08,0.08c0.12,0.13,0.24,0.26,0.36,0.38l0.05,0.05c0.06,0.06,0.11,0.11,0.16,0.16
		c-0.19-0.04-0.39-0.07-0.59-0.11l-0.68-0.12l-0.34-0.06c-0.11-0.02-0.22-0.04-0.34-0.06l-0.68-0.11l-0.34-0.06l-0.17-0.03
		c-0.05-0.01-0.11-0.02-0.16-0.04c-0.22-0.06-0.44-0.11-0.66-0.17c0.22,0.07,0.43,0.14,0.65,0.22c0.05,0.02,0.11,0.04,0.16,0.05
		l0.17,0.04l0.33,0.08l0.67,0.16c0.22,0.05,0.44,0.11,0.66,0.16l0.66,0.16c0.22,0.05,0.44,0.11,0.66,0.17
		c0.15,0.04,0.29,0.08,0.44,0.12c0.23,0.19,0.46,0.36,0.7,0.48c0.02,0.01,0.05,0.02,0.08,0.03c-0.07-0.01-0.15-0.01-0.22-0.02
		c-0.11-0.01-0.22-0.02-0.34-0.03c-0.22-0.02-0.44-0.04-0.66-0.08c-0.44-0.07-0.88-0.16-1.31-0.25l-0.65-0.15l-0.66-0.14l0.65,0.19
		l0.64,0.19c0.43,0.13,0.86,0.25,1.3,0.35c0.22,0.05,0.44,0.09,0.66,0.13c0.22,0.04,0.45,0.06,0.67,0.1
		c0.14,0.02,0.28,0.04,0.41,0.06c-0.2,0.14-0.4,0.31-0.61,0.5c-0.08,0-0.16,0-0.25-0.01c-0.12-0.01-0.24-0.03-0.36-0.05
		c-0.24-0.04-0.48-0.09-0.72-0.13c-0.24-0.04-0.48-0.08-0.73-0.09c-0.25-0.01-0.49,0.01-0.73,0.07c0.24-0.05,0.49-0.04,0.73-0.01
		c0.24,0.03,0.47,0.09,0.7,0.15c0.23,0.06,0.46,0.13,0.7,0.19c0.12,0.03,0.24,0.06,0.36,0.08c0.07,0.01,0.14,0.02,0.21,0.03
		l0.11,0.04c0.56,0.23,1.09,0.46,1.69,0.48c0.06,0,0.11-0.01,0.17-0.01c-0.05,0.04-0.09,0.08-0.14,0.12l-0.03,0.03
		c-0.13,0.02-0.27,0.03-0.4,0.03c-0.11,0-0.21-0.01-0.32-0.02c-0.11-0.01-0.22-0.02-0.33-0.02c-0.22-0.02-0.44-0.03-0.67,0
		c-0.22,0.02-0.44,0.07-0.65,0.15C5.56,26.43,5.78,26.4,6,26.4c0.22,0,0.43,0.03,0.64,0.07c0.11,0.02,0.21,0.04,0.32,0.06
		c0.11,0.02,0.22,0.04,0.33,0.05c0.15,0.02,0.3,0.02,0.46,0.01l0.04,0.02c0.09,0.04,0.18,0.07,0.27,0.11
		c0.16,0.06,0.3,0.12,0.45,0.17c-0.11,0.07-0.22,0.15-0.33,0.23c-0.12-0.01-0.25-0.01-0.37,0c-0.22,0.01-0.44,0.06-0.65,0.13
		c0.21-0.05,0.43-0.08,0.65-0.07c0.09,0,0.17,0.01,0.26,0.02c-0.02,0.02-0.04,0.03-0.06,0.05c-0.76,0.53-1.62,1.71-1.35,4.35
		c0.05,0.49,0.11,1.04,0.13,1.65c0.01,0.25-0.05,0.54-0.11,0.83c-0.15,0.76-0.36,1.8,0.31,2.96c0.04,0.06,0.08,0.13,0.12,0.18
		c0.39,0.53,0.91,0.95,1.55,1.28l-7.5,15.07c-0.55,1.1,0.15,2.45,1.26,2.45h12.12c0.75,1.62,3.05,4.05,8.97,4.13
		c5.89-0.08,8.18-2.51,8.92-4.13h12.23C45.77,56.01,46.47,54.66,45.92,53.56z M28.86,56.75c-0.81,0.49-1.72,0.8-2.65,0.99
		c-0.47,0.1-0.94,0.15-1.41,0.2c-0.47,0.04-0.95,0.05-1.42,0.04c-0.47-0.02-0.95-0.05-1.42-0.11c-0.47-0.06-0.94-0.13-1.4-0.24
		c-0.46-0.1-0.92-0.23-1.37-0.39c-0.22-0.08-0.44-0.17-0.66-0.27c-0.21-0.1-0.42-0.21-0.61-0.35c0.21,0.11,0.43,0.2,0.65,0.28
		c0.22,0.08,0.44,0.15,0.67,0.21c0.45,0.12,0.91,0.22,1.37,0.3c0.46,0.08,0.92,0.14,1.39,0.19c0.46,0.05,0.93,0.08,1.4,0.09
		c0.47,0.02,0.93,0.01,1.4-0.02c0.47-0.02,0.93-0.08,1.39-0.14C27.09,57.37,27.99,57.13,28.86,56.75z M23.31,57.14
		c-4.54-0.08-6.25-1.39-6.87-2.18c-0.02-0.05-0.03-0.1-0.04-0.12v-2.82c0-0.04,0.01-0.08,0.03-0.11c0.01-0.02,0.02-0.04,0.02-0.05
		c0.16,0.23,0.42,0.51,0.74,0.76c-0.7,0.01-0.5,1.78-0.5,1.78s0,0.74,0.92,1.16c0.92,0.42,0.93-0.72,0.93-0.72v-1.35
		c0,0,0.83,0.55,1.99,0.66c0,0,0,0.12,0,1.15c0,0.53-0.09,0.97,0.57,1.18c3.82,0.63,6.52-0.2,7.89-0.9
		c0.02-0.01,0.03-0.02,0.05-0.03c0.15-0.06,0.28-0.13,0.35-0.23c0.51-0.42,0.44-0.84,0.44-0.84v-2.08c0-0.09-0.03-0.19-0.08-0.26
		l-0.06-0.09c-0.12,0.1-0.26,0.2-0.41,0.3c-0.04-0.22-0.08-0.45-0.12-0.66c0.46-0.61,0.51-1.19,0.51-1.49v-3.11
		c0.19-0.03,0.39-0.05,0.57-0.08v3.72c-0.26,0.03-0.51,0.14-0.49,0.28c0.02,0.23,0.29,0.32,0.56,0.3c0.05,0.21,0.12,0.41,0.22,0.61
		c0.02,0.04,0.03,0.07,0.03,0.11v2.7C30.05,55.5,28.35,57.22,23.31,57.14z M24.91,47.81c0.09-0.01,0.17-0.03,0.26-0.04
		c-0.09,0.56-0.15,1.02-0.18,1.37c-0.05,0.47-0.1,0.98-0.16,1.53c-0.03,0.3-0.07,0.57-0.1,0.83c-0.04,0.25-0.08,0.53-0.14,0.86
		c-0.12,0.7-0.24,1.26-0.38,1.77c-0.17,0.62-0.37,1.21-0.59,1.74c-0.02,0.01-0.06,0.02-0.1,0.03c0.14-0.37,0.26-0.75,0.36-1.13
		c0.13-0.47,0.24-0.94,0.34-1.42c0.1-0.48,0.18-0.96,0.25-1.44c0.07-0.48,0.13-0.96,0.15-1.45c-0.04,0.48-0.13,0.96-0.23,1.43
		c-0.1,0.47-0.21,0.95-0.33,1.41c-0.12,0.47-0.25,0.93-0.41,1.39c-0.13,0.4-0.28,0.8-0.45,1.19c-0.12-0.02-0.23-0.05-0.33-0.12
		c-0.18-0.11-0.14-0.22-0.12-0.27c0.56-1.62,1.31-4.09,1.65-6.62c0.04-0.33,0.1-0.67,0.17-1.03c0.1-0.02,0.2-0.03,0.3-0.05
		l-0.12,0.8L24.91,47.81z M27.81,48.14l0.08,0.65l0.1,0.65l-0.06-0.65l-0.04-0.65c-0.01-0.27-0.01-0.53-0.01-0.79
		c0.05-0.01,0.1-0.02,0.15-0.02c0.07,0.89,0.18,1.84,0.32,2.46c0.04,0.18,0.08,0.36,0.13,0.55c0.31,1.34,0.69,2.99,0.61,4.65
		c-0.03-0.01-0.06-0.01-0.09-0.01c0-0.24-0.01-0.48-0.03-0.72c-0.03-0.38-0.08-0.76-0.13-1.14c-0.06-0.38-0.12-0.76-0.19-1.13
		c-0.08-0.37-0.15-0.75-0.27-1.12c0.09,0.37,0.15,0.75,0.2,1.13c0.05,0.38,0.09,0.76,0.12,1.14c0.03,0.38,0.05,0.76,0.06,1.14
		c0,0.23,0,0.46-0.01,0.7c-0.21,0.02-0.43,0.08-0.58,0.16c-0.01-0.8-0.03-3.1-0.42-5.39c-0.12-0.68-0.18-1.43-0.2-2.34
		c0.08-0.01,0.15-0.02,0.23-0.04C27.77,47.62,27.79,47.88,27.81,48.14z M25.81,53.4c0.05,0.09,0.13,0.15,0.23,0.2
		c-0.42,0.08-0.87,0.15-1.35,0.21c0.02-0.07,0.03-0.15,0.05-0.23C25.12,53.53,25.48,53.47,25.81,53.4z M27.23,52.99
		c0.16-0.06,0.31-0.13,0.45-0.2c0.01,0.12,0.01,0.23,0.02,0.34c-0.16,0.06-0.33,0.12-0.5,0.17c0-0.01,0.01-0.02,0.01-0.03
		C27.22,53.18,27.22,53.09,27.23,52.99z M29.41,53.28c-0.03-0.29-0.07-0.57-0.11-0.85C29.38,52.61,29.41,52.84,29.41,53.28z
		 M28.81,47.2c0.03,0,0.05-0.01,0.08-0.01l-0.03,2.83L28.81,47.2z M26.23,47.76l0.16,0.63c0.05,0.18,0.1,0.38,0.14,0.57
		c0.07,0.33,0.18,0.83,0.26,1.35c0.07,0.52,0.12,1,0.14,1.45c0.02,0.43,0,0.87-0.03,1.32c-0.02-0.01-0.05-0.01-0.08-0.02
		c0.01-0.24,0.01-0.49,0-0.73c-0.01-0.39-0.05-0.78-0.09-1.17c-0.02-0.19-0.05-0.39-0.07-0.58c-0.01-0.1-0.03-0.19-0.04-0.29
		L26.57,50c-0.07-0.38-0.15-0.77-0.26-1.14c0.09,0.38,0.15,0.76,0.2,1.15l0.04,0.29c0.01,0.1,0.02,0.19,0.03,0.29
		c0.02,0.19,0.03,0.39,0.04,0.58c0.02,0.39,0.04,0.77,0.02,1.16c-0.01,0.24-0.02,0.47-0.04,0.7c-0.19,0-0.38,0.04-0.51,0.11
		c0.01-0.18,0.02-0.46,0.02-0.82l0-0.29l0-0.31c0-0.23-0.01-0.46-0.02-0.69l-0.01-0.13c-0.01-0.2-0.02-0.41-0.03-0.63
		c-0.02-0.28-0.05-0.55-0.08-0.82l-0.05-0.42l-0.03-0.22l-0.03-0.21c-0.05-0.3-0.1-0.59-0.16-0.86l-0.01-0.05
		c0.17-0.03,0.35-0.06,0.52-0.08C26.21,47.66,26.22,47.71,26.23,47.76z M21.76,50.38c-0.03-0.69-0.05-1.38-0.07-2.07
		c0.05-0.01,0.1-0.01,0.14-0.02C21.82,48.99,21.79,49.69,21.76,50.38z M20.67,52.58c0.03,0.46,0.37,0.86,0.84,0.95
		c0.3,0.06,0.68,0.12,1.45,0.13c-0.02,0.08-0.05,0.15-0.07,0.23c-2.6-0.04-4.24-0.82-5.09-1.48c0.71,0.3,0.71-1.18,0.71-1.18
		s0-0.99,0-2.51c0.68-0.07,1.37-0.15,2.09-0.25C20.6,50.33,20.62,51.84,20.67,52.58z M35.62,47.01c-0.03-0.15-0.28-0.48-0.87-0.7
		c-1.84-0.33-5.28,0.23-9.31,0.88c-3.11,0.5-6.32,1.02-9,1.15c-2.96,0.14-4.73-0.22-5.4-1.11c0,0,0-0.01-0.01-0.01
		c0.12,0.08,0.24,0.16,0.37,0.21c0.32,0.15,0.65,0.25,0.98,0.31c0.66,0.13,1.33,0.13,1.98,0.11c-0.65-0.07-1.3-0.19-1.9-0.4
		c-0.3-0.11-0.59-0.24-0.84-0.41c-0.17-0.12-0.32-0.26-0.45-0.41c0.09,0.05,0.18,0.11,0.28,0.15c0.31,0.14,0.64,0.23,0.96,0.3
		c0.65,0.13,1.3,0.14,1.95,0.11c-0.64-0.07-1.27-0.19-1.87-0.41c-0.29-0.11-0.58-0.24-0.83-0.4c-0.16-0.1-0.3-0.22-0.42-0.35
		c0.11,0.06,0.23,0.12,0.35,0.17c0.32,0.12,0.64,0.18,0.96,0.23c0.64,0.08,1.27,0.06,1.89,0.04c-0.62-0.07-1.24-0.16-1.83-0.33
		c-0.29-0.09-0.57-0.2-0.83-0.34c-0.19-0.11-0.36-0.25-0.5-0.4c0.1,0.05,0.21,0.11,0.32,0.15c0.31,0.11,0.62,0.17,0.93,0.2
		c0.31,0.03,0.62,0.04,0.92,0.03c0.3,0,0.61-0.02,0.91-0.03c-0.3-0.03-0.6-0.07-0.9-0.12c-0.3-0.05-0.59-0.1-0.88-0.18
		c-0.28-0.08-0.56-0.18-0.8-0.31c-0.23-0.13-0.42-0.29-0.58-0.48c0.1,0.05,0.2,0.11,0.31,0.15c0.32,0.12,0.64,0.17,0.96,0.21
		c0.32,0.03,0.63,0.04,0.95,0.04c0.31,0,0.63-0.01,0.94-0.03c-0.31-0.04-0.62-0.07-0.93-0.12c-0.31-0.05-0.61-0.11-0.91-0.18
		c-0.29-0.08-0.58-0.18-0.83-0.32c-0.21-0.12-0.38-0.26-0.52-0.43c0.07,0.04,0.14,0.09,0.22,0.12c0.33,0.14,0.66,0.21,0.99,0.25
		c0.33,0.04,0.66,0.05,0.99,0.05c0.33,0,0.65-0.01,0.98-0.03c-0.32-0.04-0.65-0.08-0.97-0.12c-0.32-0.05-0.64-0.11-0.94-0.2
		c-0.3-0.09-0.6-0.2-0.85-0.36c-0.17-0.11-0.31-0.24-0.43-0.38c0.08,0.04,0.15,0.1,0.23,0.13c0.33,0.14,0.66,0.21,0.99,0.25
		c0.33,0.04,0.66,0.05,0.99,0.05c0.33,0,0.65-0.01,0.97-0.03c-0.32-0.04-0.64-0.07-0.96-0.12c-0.32-0.05-0.63-0.11-0.94-0.2
		c-0.3-0.09-0.59-0.2-0.84-0.36c-0.17-0.11-0.3-0.24-0.42-0.38c0.07,0.04,0.14,0.09,0.22,0.13c0.32,0.14,0.66,0.21,0.99,0.25
		c0.33,0.04,0.66,0.05,0.98,0.05c0.33,0,0.65-0.01,0.97-0.03c-0.32-0.04-0.64-0.07-0.96-0.12c-0.32-0.05-0.63-0.11-0.93-0.2
		c-0.3-0.09-0.59-0.2-0.84-0.36c-0.16-0.1-0.29-0.23-0.41-0.37l-0.06-0.05c-0.28-0.41,0.33-1.11,1.14-1.46
		c-0.6,0.41-1.01,0.85-0.93,1.19c0.05,0.2,0.37,0.62,1.45,0.8c0.51,0.05,1.12,0.06,1.84,0.03c2.04-0.08,4.68-0.47,7.48-0.89
		c4.06-0.6,8.49-1.24,11.28-0.95c0.33,0.06,0.65,0.15,0.96,0.26c0.32,0.12,0.63,0.26,0.89,0.45c0.18,0.13,0.33,0.28,0.47,0.44
		c-0.11-0.07-0.22-0.14-0.33-0.19c-0.31-0.15-0.64-0.25-0.96-0.31c-0.65-0.13-1.31-0.16-1.96-0.13c0.64,0.07,1.28,0.2,1.87,0.42
		c0.29,0.11,0.58,0.25,0.83,0.42c0.17,0.11,0.31,0.24,0.44,0.38c-0.11-0.06-0.22-0.13-0.33-0.17c-0.31-0.13-0.62-0.2-0.94-0.25
		c-0.31-0.05-0.63-0.06-0.94-0.07c-0.31,0-0.62,0-0.93,0.02c0.61,0.07,1.23,0.16,1.8,0.34c0.29,0.09,0.56,0.21,0.8,0.36
		c0.19,0.12,0.36,0.27,0.5,0.43c-0.1-0.06-0.21-0.12-0.32-0.16c-0.31-0.12-0.62-0.2-0.93-0.24c-0.31-0.04-0.62-0.06-0.93-0.06
		c-0.31,0-0.61,0.01-0.92,0.02c0.61,0.07,1.21,0.16,1.78,0.34c0.28,0.09,0.55,0.2,0.79,0.35c0.23,0.14,0.43,0.32,0.59,0.53
		c-0.1-0.06-0.2-0.12-0.3-0.16c-0.31-0.13-0.64-0.2-0.96-0.25c-0.32-0.05-0.64-0.06-0.96-0.07c-0.32-0.01-0.63,0-0.95,0.02
		c0.31,0.04,0.63,0.08,0.93,0.13c0.31,0.05,0.61,0.12,0.91,0.21c0.29,0.09,0.57,0.21,0.82,0.36c0.22,0.13,0.4,0.3,0.55,0.49
		c-0.08-0.05-0.16-0.1-0.24-0.14c-0.33-0.15-0.66-0.22-1-0.27c-0.33-0.04-0.66-0.06-0.99-0.06c-0.33,0-0.66,0.01-0.98,0.02
		c0.32,0.04,0.65,0.08,0.97,0.13c0.32,0.05,0.64,0.12,0.94,0.2c0.3,0.09,0.6,0.21,0.84,0.37c0.19,0.12,0.33,0.27,0.46,0.44
		c-0.09-0.05-0.17-0.11-0.26-0.15c-0.33-0.14-0.67-0.2-1-0.24c-0.33-0.03-0.66-0.04-0.98-0.03c-0.33,0.01-0.65,0.02-0.97,0.03
		c0.32,0.04,0.64,0.07,0.96,0.12c0.32,0.05,0.64,0.1,0.94,0.18c0.3,0.08,0.6,0.19,0.84,0.34c0.18,0.11,0.32,0.26,0.45,0.42
		c-0.08-0.05-0.16-0.11-0.25-0.14c-0.33-0.14-0.67-0.2-1-0.24c-0.33-0.03-0.66-0.04-0.98-0.03c-0.32,0.01-0.65,0.02-0.97,0.04
		c0.32,0.04,0.64,0.07,0.96,0.12c0.32,0.04,0.63,0.1,0.94,0.18c0.3,0.08,0.59,0.19,0.84,0.34c0.16,0.1,0.29,0.23,0.41,0.37
		l0.06,0.06c0.51,0.66-0.31,1.21-1.07,1.54C35.19,47.8,35.69,47.33,35.62,47.01z M8.16,26.4c0.16-0.14,0.32-0.26,0.47-0.36
		c0.1-0.07,0.2-0.13,0.3-0.19c0.09-0.05,0.18-0.09,0.28-0.14c0.33-0.14,0.66-0.19,0.96-0.16c0.14,0.02,0.27,0.05,0.39,0.09
		c0.11,0.05,0.23,0.11,0.34,0.19c0.01,0.01,0.02,0.02,0.03,0.03c0,0.01,0.01,0.02,0,0.03c-0.03,0.06-0.11,0.02-0.23,0
		c-0.13-0.03-0.3-0.04-0.53,0.09c-0.46,0.26-0.77,0.31-1.34,0.31c0,0,0.16,0.03,0.35,0.05c0.19,0.02,0.41,0.05,0.52,0.05
		c0.11,0,0.31-0.07,0.48-0.11c0.17-0.04,0.31-0.06,0.31,0.02c0,0.08-0.07,0.18-0.19,0.27c-0.06,0.05-0.14,0.09-0.22,0.13
		c-0.06,0.01-0.13,0.04-0.19,0.04c-0.15,0.02-0.29,0.03-0.41,0.03c-0.44-0.01-0.84-0.17-1.29-0.35C8.18,26.41,8.17,26.4,8.16,26.4z
		 M5.31,23.64c-0.12-0.11-0.24-0.24-0.36-0.37L4.9,23.22c-0.09-0.09-0.17-0.18-0.26-0.27c0.63-0.19,1.22-0.27,1.79-0.25
		c0.13,0.01,0.27,0.02,0.39,0.04c0.11,0.02,0.22,0.04,0.34,0.08c0.21,0.06,0.4,0.15,0.57,0.26c0.16,0.1,0.31,0.22,0.44,0.35
		c0.09,0.1,0.17,0.22,0.25,0.34c0.06,0.11,0.08,0.2,0.05,0.22c-0.08,0.06-0.15-0.03-0.29-0.14c-0.14-0.11-0.35-0.21-0.71-0.19
		c-0.35,0.02-0.63,0.01-0.91-0.06c-0.28-0.06-0.56-0.17-0.92-0.34c0,0,0.19,0.13,0.41,0.27c0.11,0.07,0.23,0.14,0.34,0.21
		c0.11,0.07,0.21,0.12,0.28,0.16c0.28,0.13,1.09,0.15,1.02,0.34c-0.07,0.18-0.48,0.33-0.97,0.28c-0.19-0.06-0.37-0.13-0.54-0.22
		C5.89,24.13,5.61,23.93,5.31,23.64z M15.03,24.79c0.16,0.21,0.33,0.4,0.5,0.59c0.16,0.18,0.3,0.36,0.44,0.55
		c-0.04,0.1-0.08,0.19-0.11,0.29c-0.1-0.13-0.22-0.27-0.36-0.41c-0.02-0.02-0.04-0.03-0.06-0.05c0.01-0.03,0.03-0.06,0.04-0.09
		c-0.11-0.11-0.23-0.23-0.34-0.37c-0.09-0.11-0.17-0.23-0.26-0.38l0-0.01c-0.04-0.05-0.08-0.11-0.12-0.17
		c0.08-0.01,0.15-0.01,0.23-0.02C15,24.75,15.01,24.77,15.03,24.79z M26.77,6.73L26.77,6.73L26.77,6.73L26.77,6.73L26.77,6.73z
		 M28.99,17.96c0.01-0.07,0.02-0.15,0.04-0.22c0.01-0.03,0.02-0.07,0.03-0.1c0.02,0.22,0.05,0.45,0.07,0.67
		c0.01,0.14,0.03,0.28,0.04,0.41c0,0.02,0,0.04,0,0.06c-0.05-0.07-0.09-0.13-0.14-0.2l-0.08-0.11
		C28.96,18.3,28.97,18.13,28.99,17.96z M30.11,16.85l0.15-0.27c0.04,0.07,0.07,0.13,0.1,0.19c0.07,0.15,0.15,0.3,0.22,0.45
		c0.12,0.28,0.22,0.54,0.28,0.78c0.06,0.23,0.1,0.45,0.11,0.66c0,0.05,0,0.1,0,0.15c0,0.05,0,0.1,0,0.15c0,0.09-0.01,0.18-0.02,0.27
		c-0.05,0.32-0.16,0.61-0.36,0.94c-0.01,0.01-0.02,0.02-0.02,0.04c-0.01,0.01-0.02,0.01-0.03,0.01c-0.16-0.08,0.19-0.38-0.08-0.96
		c-0.14-0.29-0.21-0.53-0.25-0.8c-0.02-0.14-0.02-0.27-0.01-0.42c0.01-0.15,0.02-0.32,0.05-0.51c0,0-0.06,0.21-0.12,0.46
		c-0.07,0.25-0.11,0.54-0.12,0.69c-0.02,0.3,0.24,0.99,0.06,1.01c-0.15,0.02-0.37-0.22-0.49-0.6c-0.02-0.22-0.03-0.44-0.01-0.66
		c0.02-0.2,0.06-0.37,0.1-0.52c0.05-0.16,0.12-0.33,0.2-0.51C29.92,17.23,30,17.06,30.11,16.85z M31.12,15.49
		c0.03-0.08,0.06-0.16,0.1-0.24c0.04-0.08,0.09-0.16,0.13-0.24c0.14-0.24,0.31-0.5,0.49-0.76c0.24,0.55,0.38,1.03,0.45,1.46
		c0.02,0.12,0.03,0.23,0.04,0.35c0,0.05,0,0.11,0,0.17c0,0.05,0,0.11,0,0.16c0,0.2-0.03,0.38-0.07,0.56
		c-0.04,0.16-0.1,0.32-0.18,0.48c-0.03,0.06-0.07,0.12-0.11,0.19l-0.02,0.04c-0.04,0.07-0.09,0.14-0.13,0.21
		c-0.01,0.01-0.02,0.02-0.03,0.04c-0.01,0-0.02,0.01-0.03,0c-0.07-0.04-0.02-0.14,0.02-0.29c0.04-0.16,0.09-0.37-0.02-0.67
		c-0.11-0.3-0.16-0.55-0.16-0.82c0-0.13,0.01-0.27,0.02-0.43c0.02-0.15,0.06-0.31,0.1-0.5c0,0-0.02,0.05-0.05,0.13
		c-0.03,0.08-0.08,0.19-0.12,0.31c-0.08,0.25-0.16,0.53-0.18,0.68c-0.02,0.15,0.01,0.4,0.03,0.62c0.02,0.22,0.02,0.39-0.07,0.4
		c-0.09,0-0.2-0.09-0.29-0.25c-0.06-0.11-0.11-0.26-0.14-0.43c0-0.03,0-0.05,0-0.08c0.01-0.19,0.03-0.36,0.07-0.55
		C31,15.84,31.05,15.67,31.12,15.49L31.12,15.49z M33.24,12.55c0.06-0.08,0.12-0.15,0.19-0.23c0.06-0.08,0.13-0.16,0.2-0.24
		c0.18,0.56,0.28,1.05,0.31,1.49c0.04,0.47-0.01,0.87-0.14,1.22c-0.03,0.08-0.07,0.16-0.11,0.24c-0.02,0.05-0.05,0.09-0.08,0.14
		c-0.02,0.03-0.03,0.06-0.05,0.08c-0.08,0.14-0.18,0.27-0.29,0.4c-0.01,0.01-0.02,0.02-0.03,0.03c-0.01,0-0.02,0-0.03,0
		c-0.07-0.05,0-0.14,0.06-0.29c0.03-0.08,0.06-0.17,0.07-0.28c0.01-0.06,0.01-0.12,0-0.18c0-0.06-0.01-0.13-0.03-0.21
		c-0.15-0.61-0.1-1.01,0.13-1.74c0,0-0.09,0.2-0.2,0.44c-0.1,0.24-0.21,0.5-0.25,0.65c-0.04,0.14-0.03,0.4-0.03,0.61
		c0,0.22-0.01,0.4-0.1,0.39c-0.09-0.01-0.19-0.11-0.27-0.27c-0.04-0.08-0.07-0.19-0.09-0.3c0-0.03,0-0.06-0.01-0.08
		c0-0.05,0-0.1,0-0.15c0.01-0.1,0.03-0.19,0.05-0.27c0.02-0.09,0.05-0.17,0.07-0.26c0.1-0.31,0.26-0.62,0.49-0.97
		c0.04-0.07,0.09-0.13,0.15-0.2L33.24,12.55z M37.1,10.59c0.18-0.14,0.38-0.26,0.59-0.37c0.22-0.11,0.45-0.19,0.65-0.26
		c0.21-0.07,0.44-0.14,0.7-0.21l0.07-0.02c0.12-0.03,0.25-0.06,0.38-0.09c-0.04,0.14-0.09,0.27-0.13,0.4
		c-0.08,0.22-0.15,0.43-0.23,0.62c-0.08,0.19-0.16,0.36-0.25,0.53c-0.03,0.05-0.05,0.1-0.08,0.15c-0.02,0.03-0.03,0.06-0.05,0.09
		c-0.04,0.08-0.08,0.15-0.12,0.22c-0.16,0.27-0.33,0.51-0.52,0.71c-0.09,0.09-0.18,0.18-0.28,0.27l-0.01,0.01
		c-0.09,0.08-0.18,0.15-0.27,0.22c-0.26,0.19-0.56,0.33-0.91,0.43c-0.23,0.05-0.4,0.05-0.42-0.01c-0.03-0.11,0.11-0.15,0.29-0.26
		c0.18-0.11,0.4-0.3,0.55-0.7c0.04-0.1,0.08-0.2,0.12-0.28c0.04-0.09,0.09-0.17,0.13-0.25c0.09-0.16,0.19-0.3,0.31-0.43
		c0.11-0.14,0.24-0.26,0.39-0.4c0.07-0.07,0.15-0.13,0.24-0.2c0.09-0.07,0.18-0.14,0.28-0.21c0,0-0.06,0.03-0.16,0.08
		c-0.1,0.05-0.23,0.13-0.37,0.21c-0.28,0.17-0.6,0.37-0.75,0.49c-0.15,0.13-0.35,0.4-0.51,0.65c-0.17,0.24-0.32,0.42-0.41,0.34
		c-0.09-0.08-0.12-0.28-0.07-0.54c0.03-0.13,0.07-0.27,0.14-0.42c0.02-0.04,0.03-0.07,0.05-0.11c0.02-0.04,0.04-0.07,0.06-0.11
		c0.01-0.02,0.02-0.03,0.03-0.05c0,0,0,0,0,0l0.01-0.01C36.71,10.9,36.9,10.73,37.1,10.59z M35.6,16.54
		c-0.05,0.05-0.1,0.09-0.14,0.13c-0.25,0.24-0.48,0.41-0.74,0.55c-0.07,0.04-0.14,0.07-0.22,0.1c-0.04,0.02-0.08,0.03-0.12,0.05
		c-0.04,0.02-0.08,0.03-0.12,0.05c-0.06,0.02-0.12,0.03-0.18,0.05c-0.35,0.02-0.62-0.06-0.67-0.19c-0.03-0.08,0.13-0.14,0.32-0.19
		c0.2-0.05,0.45-0.08,0.57-0.14c0.12-0.06,0.35-0.2,0.54-0.33c0.19-0.13,0.35-0.24,0.35-0.24c-0.61,0.29-0.97,0.4-1.6,0.38
		c-0.32-0.01-0.5,0.1-0.62,0.2c-0.12,0.1-0.18,0.19-0.25,0.14c-0.01-0.01-0.01-0.02-0.01-0.03c0.01-0.01,0.01-0.03,0.02-0.05
		c0.09-0.15,0.18-0.28,0.28-0.4c0.11-0.12,0.24-0.23,0.39-0.32c0.33-0.21,0.7-0.32,1.12-0.35c0.44-0.02,0.93,0.05,1.47,0.2
		c-0.06,0.06-0.11,0.11-0.16,0.17c-0.06,0.06-0.12,0.12-0.18,0.18L35.6,16.54z M33.93,18.81c-0.05,0.06-0.11,0.11-0.16,0.16
		c-0.11,0.11-0.23,0.2-0.35,0.28c-0.19,0.12-0.39,0.22-0.61,0.3c-0.35,0.05-0.63,0-0.7-0.13c-0.04-0.08,0.12-0.15,0.31-0.22
		c0.2-0.07,0.43-0.13,0.55-0.2c0.12-0.07,0.32-0.24,0.5-0.38c0.09-0.07,0.17-0.14,0.23-0.18c0.06-0.05,0.1-0.08,0.1-0.08
		c-0.31,0.17-0.53,0.3-0.77,0.38c-0.23,0.09-0.48,0.13-0.79,0.15c-0.31,0.02-0.49,0.15-0.61,0.26c-0.11,0.11-0.16,0.2-0.24,0.16
		c-0.01-0.01-0.01-0.02-0.01-0.03c0.01-0.02,0.01-0.03,0.02-0.05c0.03-0.08,0.07-0.15,0.11-0.22c0.04-0.07,0.09-0.13,0.14-0.2
		c0.11-0.14,0.22-0.26,0.35-0.36c0.14-0.11,0.3-0.21,0.47-0.28c0.08-0.04,0.17-0.07,0.28-0.1c0.11-0.03,0.22-0.05,0.33-0.07
		c0.43-0.06,0.92-0.04,1.47,0.06c-0.16,0.2-0.31,0.39-0.47,0.56c-0.03,0.03-0.06,0.06-0.09,0.09
		C33.99,18.76,33.96,18.78,33.93,18.81z M33.34,20.13c-0.01,0.01-0.02,0.03-0.03,0.04c-0.03,0.05-0.07,0.11-0.1,0.16
		c-0.1,0.16-0.19,0.29-0.28,0.41c-0.08,0.11-0.17,0.22-0.3,0.36c-0.1,0.12-0.21,0.22-0.33,0.32c-0.16,0.14-0.37,0.25-0.59,0.37
		c-0.34,0.08-0.62,0.05-0.69-0.07c-0.09-0.15,0.6-0.34,0.82-0.5c0.05-0.04,0.13-0.11,0.21-0.19c0.04-0.04,0.08-0.08,0.12-0.12
		c0.04-0.04,0.09-0.08,0.13-0.12c0.17-0.16,0.31-0.29,0.31-0.29c-0.57,0.4-0.88,0.58-1.5,0.68c-0.61,0.11-0.66,0.56-0.8,0.49
		c-0.01,0-0.01-0.02-0.02-0.03c0-0.02,0.01-0.03,0.01-0.05c0.13-0.33,0.3-0.61,0.53-0.83c0.06-0.06,0.13-0.12,0.2-0.17
		c0.03-0.02,0.07-0.05,0.11-0.08c0.04-0.02,0.08-0.05,0.13-0.07c0.18-0.1,0.39-0.17,0.6-0.23c0.24-0.06,0.5-0.1,0.78-0.11
		c0.15-0.01,0.3,0,0.46,0C33.19,20.11,33.26,20.12,33.34,20.13z M32.31,22.3l-0.05,0.09l-0.06,0.12c-0.09,0.17-0.16,0.31-0.24,0.44
		c-0.09,0.15-0.17,0.27-0.27,0.39c-0.04,0.05-0.07,0.09-0.12,0.14l-0.04,0.04c-0.05,0.06-0.1,0.12-0.16,0.17
		c-0.15,0.15-0.34,0.29-0.55,0.41c-0.33,0.12-0.62,0.1-0.71-0.01c-0.11-0.15,0.57-0.39,0.77-0.57c0.05-0.05,0.12-0.12,0.2-0.2
		c0.08-0.08,0.16-0.18,0.24-0.26c0.15-0.17,0.28-0.33,0.28-0.33c-0.26,0.23-0.47,0.39-0.69,0.52c-0.22,0.13-0.44,0.22-0.74,0.3
		c-0.6,0.16-0.6,0.62-0.76,0.56c-0.01,0-0.01-0.02-0.02-0.03c0-0.01,0.01-0.03,0.01-0.05c0.1-0.35,0.25-0.64,0.46-0.88
		c0.03-0.03,0.06-0.06,0.08-0.09c0.03-0.03,0.07-0.06,0.1-0.09c0.07-0.06,0.15-0.12,0.23-0.17c0.17-0.11,0.37-0.21,0.58-0.28
		c0.23-0.08,0.49-0.14,0.76-0.18C31.84,22.31,32.07,22.3,32.31,22.3z M35.72,21.6c0.16,1.13,0.09,1.92-0.22,2.43
		c-0.15,0.24-0.35,0.41-0.58,0.54c-0.01,0-0.03,0.01-0.04,0c-0.1-0.13,0.27-0.21,0.22-0.79c-0.02-0.29-0.01-0.52,0.05-0.75
		c0.06-0.23,0.16-0.44,0.31-0.72c0,0-0.11,0.14-0.23,0.31c-0.12,0.16-0.25,0.37-0.31,0.48c-0.05,0.11-0.08,0.34-0.11,0.52
		c-0.03,0.19-0.07,0.34-0.15,0.3c-0.11-0.05-0.21-0.29-0.22-0.59c0.02-0.08,0.03-0.17,0.05-0.25c0.04-0.14,0.1-0.27,0.17-0.41
		c0.07-0.13,0.15-0.25,0.24-0.35c0.09-0.1,0.19-0.2,0.31-0.31C35.35,21.86,35.53,21.73,35.72,21.6z M38.83,21.39
		c0.17-0.06,0.34-0.11,0.52-0.14c0.16-0.03,0.33-0.04,0.56-0.04c0.31,0,0.64,0.03,0.99,0.07c-0.31,0.67-0.62,1.19-0.95,1.56
		c-0.32,0.37-0.65,0.6-1.01,0.71c-0.16,0.05-0.33,0.08-0.51,0.09c-0.16,0.01-0.32-0.01-0.48-0.03c-0.1-0.03-0.17-0.07-0.18-0.11
		c-0.01-0.11,0.11-0.1,0.27-0.15c0.17-0.04,0.38-0.13,0.55-0.44c0.18-0.3,0.36-0.51,0.58-0.69c0.22-0.17,0.49-0.3,0.85-0.44
		c0,0-0.22,0.04-0.47,0.1c-0.25,0.06-0.55,0.14-0.68,0.2c-0.14,0.07-0.33,0.26-0.51,0.42c-0.17,0.16-0.32,0.27-0.39,0.17
		c-0.12-0.19,0-0.66,0.37-1.04C38.52,21.52,38.68,21.44,38.83,21.39z M37.05,26.03c-0.12,0.06-0.24,0.12-0.35,0.17
		c-0.12,0.05-0.22,0.09-0.33,0.12c-0.05,0.02-0.11,0.03-0.18,0.04c-0.06,0.01-0.12,0.02-0.18,0.03c-0.21,0.02-0.45,0-0.71-0.04
		c-0.26-0.11-0.44-0.25-0.47-0.37c-0.02-0.08,0.13-0.07,0.31-0.04c0.18,0.03,0.39,0.08,0.51,0.08c0.11-0.01,0.33-0.05,0.51-0.09
		c0.09-0.02,0.17-0.04,0.24-0.05c0.06-0.01,0.1-0.02,0.1-0.02c-0.28,0.01-0.51,0.01-0.73-0.02c-0.22-0.04-0.43-0.1-0.7-0.22
		c-0.54-0.24-0.71,0.11-0.81-0.03c-0.01-0.01,0-0.02,0-0.03c0.01-0.01,0.02-0.03,0.03-0.04c0.18-0.18,0.4-0.3,0.65-0.36
		c0.29-0.06,0.63-0.03,1,0.1c0.39,0.14,0.79,0.37,1.23,0.69C37.13,25.99,37.09,26.01,37.05,26.03z M35.69,27.1
		c-0.27,0.18-0.51,0.33-0.78,0.43c-0.44-0.04-0.91-0.06-1.4-0.06c-0.06-0.05-0.11-0.1-0.13-0.14c-0.03-0.08,0.12-0.09,0.3-0.07
		c0.18,0.01,0.4,0.05,0.51,0.03c0.11-0.02,0.32-0.08,0.49-0.13c0.18-0.05,0.32-0.1,0.32-0.1c-0.28,0.04-0.5,0.05-0.72,0.04
		c-0.22-0.01-0.44-0.06-0.71-0.15c-0.28-0.09-0.45-0.05-0.57,0.01c-0.12,0.05-0.18,0.11-0.24,0.05c-0.01-0.01,0-0.03,0.01-0.05
		c0,0,0.01-0.01,0.01-0.02c0.09-0.1,0.18-0.19,0.27-0.25c0.11-0.07,0.23-0.13,0.35-0.17c0.07-0.02,0.14-0.04,0.2-0.05
		c0.08-0.01,0.16-0.02,0.24-0.02c0.17,0,0.36,0.03,0.56,0.07C34.8,26.62,35.23,26.82,35.69,27.1z M10.5,27.51
		c-0.18-0.07-0.36-0.15-0.55-0.24c0.38-0.29,0.74-0.5,1.09-0.63c0.36-0.13,0.68-0.17,0.96-0.11c0.27,0.05,0.51,0.17,0.75,0.35
		c0,0.01,0,0.01,0,0.02c-0.07,0.12-0.3-0.17-0.77,0.05c-0.24,0.11-0.43,0.18-0.64,0.21c-0.21,0.03-0.43,0.04-0.71,0.03
		c0,0,0.16,0.03,0.35,0.06c0.09,0.02,0.19,0.03,0.29,0.05c0.09,0.02,0.17,0.03,0.23,0.03c0.22,0.01,0.79-0.2,0.79-0.05
		c0,0.11-0.17,0.27-0.43,0.38c-0.22,0.04-0.42,0.05-0.61,0.04c-0.12-0.01-0.23-0.04-0.36-0.06l-0.02,0
		C10.75,27.6,10.63,27.56,10.5,27.51z M28.91,19.06c0.14,0.21,0.26,0.41,0.37,0.6c0.15,0.27,0.27,0.53,0.36,0.75
		c0.08,0.22,0.14,0.44,0.17,0.65c0.03,0.2,0.03,0.38,0.02,0.56c-0.02,0.32-0.1,0.64-0.27,0.96c-0.01,0.01-0.02,0.03-0.02,0.04
		c-0.01,0.01-0.02,0.01-0.03,0.01c-0.16-0.06,0.16-0.4-0.17-0.94c-0.08-0.14-0.15-0.26-0.2-0.39c-0.05-0.13-0.09-0.25-0.12-0.38
		c-0.05-0.26-0.06-0.55-0.05-0.93c0,0-0.04,0.22-0.07,0.47c-0.04,0.25-0.07,0.54-0.06,0.69c0.01,0.3,0.34,0.96,0.16,1
		c-0.15,0.03-0.38-0.18-0.54-0.54c-0.05-0.22-0.08-0.45-0.07-0.67c0-0.15,0.02-0.32,0.06-0.52c0.03-0.17,0.08-0.34,0.14-0.53
		c0.05-0.16,0.12-0.34,0.2-0.55C28.82,19.25,28.87,19.16,28.91,19.06z M30.39,27.61c0-0.03-0.01-0.06-0.01-0.09
		c-0.01-0.23,0.02-0.48,0.09-0.79c0,0-0.02,0.04-0.04,0.11c-0.03,0.07-0.06,0.16-0.09,0.26c-0.07,0.19-0.13,0.4-0.15,0.53
		c-0.14,0.01-0.28,0.02-0.42,0.04c0.01-0.12,0.01-0.23,0.04-0.34c0.02-0.08,0.03-0.15,0.05-0.21c0.02-0.07,0.05-0.14,0.08-0.2
		c0.06-0.14,0.13-0.27,0.21-0.39c0.12-0.18,0.25-0.37,0.41-0.56c0.27,0.64,0.42,1.16,0.48,1.6C30.82,27.57,30.61,27.59,30.39,27.61z
		 M26.53,28.04c-0.02-0.09-0.04-0.18-0.06-0.28c0,0,0,0.12,0.01,0.29c-0.15,0.02-0.29,0.04-0.44,0.06c0.01-0.13,0.01-0.25,0.02-0.37
		c0.03-0.27,0.08-0.54,0.14-0.84c0.4,0.37,0.71,0.72,0.94,1.07C26.95,27.99,26.74,28.01,26.53,28.04z M18.58,29.21
		c-0.06-0.11-0.1-0.19-0.1-0.19c0.03,0.07,0.04,0.13,0.06,0.2c-0.15,0.02-0.3,0.04-0.44,0.06c0.03-0.3,0.09-0.62,0.2-0.99
		c0.06,0.06,0.11,0.11,0.16,0.17c0.11,0.12,0.22,0.25,0.3,0.36c0.09,0.12,0.16,0.23,0.23,0.34C18.85,29.18,18.72,29.2,18.58,29.21z
		 M14.74,25.61c0.19,0.15,0.37,0.29,0.53,0.44c0.23,0.23,0.4,0.44,0.53,0.67c0.07,0.13,0.13,0.26,0.18,0.4
		c0.01,0.04,0.02,0.08,0.03,0.11c0,0.02,0.01,0.05,0.01,0.08c0,0.1-0.01,0.19-0.03,0.26c-0.04,0.15-0.1,0.26-0.17,0.28
		c-0.07,0.03-0.11-0.12-0.15-0.29c-0.04-0.17-0.07-0.38-0.12-0.49c-0.05-0.11-0.18-0.3-0.3-0.47c-0.12-0.17-0.22-0.31-0.22-0.31
		c0.29,0.55,0.39,0.85,0.36,1.39c-0.03,0.52,0.32,0.64,0.23,0.75c-0.01,0.01-0.03,0-0.05,0c0,0-0.01,0-0.01-0.01
		c-0.19-0.14-0.4-0.31-0.56-0.57c-0.16-0.25-0.26-0.57-0.3-0.96C14.65,26.53,14.67,26.1,14.74,25.61z M27.77,18.47
		c0.03,0.32,0.07,0.63,0.1,0.92c-0.02,0.06-0.03,0.13-0.04,0.19c-0.07,0.3-0.16,0.61-0.21,0.92c-0.03,0.21-0.03,0.43-0.03,0.65
		l-0.02,0.05c-0.01,0.03-0.02,0.06-0.03,0.08c-0.15-1.54-0.38-3.99-0.48-5.01c-0.15-1.41-1.03-5.39-1.46-8.81
		c-1.08,0.13-1.96-0.16-1.96-0.16s1.44-0.03,2.36-0.26c0,0.05-0.01,0.11,0,0.16c0.2,1.12,1.23,6.77,1.47,8.51
		C27.55,16.4,27.66,17.4,27.77,18.47z M28.04,27.67c-0.08-0.02-0.06-0.12-0.06-0.29c-0.01-0.16-0.04-0.38-0.24-0.63
		c-0.39-0.49-0.51-0.87-0.61-1.61c0,0,0,0.05,0,0.14c0,0.09,0,0.2,0,0.33c0.01,0.25,0.02,0.54,0.04,0.68
		c0.03,0.14,0.14,0.37,0.22,0.57c0.09,0.2,0.15,0.36,0.06,0.39c-0.09,0.03-0.22-0.02-0.36-0.14c-0.08-0.07-0.16-0.18-0.24-0.3
		c-0.02-0.05-0.04-0.09-0.06-0.14c-0.05-0.17-0.09-0.34-0.11-0.52c-0.04-0.32-0.03-0.65,0.03-1.04c0.05-0.27,0.12-0.55,0.2-0.85
		c0.4,0.42,0.71,0.83,0.92,1.2c0.23,0.4,0.35,0.79,0.38,1.16c0.01,0.17,0,0.33-0.02,0.51c-0.02,0.16-0.06,0.31-0.11,0.48
		c0,0.01-0.01,0.03-0.02,0.04C28.06,27.66,28.05,27.67,28.04,27.67z M16.91,26.08c0.05,0.07,0.1,0.14,0.15,0.22
		c-0.06,0.13-0.13,0.27-0.19,0.43c-0.06-0.05-0.12-0.11-0.18-0.16c0.05-0.18,0.11-0.35,0.19-0.51c0,0,0,0,0-0.01
		C16.9,26.06,16.91,26.07,16.91,26.08z M13.84,29.59c-0.16-0.09-0.33-0.19-0.5-0.3c0.41-0.24,0.8-0.41,1.15-0.49
		c0.19-0.04,0.36-0.06,0.53-0.06c0.15,0,0.29,0.03,0.43,0.08c0.24,0.08,0.46,0.21,0.67,0.41c0.01,0.01,0.02,0.02,0.03,0.03
		c0,0.01,0,0.02,0,0.03c-0.09,0.11-0.27-0.21-0.77-0.05c-0.25,0.08-0.45,0.12-0.66,0.12c-0.2,0-0.42-0.02-0.7-0.06
		c0,0,0.15,0.05,0.33,0.1c0.09,0.03,0.18,0.06,0.27,0.09c0.09,0.03,0.17,0.05,0.22,0.06c0.22,0.04,0.81-0.1,0.79,0.05
		c0,0-0.01,0.01-0.01,0.01c-0.5,0.06-0.98,0.1-1.44,0.14C14.07,29.7,13.95,29.65,13.84,29.59z M12.81,27.66
		c0.34-0.1,0.67-0.12,0.96-0.05c0.15,0.04,0.27,0.08,0.37,0.14c0.11,0.06,0.21,0.14,0.32,0.23c0.01,0.01,0.02,0.02,0.03,0.03
		c0,0.01,0,0.02,0,0.03c-0.04,0.06-0.11,0.01-0.23-0.03c-0.06-0.02-0.13-0.04-0.22-0.04c-0.04,0-0.09,0-0.14,0.01
		c-0.05,0.01-0.11,0.03-0.17,0.05c-0.49,0.2-0.8,0.22-1.36,0.16c0,0,0.15,0.04,0.33,0.09c0.18,0.05,0.39,0.09,0.51,0.1
		c0.11,0.01,0.31-0.03,0.49-0.05c0.17-0.02,0.31-0.02,0.3,0.05c-0.01,0.12-0.19,0.26-0.45,0.35c-0.07,0.01-0.14,0.02-0.2,0.02
		c-0.17,0-0.3,0-0.41-0.02c-0.23-0.03-0.46-0.1-0.71-0.22l-0.37-0.19c-0.05-0.03-0.11-0.06-0.16-0.09c0.17-0.12,0.34-0.22,0.5-0.31
		C12.42,27.8,12.63,27.71,12.81,27.66z M25.1,6.42c-0.91-0.16-0.7-1.6-0.45-1.99c0.06-0.05,0.1-0.08,0.14-0.09
		c0.05-0.01,0.08,0.01,0.16,0.07c0.1,0.07,0.24,0.16,0.45,0.13c0.04-0.01,0.06-0.02,0.1-0.03C25.63,4.83,26.06,6.59,25.1,6.42z
		 M27.84,20.51c0.02-0.19,0.05-0.39,0.08-0.59c0.03,0.29,0.06,0.57,0.09,0.83c-0.01,0.07-0.01,0.13-0.01,0.2
		c0,0.13,0.02,0.25,0.03,0.38c-0.05-0.06-0.1-0.12-0.15-0.18l-0.02-0.02C27.84,20.92,27.83,20.71,27.84,20.51z M30.48,25.44
		l-0.03,0.03c-0.26,0.3-0.47,0.57-0.64,0.84c-0.09,0.14-0.17,0.29-0.23,0.44c-0.02,0.04-0.03,0.08-0.05,0.12
		c-0.07,0.03-0.14,0.07-0.21,0.1c0.01-0.05,0.02-0.11,0.03-0.16c0.07-0.24,0.16-0.49,0.26-0.73c0.1-0.24,0.2-0.49,0.27-0.75
		c0.03-0.12,0.06-0.25,0.08-0.37c0.03-0.01,0.05-0.03,0.07-0.04c0.12-0.05,0.23-0.09,0.35-0.13c0.13-0.04,0.27-0.08,0.41-0.1
		c0.01,0,0.03,0,0.04-0.01c-0.05,0.08-0.1,0.17-0.15,0.26C30.59,25.09,30.53,25.26,30.48,25.44z M29.48,26.01
		c-0.12,0.24-0.24,0.47-0.34,0.72c-0.04,0.12-0.08,0.24-0.11,0.36c-0.13,0.05-0.27,0.11-0.41,0.16c0-0.25,0.03-0.49,0.08-0.72
		c0.04-0.17,0.08-0.33,0.14-0.47c0.07-0.17,0.15-0.31,0.25-0.43c0.21-0.26,0.49-0.47,0.82-0.64c-0.03,0.11-0.06,0.21-0.1,0.32
		C29.72,25.55,29.6,25.78,29.48,26.01z M28.23,22.19c0.08,0.12,0.16,0.25,0.23,0.37c0.08,0.14,0.14,0.25,0.19,0.35
		c0.2,0.42,0.3,0.8,0.3,1.18c0,0.04,0,0.09,0,0.14c0,0.04,0,0.09-0.01,0.13c-0.01,0.08-0.02,0.17-0.04,0.25
		c-0.03,0.16-0.08,0.31-0.14,0.47c-0.01,0.01-0.02,0.03-0.02,0.05c-0.01,0.01-0.02,0.01-0.03,0.01c-0.16-0.05,0.12-0.41-0.25-0.93
		c-0.19-0.26-0.29-0.48-0.37-0.74c-0.07-0.26-0.11-0.54-0.13-0.92c0,0-0.02,0.22-0.03,0.47c-0.01,0.25-0.02,0.54-0.01,0.69
		c0.01,0.15,0.12,0.38,0.19,0.58c0.08,0.2,0.13,0.37,0.04,0.4c-0.14,0.04-0.39-0.15-0.57-0.49c-0.07-0.23-0.12-0.45-0.13-0.66
		c-0.02-0.62,0.12-1.2,0.37-1.9C27.97,21.82,28.11,22.01,28.23,22.19z M22.85,23.7c0.47,0,0.84,0.42,0.84,0.94
		c0,0.52-0.38,0.94-0.84,0.94c-0.47,0-0.84-0.42-0.84-0.94C22,24.12,22.38,23.7,22.85,23.7z M29.35,27.37
		c0.02-0.01,0.04-0.01,0.05-0.02c-0.01,0.05-0.01,0.1-0.01,0.14c-0.02-0.04-0.04-0.07-0.06-0.11
		C29.34,27.38,29.35,27.38,29.35,27.37z M30.9,25.46c-0.02,0.07-0.03,0.16-0.05,0.25c-0.03-0.06-0.05-0.12-0.08-0.19l-0.02-0.04
		c0.01-0.03,0.01-0.07,0.02-0.1c0.03-0.12,0.07-0.24,0.11-0.36c0.05-0.12,0.1-0.23,0.15-0.35c0.01-0.01,0.02-0.03,0.02-0.04
		c0.11-0.02,0.22-0.04,0.33-0.05C31.18,24.85,31.01,25.15,30.9,25.46z M26.65,6.04c-0.14,0.16-0.41,0.23-0.41,0.23
		s0.1-0.56,0.04-0.95c-0.07-0.5-0.32-0.98-0.32-0.98s0.12-0.01,0.24-0.02c0.05,0.11,0.09,0.22,0.13,0.32
		c0.19,0.45,0.35,0.84,0.4,1.13C26.74,5.85,26.73,5.95,26.65,6.04z M26.68,3.34L26.68,3.34C26.68,3.33,26.68,3.33,26.68,3.34
		C26.68,3.33,26.68,3.33,26.68,3.34z M26.04,2.42c0,0.23-1.15,0.43-2.56,0.43c-1.41,0-2.56-0.19-2.56-0.43
		c0-0.23,1.15-0.43,2.56-0.43C24.89,1.99,26.04,2.18,26.04,2.42z M20.43,2.86c0.18,0.09,0.43,0.16,0.78,0.22
		c0.58,0.11,1.34,0.17,2.16,0.17c0.23,0.02,0.55,0.12,0.63,0.46c0.4-0.36,0.9-0.61,1.24-0.1c0.23-0.36,0.54-0.5,0.75-0.23
		c0.15-0.25,0.44-0.44,0.66-0.12c-0.02-0.03-0.05-0.04-0.08-0.04c-0.18,0-0.3,0.23-0.24,0.62c-0.02-0.01-0.05-0.02-0.07-0.03
		c-0.08-0.04-0.19-0.09-0.32-0.09c-0.02-0.15-0.05-0.27-0.14-0.28c-0.18-0.03-0.34,0.18-0.34,0.59c-0.03,0.03-0.07,0.05-0.1,0.06
		c-0.03,0-0.05-0.01-0.13-0.06c-0.08-0.05-0.18-0.12-0.32-0.14c-0.01-0.03-0.02-0.06-0.02-0.09c-0.02-0.06-0.09-0.29-0.26-0.25
		c-0.23,0.05-0.29,0.3-0.28,0.56c-0.08,0.07-0.12,0.1-0.18,0.1c-0.11,0-0.17-0.04-0.26-0.1c-0.09-0.06-0.2-0.13-0.37-0.15
		c-0.01,0-0.02,0-0.02,0c-0.01,0-0.02,0-0.02,0c-0.04,0-0.07,0.02-0.1,0.03c-0.01-0.02-0.02-0.04-0.02-0.05
		c-0.01-0.05-0.01-0.1,0.02-0.14c0.03-0.05,0.09-0.09,0.15-0.12c-0.07-0.01-0.15-0.01-0.23,0.02c-0.08,0.03-0.16,0.1-0.2,0.18
		C23.04,3.95,23.01,4.03,23,4.11c-0.01,0.02-0.01,0.04-0.01,0.06c-0.05,0.02-0.09,0.04-0.16,0.04c-0.06,0-0.1-0.03-0.19-0.11
		c-0.09-0.08-0.21-0.19-0.4-0.22c-0.02,0-0.04,0-0.05,0c0-0.01-0.01-0.02-0.01-0.03c0-0.04,0.02-0.09,0.07-0.13
		c0.04-0.04,0.1-0.08,0.15-0.11C22.33,3.6,22.26,3.6,22.18,3.6c-0.07,0.01-0.16,0.04-0.23,0.1c-0.07,0.06-0.12,0.15-0.15,0.23
		c-0.01,0.03-0.01,0.05-0.02,0.07c-0.01,0.01-0.02,0.01-0.03,0.02c-0.07,0.05-0.1,0.06-0.13,0.06c-0.06-0.01-0.1-0.05-0.18-0.13
		c-0.08-0.08-0.16-0.17-0.29-0.21c-0.07-0.02-0.13-0.02-0.18-0.02c0,0,0-0.01,0-0.01c0.01-0.06,0.03-0.11,0.07-0.15
		c0.05-0.04,0.12-0.07,0.19-0.08C21.17,3.45,21.09,3.43,21,3.44c-0.09,0.01-0.18,0.07-0.25,0.14c-0.06,0.07-0.11,0.14-0.16,0.2
		c0,0-0.01-0.01-0.01-0.01c-0.06-0.09-0.17-0.25-0.35-0.31L20.43,2.86z M20.46,5.04c0.05-0.13,0.11-0.26,0.16-0.39
		c0.02-0.06,0.05-0.11,0.07-0.17c0.03-0.05,0.07-0.1,0.11-0.14c0.02-0.02,0.04-0.03,0.06-0.03h0.08c0.12,0.04,0.23,0.23,0.34,0.29
		c0.15,0.08,0.33-0.04,0.39,0.19c0.06,0.23,0.07,1.6-0.73,1.39C20.44,6.03,20.36,5.51,20.46,5.04z M22.1,7.61
		c0,0,0.49-0.65,0.28,4.06c-0.18,4.1-1.51,10.35-1.85,11.9c0.03,0.01,0.05,0.01,0.08,0.02c0.7,0.24,0.93,1.34,0.51,2.45
		c-0.42,1.12-1.32,1.83-2.02,1.59c-0.7-0.24-0.93-1.34-0.51-2.45c0.34-0.91,1-1.55,1.61-1.63c0.07-0.9,0.33-4.61,0.52-7.33
		C20.92,13.1,21.32,7.86,22.1,7.61z M19.34,22.28c-0.07,1.12-1.57,2.75-1.96,3.43c-0.08,0.14-0.18,0.31-0.27,0.5
		c-0.05-0.06-0.1-0.11-0.14-0.17c-0.02-0.02-0.03-0.04-0.04-0.06c0.59-1.24,2.01-2.85,2.04-3.97c0.08-3.14,0.96-8.75,0.96-8.75
		S19.48,19.95,19.34,22.28z M16.87,29.45c-0.08-0.1-0.15-0.2-0.2-0.31c-0.15-0.31-0.22-0.62-0.23-0.98
		c-0.01-0.36,0.03-0.79,0.14-1.29c0.21,0.19,0.36,0.34,0.5,0.49c0.11,0.12,0.2,0.23,0.27,0.33c0.08,0.12,0.15,0.24,0.21,0.37
		c0.08,0.18,0.13,0.37,0.17,0.57c-0.01,0.31-0.12,0.54-0.24,0.57c-0.15,0.04-0.12-0.57-0.2-0.8c-0.04-0.11-0.15-0.32-0.26-0.49
		c-0.11-0.17-0.21-0.32-0.21-0.32c0.06,0.14,0.12,0.26,0.16,0.38c0.04,0.12,0.08,0.22,0.09,0.33c0.04,0.22,0.04,0.43,0,0.7
		c-0.03,0.19,0,0.32,0.04,0.43C17.02,29.43,16.94,29.44,16.87,29.45z M37.1,25.1c-0.26-0.1-0.45-0.25-0.48-0.37
		c-0.02-0.08,0.13-0.08,0.31-0.05c0.18,0.02,0.38,0.07,0.5,0.06c0.11-0.01,0.32-0.06,0.5-0.11c0.18-0.05,0.33-0.09,0.33-0.09
		c-0.28,0.03-0.5,0.04-0.72,0.01c-0.21-0.02-0.43-0.09-0.69-0.2c-0.53-0.22-0.69,0.13-0.79,0c-0.01-0.01,0-0.02,0-0.02
		c0.01-0.01,0.02-0.03,0.03-0.04c0.18-0.19,0.39-0.32,0.63-0.39c0.59-0.15,1.33,0.09,2.2,0.7l-0.14,0.09
		c-0.13,0.08-0.23,0.15-0.33,0.2c-0.2,0.1-0.42,0.2-0.68,0.24C37.56,25.15,37.34,25.14,37.1,25.1z M37.62,20.6
		c0.01,0.24,0.01,0.47,0.01,0.68c-0.01,0.28-0.03,0.54-0.08,0.75c-0.04,0.2-0.09,0.38-0.16,0.55c-0.06,0.15-0.14,0.28-0.22,0.39
		c-0.04,0.05-0.09,0.1-0.13,0.15c-0.05,0.05-0.09,0.09-0.14,0.12c-0.1,0.07-0.2,0.13-0.32,0.19c-0.01,0-0.02,0.01-0.03,0.01
		c-0.01,0-0.04,0-0.04-0.01c-0.09-0.14,0.29-0.17,0.3-0.76c0.01-0.29,0.05-0.51,0.12-0.73c0.04-0.11,0.09-0.21,0.15-0.33
		c0.06-0.11,0.14-0.22,0.22-0.35c0,0-0.12,0.12-0.26,0.27c-0.14,0.15-0.29,0.33-0.35,0.44c-0.13,0.21-0.2,0.88-0.34,0.78
		c-0.11-0.07-0.18-0.31-0.16-0.61c0.07-0.24,0.16-0.45,0.29-0.63c0.15-0.22,0.35-0.41,0.6-0.58c0.12-0.08,0.24-0.16,0.38-0.24
		C37.5,20.66,37.56,20.63,37.62,20.6z M33.89,22.87c0.25,1.13,0.24,1.91-0.02,2.45c-0.12,0.24-0.28,0.43-0.5,0.58
		c-0.01,0.01-0.02,0.01-0.03,0.02c-0.01,0-0.04,0.01-0.04,0c-0.11-0.12,0.25-0.23,0.15-0.81c-0.1-0.58-0.03-0.92,0.23-1.5
		c0,0-0.1,0.15-0.21,0.33c-0.11,0.18-0.22,0.39-0.27,0.51c-0.04,0.12-0.05,0.34-0.07,0.53c-0.01,0.19-0.04,0.34-0.12,0.31
		c-0.12-0.04-0.24-0.27-0.28-0.58c0.03-0.25,0.07-0.49,0.16-0.68c0.06-0.13,0.13-0.25,0.21-0.37c0.08-0.11,0.17-0.22,0.28-0.33
		C33.53,23.17,33.7,23.02,33.89,22.87z M32.46,26.32c-0.02,0.16-0.05,0.31-0.1,0.45c-0.1,0.27-0.27,0.48-0.48,0.66
		c-0.01,0-0.02,0-0.02,0c-0.06-0.05-0.01-0.12,0.04-0.24c0.05-0.12,0.1-0.3,0.02-0.58c-0.08-0.29-0.11-0.51-0.09-0.75
		c0.01-0.12,0.03-0.23,0.05-0.36c0.03-0.13,0.07-0.26,0.12-0.41c0,0-0.09,0.16-0.18,0.35c-0.09,0.19-0.19,0.41-0.22,0.53
		c-0.03,0.12-0.02,0.35-0.01,0.54c0,0.19,0,0.34-0.09,0.32c-0.12-0.03-0.27-0.24-0.34-0.54c0-0.08-0.01-0.16,0-0.25
		c0.02-0.17,0.05-0.32,0.09-0.45c0.1-0.28,0.23-0.52,0.43-0.76c0.11-0.14,0.21-0.25,0.31-0.35c0.05-0.05,0.1-0.1,0.15-0.15
		c0.17,0.54,0.27,1.01,0.31,1.42C32.48,25.93,32.48,26.13,32.46,26.32z M36.11,15.18c-0.04,0.02-0.08,0.03-0.12,0.05
		c-0.05,0.02-0.12,0.03-0.18,0.05c-0.35,0.03-0.62-0.05-0.68-0.18c-0.04-0.08,0.13-0.14,0.32-0.2c0.05-0.01,0.1-0.03,0.15-0.04
		c0.05-0.01,0.11-0.02,0.16-0.03c0.1-0.02,0.19-0.05,0.26-0.08c0.12-0.06,0.35-0.21,0.54-0.34c0.19-0.13,0.35-0.25,0.35-0.25
		c-0.61,0.31-0.97,0.43-1.6,0.41c-0.62,0-0.73,0.45-0.87,0.36c-0.01-0.01-0.01-0.02-0.01-0.03c0.01-0.01,0.01-0.03,0.02-0.04
		c0.08-0.15,0.18-0.28,0.28-0.4c0.06-0.07,0.11-0.13,0.17-0.18c0.07-0.05,0.13-0.11,0.2-0.15c0.32-0.21,0.7-0.33,1.13-0.37
		c0.06-0.01,0.12-0.01,0.18-0.01c0.05,0,0.12,0,0.19,0c0.14,0.01,0.28,0.02,0.42,0.04c0.22,0.03,0.44,0.07,0.68,0.14
		c-0.06,0.06-0.11,0.12-0.17,0.18c-0.06,0.06-0.12,0.12-0.18,0.18l-0.18,0.18c-0.25,0.25-0.48,0.43-0.73,0.56
		c-0.07,0.04-0.14,0.07-0.22,0.11C36.2,15.15,36.16,15.16,36.11,15.18z M35.65,10.44c0.01,0.08,0.03,0.17,0.04,0.25
		c0.01,0.08,0.02,0.16,0.03,0.24c0.04,0.3,0.05,0.58,0.04,0.83c-0.01,0.24-0.04,0.46-0.09,0.66c-0.05,0.19-0.12,0.36-0.2,0.53
		c-0.16,0.34-0.4,0.59-0.66,0.81c-0.01,0-0.02,0-0.03,0c-0.12-0.12,0.3-0.31,0.21-0.94c-0.02-0.16-0.03-0.3-0.03-0.44
		c0-0.07,0-0.14,0.01-0.2c0.01-0.07,0.02-0.13,0.03-0.19c0.06-0.26,0.16-0.53,0.32-0.87c0,0-0.12,0.18-0.25,0.4
		c-0.07,0.11-0.13,0.23-0.19,0.33c-0.03,0.05-0.06,0.1-0.08,0.15c-0.02,0.05-0.04,0.09-0.05,0.13c-0.11,0.28-0.07,1.02-0.25,0.99
		c-0.14-0.03-0.28-0.29-0.29-0.68c0.04-0.24,0.11-0.47,0.2-0.69c0.07-0.16,0.16-0.3,0.26-0.45c0.1-0.14,0.21-0.28,0.34-0.43
		c0.2-0.23,0.4-0.44,0.61-0.63C35.62,10.3,35.64,10.37,35.65,10.44z M20.39,7.42L20.39,7.42L20.39,7.42L20.39,7.42z M13.71,25.16
		c0.11,0.11,0.19,0.22,0.26,0.33c0.1,0.17,0.18,0.35,0.24,0.55c0.03,0.31-0.05,0.54-0.16,0.59c-0.14,0.06-0.2-0.55-0.31-0.77
		c-0.06-0.11-0.2-0.28-0.33-0.44c-0.13-0.16-0.24-0.29-0.24-0.29c0.33,0.52,0.45,0.81,0.45,1.35c0,0.54,0.37,0.62,0.28,0.74
		c-0.01,0.01-0.03,0-0.04,0c-0.01,0-0.01-0.01-0.02-0.01c-0.25-0.14-0.44-0.31-0.59-0.53c-0.18-0.25-0.3-0.55-0.36-0.92
		c-0.04-0.21-0.06-0.44-0.06-0.69c0-0.13,0-0.27,0.01-0.41c0-0.06,0.01-0.12,0.01-0.19l0.18,0.13c0.15,0.1,0.26,0.19,0.37,0.28
		C13.51,24.97,13.62,25.06,13.71,25.16z M12.29,24.77c0.02,0.04,0.03,0.07,0.04,0.1c0.02,0.12,0.04,0.24,0.03,0.34
		c-0.02,0.16-0.07,0.27-0.14,0.3c-0.14,0.07-0.23-0.53-0.36-0.73c-0.06-0.1-0.22-0.28-0.35-0.43c-0.07-0.08-0.13-0.14-0.18-0.2
		c-0.05-0.05-0.08-0.08-0.08-0.08c0.35,0.5,0.49,0.79,0.53,1.32c0.02,0.26,0.12,0.41,0.21,0.51c0.09,0.1,0.16,0.15,0.12,0.21
		c-0.01,0.01-0.03,0-0.05,0c0,0-0.01,0-0.01-0.01c-0.11-0.06-0.23-0.13-0.34-0.21c-0.11-0.08-0.21-0.17-0.29-0.28
		c-0.18-0.23-0.32-0.53-0.41-0.91c-0.08-0.35-0.12-0.78-0.11-1.28c0.21,0.12,0.4,0.24,0.57,0.36c0.26,0.2,0.45,0.38,0.6,0.59
		C12.15,24.52,12.22,24.64,12.29,24.77z M10.2,23.77c0.1,0.29,0.08,0.53-0.02,0.6c-0.12,0.1-0.32-0.49-0.48-0.67
		c-0.16-0.17-0.72-0.57-0.72-0.57c0.22,0.21,0.37,0.38,0.49,0.57c0.12,0.18,0.2,0.37,0.26,0.64c0.13,0.52,0.5,0.51,0.45,0.65
		c0,0.01-0.01,0.01-0.02,0.01c-0.01,0-0.03-0.01-0.04-0.01c-0.27-0.08-0.5-0.2-0.7-0.37c-0.23-0.19-0.42-0.46-0.56-0.81
		c-0.14-0.33-0.25-0.75-0.32-1.25c0.22,0.09,0.43,0.17,0.62,0.27c0.29,0.14,0.51,0.29,0.69,0.46C9.97,23.42,10.09,23.59,10.2,23.77z
		 M8.4,24.68c0.26,0.03,0.5,0.11,0.74,0.26c0.01,0.01,0.02,0.02,0.03,0.03c0,0.01,0.01,0.02,0,0.03c-0.06,0.13-0.31-0.15-0.77,0.11
		c-0.23,0.13-0.42,0.21-0.62,0.25c-0.1,0.02-0.21,0.04-0.32,0.05c-0.12,0.01-0.24,0.02-0.39,0.02c0,0,0.16,0.02,0.35,0.04
		c0.19,0.03,0.4,0.05,0.52,0.05c0.23-0.01,0.78-0.26,0.79-0.1c0.01,0.11-0.15,0.28-0.4,0.41c-0.21,0.05-0.41,0.08-0.6,0.08
		c-0.46-0.02-0.87-0.17-1.33-0.35C7.14,24.9,7.81,24.61,8.4,24.68z M20.06,37.4c0.04,0.04,0.07,0.08,0.11,0.12
		c0.08,0.07,0.16,0.14,0.25,0.21c0.04,0.03,0.07,0.05,0.11,0.07l0.02,0.04c0.03,0.06,0.07,0.12,0.1,0.18c0,0.17,0,0.34-0.01,0.52
		c-0.14-0.14-0.28-0.27-0.44-0.38c-0.04-0.03-0.09-0.06-0.13-0.09c-0.05-0.03-0.1-0.05-0.15-0.07c-0.1-0.04-0.2-0.08-0.31-0.11
		c0.2,0.08,0.39,0.18,0.54,0.32c0.16,0.13,0.29,0.29,0.43,0.45c0.02,0.02,0.04,0.05,0.06,0.07c-0.01,0.83-0.02,1.69-0.03,2.57
		c-0.71,0.1-1.42,0.2-2.12,0.29c0-1.38,0-2.75,0-4.01C19.02,37.53,19.53,37.47,20.06,37.4z M20.51,37.34
		c0.05,0.04,0.1,0.09,0.15,0.13c0,0.04,0,0.08,0,0.11l-0.01,0c-0.12-0.06-0.24-0.12-0.35-0.2c0,0-0.01-0.01-0.01-0.01
		C20.37,37.36,20.44,37.35,20.51,37.34z M23.77,36.85c-0.05,0.19-0.13,0.37-0.25,0.58c-0.07,0.11-0.1,0.21-0.12,0.3
		c-0.02,0.09-0.02,0.17-0.01,0.23c0.01,0.13,0.04,0.21-0.02,0.24c-0.01,0-0.02,0-0.03-0.01c-0.01-0.01-0.01-0.02-0.02-0.03
		c-0.03-0.06-0.06-0.12-0.08-0.18c-0.02-0.06-0.05-0.13-0.07-0.19c-0.04-0.13-0.07-0.26-0.07-0.4c-0.01-0.14,0-0.29,0.03-0.44
		C23.34,36.92,23.55,36.88,23.77,36.85z M24.34,36.76c0,0.01,0,0.01,0,0.02c0,0.15-0.01,0.29-0.03,0.43
		c-0.01,0.05-0.04,0.12-0.05,0.17c-0.05,0.09-0.1,0.17-0.16,0.23c-0.1,0.12-0.21,0.18-0.29,0.17c-0.08-0.01-0.04-0.16,0.01-0.33
		c0.05-0.17,0.12-0.37,0.12-0.49c0-0.04,0-0.09,0-0.15C24.07,36.8,24.2,36.78,24.34,36.76z M22.37,37.18
		c-0.03-0.03-0.07-0.07-0.12-0.1c0.07-0.01,0.14-0.02,0.21-0.03c0.03,0.07,0.07,0.13,0.1,0.21c0,0.01,0,0.01,0.01,0.02
		c0,0.01,0,0.04-0.01,0.04C22.49,37.35,22.45,37.28,22.37,37.18z M25.88,36.51c0.07-0.01,0.13-0.02,0.19-0.03
		c0.76,0.57,1.2,1.08,1.35,1.58c0.07,0.26,0.08,0.5,0.02,0.76c0,0.01-0.01,0.03-0.01,0.04c-0.01,0.01-0.02,0.01-0.03,0.01
		c-0.17-0.02,0.03-0.34-0.44-0.69c-0.46-0.36-0.64-0.65-0.85-1.25c0,0,0.03,0.18,0.07,0.38c0.04,0.2,0.1,0.43,0.15,0.55
		c0.09,0.23,0.6,0.68,0.43,0.74c-0.12,0.05-0.36-0.04-0.59-0.23c-0.14-0.19-0.25-0.37-0.32-0.55c0-0.02-0.01-0.04-0.01-0.05
		c-0.02-0.11-0.04-0.22-0.06-0.33c-0.02-0.11-0.03-0.22-0.04-0.33c0-0.19,0.02-0.39,0.04-0.58C25.82,36.52,25.85,36.51,25.88,36.51z
		 M27.75,36.21c0,0.06,0.02,0.12,0.01,0.18c-0.01,0.12-0.03,0.24-0.06,0.37c0,0.01-0.01,0.03-0.02,0.05
		c-0.01,0.01-0.02,0.01-0.03,0.01c-0.08-0.01-0.07-0.1-0.09-0.23c-0.01-0.09-0.05-0.2-0.14-0.33
		C27.54,36.24,27.64,36.22,27.75,36.21z M22.02,39.8c-0.03-0.04-0.06-0.08-0.08-0.12c-0.02-0.02-0.03-0.05-0.05-0.07
		c0.37-0.03,0.69-0.02,0.95,0.04c0.28,0.06,0.51,0.17,0.69,0.33c0.16,0.14,0.27,0.31,0.35,0.5c0,0.01,0.01,0.03,0.01,0.04
		c-0.04,0-0.07-0.04-0.13-0.1c-0.07-0.07-0.19-0.16-0.4-0.18c-0.42-0.05-0.65-0.16-1.03-0.41c0,0,0.09,0.09,0.21,0.19
		c0.11,0.1,0.24,0.22,0.32,0.27c0.15,0.1,0.64,0.2,0.57,0.3c-0.04,0.07-0.18,0.09-0.36,0.08c-0.2-0.07-0.37-0.16-0.52-0.27
		c-0.15-0.11-0.29-0.25-0.42-0.43C22.09,39.9,22.05,39.85,22.02,39.8z M29.51,39.29c-0.13,0.17-0.3,0.33-0.51,0.5
		c-0.26,0.12-0.49,0.16-0.6,0.09c-0.07-0.04,0.04-0.15,0.18-0.26c0.15-0.11,0.33-0.23,0.41-0.32c0.07-0.09,0.18-0.28,0.28-0.44
		c0.1-0.16,0.17-0.3,0.17-0.3c-0.18,0.22-0.34,0.39-0.51,0.53c-0.17,0.14-0.37,0.25-0.64,0.37c-0.54,0.24-0.41,0.59-0.57,0.58
		c-0.01,0-0.02-0.01-0.02-0.02c0-0.01,0-0.03,0-0.04c0-0.13,0.01-0.26,0.04-0.37c0.03-0.13,0.08-0.25,0.15-0.36
		c0.15-0.25,0.4-0.48,0.75-0.67c0.36-0.19,0.8-0.34,1.34-0.45C29.87,38.57,29.76,38.94,29.51,39.29z M30.01,36.79
		c-0.05,0.12-0.1,0.22-0.15,0.31c-0.06,0.11-0.13,0.2-0.21,0.29c-0.08,0.1-0.18,0.19-0.29,0.28c-0.08,0.06-0.16,0.12-0.25,0.17
		c-0.25,0.09-0.47,0.11-0.57,0.04c-0.14-0.1,0.45-0.37,0.61-0.53c0.07-0.08,0.2-0.26,0.3-0.41c0.1-0.15,0.19-0.28,0.19-0.28
		c-0.39,0.4-0.64,0.6-1.17,0.79c-0.54,0.19-0.43,0.55-0.59,0.52c-0.01,0-0.01-0.01-0.01-0.01c0-0.02,0-0.03,0-0.05
		c0.01-0.25,0.09-0.49,0.23-0.7c0.34-0.49,1.04-0.8,2.08-0.92C30.12,36.48,30.07,36.64,30.01,36.79z M22.2,38
		c0.18,0.05,0.35,0.12,0.49,0.2c0.13,0.08,0.25,0.17,0.35,0.27c0.18,0.18,0.31,0.41,0.39,0.67c0,0.01,0.01,0.03,0.01,0.04
		c0,0.01-0.01,0.02-0.01,0.02c-0.13,0.06-0.14-0.32-0.66-0.41c-0.26-0.05-0.45-0.11-0.64-0.2c-0.09-0.05-0.18-0.1-0.28-0.17
		c-0.1-0.06-0.2-0.14-0.31-0.22c0,0,0.11,0.12,0.24,0.25c0.13,0.13,0.28,0.29,0.37,0.36c0.18,0.14,0.76,0.3,0.67,0.42
		c-0.03,0.03-0.08,0.06-0.14,0.07c-0.15-0.02-0.29-0.03-0.46-0.03c-0.18-0.09-0.35-0.19-0.48-0.31c-0.09-0.08-0.18-0.17-0.26-0.27
		l-0.01-0.01c-0.08-0.1-0.16-0.19-0.23-0.3c-0.1-0.15-0.2-0.32-0.3-0.5C21.43,37.86,21.85,37.9,22.2,38z M21.62,39.28
		c0.01,0.01,0.02,0.01,0.03,0.02c-0.01,0-0.02,0-0.03,0C21.62,39.3,21.62,39.29,21.62,39.28z M25.14,37.95
		c0.04,0.15,0.07,0.29,0.09,0.42c0.01,0.15,0.02,0.28,0.01,0.42c-0.01,0.19-0.06,0.39-0.12,0.58c-0.16,0.27-0.36,0.41-0.48,0.39
		c-0.15-0.03,0.17-0.56,0.2-0.8c0.01-0.12,0.02-0.35,0-0.56c-0.01-0.2-0.03-0.38-0.03-0.38c-0.01,0.15-0.02,0.29-0.04,0.41
		c-0.02,0.12-0.04,0.23-0.07,0.34c-0.07,0.21-0.17,0.4-0.32,0.61c-0.31,0.43-0.07,0.71-0.2,0.76c-0.01,0-0.02,0-0.03-0.01
		c-0.01-0.01-0.01-0.03-0.02-0.04c-0.12-0.26-0.17-0.51-0.17-0.77c0.01-0.34,0.09-0.64,0.25-0.97c0.16-0.32,0.4-0.68,0.73-1.07
		C25.02,37.53,25.09,37.74,25.14,37.95z M25.56,38.81c0.01-0.1,0-0.2-0.01-0.29c0.06,0.04,0.12,0.07,0.18,0.11
		c-0.01,0.12-0.03,0.24-0.05,0.36c-0.06,0.04-0.11,0.08-0.17,0.12C25.53,39,25.56,38.91,25.56,38.81z M30.19,37.7
		c-0.14,0.02-0.26,0.05-0.39,0.08c0.04-0.04,0.1-0.09,0.14-0.13c0.09-0.11,0.17-0.22,0.24-0.34c0.02-0.04,0.04-0.09,0.06-0.13v0.52
		L30.19,37.7z M26.13,40.52c-0.05-0.02-0.09-0.04-0.14-0.06c0.04-0.18,0.06-0.37,0.06-0.6c0-0.06,0-0.12-0.01-0.19
		c0.04,0.13,0.09,0.26,0.12,0.33c0.06,0.12,0.26,0.31,0.39,0.46C26.41,40.48,26.27,40.5,26.13,40.52z M26.81,40.28
		c-0.25-0.16-0.41-0.31-0.56-0.5c-0.1-0.12-0.18-0.27-0.26-0.43c-0.01-0.09-0.02-0.18-0.04-0.27l-0.02-0.15
		c0-0.06,0.01-0.12,0.01-0.19c0.27,0.18,0.51,0.36,0.7,0.54c0.3,0.28,0.5,0.56,0.6,0.83c0.03,0.08,0.04,0.16,0.06,0.25
		c-0.11,0.01-0.22,0.03-0.34,0.04C26.93,40.37,26.88,40.33,26.81,40.28z M30.25,39.52L30,39.58c-0.11,0.03-0.21,0.06-0.31,0.08
		c0.04-0.05,0.08-0.1,0.12-0.15c0.22-0.3,0.34-0.61,0.43-0.94V39.52z M30.19,35.94c0.02-0.02,0.04-0.03,0.06-0.05v0.05
		C30.23,35.93,30.21,35.94,30.19,35.94z M21.62,39.79c0.02,0.02,0.03,0.05,0.05,0.07c0.03,0.04,0.05,0.08,0.08,0.12
		c0.04,0.05,0.07,0.11,0.11,0.16c0.02,0.02,0.03,0.04,0.05,0.06l0,0.91c-0.1,0.01-0.2,0.03-0.3,0.04L21.62,39.79z M24.98,40.38
		c0.06-0.09,0.12-0.19,0.18-0.28c0.05-0.08,0.09-0.17,0.14-0.27c0.03-0.06,0.04-0.11,0.06-0.17c0.1-0.09,0.2-0.18,0.32-0.27
		c0.01,0.04,0.01,0.08,0.02,0.12l0,0.02c0.01,0.06,0.01,0.11,0.02,0.16c0,0.06,0.01,0.12,0.01,0.18c0,0.25-0.02,0.46-0.07,0.65
		c-0.01,0.02-0.02,0.04-0.03,0.07c-0.1,0.01-0.2,0.03-0.3,0.04c0.01-0.01,0.01-0.02,0.02-0.04c0.03-0.09,0.07-0.27,0.09-0.43
		c0.03-0.16,0.05-0.3,0.05-0.3c-0.11,0.36-0.21,0.58-0.39,0.79c-0.12,0.02-0.24,0.03-0.35,0.05C24.82,40.6,24.9,40.49,24.98,40.38z
		 M29.81,40.02c-0.01,0.04-0.02,0.08-0.02,0.12c-0.16,0.01-0.32,0.02-0.47,0.04C29.47,40.12,29.63,40.07,29.81,40.02z M30.23,39.79
		l0.01-0.09v0.41c-0.02,0-0.04,0-0.07,0C30.2,40.01,30.21,39.91,30.23,39.79z M29.25,35.97c0.03,0,0.07-0.01,0.1-0.02
		C29.32,35.96,29.28,35.97,29.25,35.97z M27.04,36.49c-0.08,0.03-0.22-0.01-0.37-0.11c0.12-0.02,0.24-0.04,0.36-0.06
		C27.08,36.41,27.1,36.48,27.04,36.49z M25.78,36.52c-0.03,0.14-0.05,0.28-0.07,0.42c0-0.01,0-0.01,0-0.02
		c0-0.13,0.01-0.26,0.03-0.39C25.75,36.53,25.77,36.53,25.78,36.52z M25.24,36.69c0.02,0.06,0.05,0.13,0.09,0.2
		c0,0.01,0,0.02,0,0.03c0,0.18,0.01,0.34,0.03,0.49c0.01,0.05,0.02,0.09,0.03,0.13c-0.01-0.01-0.03-0.02-0.04-0.03
		c-0.06-0.18-0.13-0.38-0.21-0.6l-0.02-0.07c0-0.07,0-0.14,0-0.22c0.03-0.01,0.07-0.01,0.1-0.02
		C25.23,36.64,25.24,36.67,25.24,36.69z M24.88,36.69c0,0.06-0.01,0.12-0.01,0.18c-0.01,0.01-0.01,0.01-0.02,0.02
		c-0.02-0.07-0.05-0.13-0.07-0.2c0.03-0.01,0.06-0.01,0.1-0.02C24.88,36.68,24.88,36.68,24.88,36.69z M21.65,37.17
		c0.02,0.01,0.05,0.02,0.07,0.02c0.16,0.06,0.28,0.13,0.24,0.19c-0.04,0.06-0.16,0.11-0.31,0.11c-0.08,0-0.16,0-0.25-0.02
		c-0.06-0.03-0.13-0.05-0.19-0.08c-0.1-0.05-0.17-0.09-0.24-0.14C21.19,37.24,21.42,37.21,21.65,37.17z M16.71,41.75v-3.98
		c0.05,0,0.11-0.01,0.16-0.01C16.82,39.08,16.76,40.48,16.71,41.75z M37.99,35.86c-0.07-0.21-0.53-0.82-1.74-0.99
		c-2.26-0.21-6.06,0.4-10.45,1.12c-3.67,0.6-7.47,1.21-10.64,1.36c-3.51,0.17-5.61-0.26-6.42-1.33c-0.02-0.03-0.03-0.06-0.04-0.09
		c0.14,0.12,0.29,0.22,0.44,0.31c0.32,0.18,0.65,0.29,0.98,0.37c0.66,0.15,1.33,0.16,1.98,0.13c-0.65-0.09-1.3-0.22-1.9-0.47
		c-0.3-0.13-0.59-0.29-0.84-0.49c-0.17-0.14-0.32-0.3-0.45-0.48c0.09,0.06,0.19,0.13,0.28,0.18c0.31,0.17,0.64,0.28,0.96,0.35
		c0.65,0.15,1.3,0.17,1.95,0.14c-0.64-0.09-1.27-0.23-1.87-0.48c-0.29-0.13-0.58-0.28-0.83-0.48c-0.16-0.12-0.3-0.26-0.42-0.41
		c0.11,0.07,0.23,0.14,0.35,0.2c0.32,0.14,0.64,0.22,0.96,0.27c0.64,0.09,1.27,0.08,1.89,0.04c-0.62-0.09-1.24-0.19-1.83-0.39
		c-0.29-0.1-0.57-0.23-0.83-0.4c-0.19-0.13-0.36-0.3-0.5-0.47c0.1,0.06,0.21,0.13,0.32,0.17c0.31,0.13,0.62,0.2,0.93,0.23
		c0.31,0.04,0.62,0.04,0.92,0.04c0.3,0,0.61-0.02,0.91-0.04c-0.3-0.04-0.6-0.09-0.9-0.14c-0.3-0.06-0.59-0.12-0.88-0.21
		c-0.28-0.09-0.56-0.21-0.8-0.37c-0.22-0.15-0.41-0.33-0.56-0.55c0.09,0.06,0.19,0.11,0.29,0.15c0.32,0.14,0.64,0.21,0.96,0.24
		c0.32,0.04,0.63,0.05,0.95,0.04c0.31,0,0.63-0.02,0.94-0.04c-0.31-0.04-0.62-0.09-0.93-0.14c-0.31-0.06-0.61-0.12-0.91-0.22
		c-0.29-0.09-0.58-0.22-0.83-0.38c-0.19-0.13-0.35-0.29-0.49-0.47c0.06,0.04,0.13,0.08,0.19,0.11c0.33,0.16,0.66,0.25,0.99,0.3
		c0.33,0.05,0.66,0.06,0.99,0.06c0.33,0,0.65-0.01,0.98-0.03c-0.32-0.04-0.65-0.09-0.97-0.15c-0.32-0.06-0.64-0.13-0.94-0.24
		c-0.3-0.1-0.6-0.24-0.85-0.42c-0.16-0.12-0.29-0.26-0.41-0.42c0.07,0.04,0.14,0.09,0.21,0.12c0.33,0.17,0.66,0.25,0.99,0.3
		c0.33,0.05,0.66,0.06,0.99,0.06c0.33,0,0.65-0.01,0.97-0.03c-0.32-0.04-0.64-0.09-0.96-0.15c-0.32-0.06-0.63-0.13-0.94-0.23
		c-0.3-0.1-0.59-0.24-0.84-0.42c-0.16-0.12-0.29-0.26-0.4-0.42c0.07,0.04,0.13,0.08,0.2,0.12c0.32,0.17,0.66,0.25,0.99,0.3
		c0.33,0.05,0.66,0.06,0.98,0.06c0.32,0,0.65-0.02,0.97-0.03c-0.32-0.04-0.64-0.09-0.96-0.15c-0.32-0.06-0.63-0.13-0.93-0.23
		c-0.3-0.1-0.59-0.24-0.84-0.42c-0.25-0.19-0.45-0.43-0.58-0.71c0-0.01-0.01-0.02-0.01-0.02c0.71,0.9,2.7,0.94,4.24,0.87
		c2.39-0.11,5.51-0.58,8.81-1.09c6.9-1.05,14.73-2.25,16.38,0.02c0.02,0.03,0.04,0.07,0.05,0.1c-0.12-0.08-0.25-0.15-0.38-0.21
		c-0.35-0.16-0.71-0.27-1.07-0.36c-0.73-0.17-1.46-0.21-2.19-0.19c0.72,0.08,1.44,0.22,2.1,0.48c0.33,0.13,0.65,0.28,0.94,0.47
		c0.28,0.18,0.53,0.41,0.7,0.65c-0.14-0.11-0.29-0.21-0.44-0.3c-0.35-0.19-0.72-0.31-1.09-0.39c-0.37-0.08-0.74-0.12-1.11-0.14
		c-0.37-0.02-0.74-0.01-1.11,0.01c0.37,0.03,0.73,0.08,1.09,0.14c0.36,0.07,0.71,0.15,1.05,0.28c0.34,0.12,0.65,0.28,0.93,0.48
		c0.22,0.16,0.41,0.36,0.57,0.58c-0.15-0.11-0.31-0.21-0.48-0.29c-0.34-0.17-0.69-0.28-1.05-0.35c-0.36-0.07-0.71-0.09-1.07-0.1
		c-0.35-0.01-0.7,0.01-1.05,0.03c0.35,0.03,0.7,0.06,1.04,0.12c0.34,0.06,0.68,0.13,1,0.24c0.32,0.11,0.62,0.26,0.89,0.44
		c0.26,0.18,0.48,0.4,0.65,0.65c0,0.01,0,0.01,0,0.02c-0.14-0.1-0.29-0.2-0.45-0.27c-0.33-0.17-0.68-0.28-1.04-0.35
		c-0.71-0.14-1.41-0.13-2.11-0.08c0.69,0.04,1.39,0.14,2.03,0.37c0.32,0.11,0.62,0.26,0.89,0.45c0.24,0.17,0.45,0.37,0.62,0.6
		c0,0.01,0,0.02,0,0.04c-0.14-0.09-0.28-0.18-0.42-0.25c-0.33-0.16-0.68-0.27-1.03-0.35c-0.7-0.14-1.4-0.14-2.09-0.08
		c0.69,0.03,1.38,0.14,2.01,0.37c0.32,0.11,0.61,0.26,0.88,0.45c0.26,0.18,0.48,0.39,0.65,0.63c0,0.02,0,0.03,0,0.05
		c-0.11-0.08-0.23-0.16-0.35-0.22c-0.34-0.17-0.7-0.29-1.05-0.36c-0.36-0.07-0.72-0.1-1.08-0.11c-0.36-0.01-0.71,0.01-1.07,0.05
		c0.35,0.01,0.71,0.04,1.05,0.1c0.35,0.06,0.69,0.14,1.01,0.25c0.32,0.12,0.63,0.27,0.9,0.46c0.26,0.18,0.47,0.41,0.63,0.66
		c0,0.01,0,0.02,0,0.03c-0.12-0.08-0.23-0.16-0.35-0.22c-0.34-0.18-0.71-0.29-1.07-0.36c-0.36-0.07-0.73-0.11-1.1-0.11
		c-0.36-0.01-0.73,0.02-1.08,0.06c0.36,0,0.72,0.03,1.07,0.09c0.35,0.06,0.7,0.14,1.03,0.25c0.33,0.12,0.64,0.27,0.92,0.46
		c0.22,0.16,0.41,0.35,0.57,0.56c-0.1-0.07-0.2-0.15-0.31-0.21c-0.35-0.18-0.71-0.3-1.08-0.37c-0.37-0.07-0.74-0.1-1.11-0.1
		c-0.37,0-0.73,0.03-1.09,0.08c0.36,0,0.72,0.02,1.08,0.07c0.36,0.05,0.71,0.13,1.04,0.24c0.33,0.11,0.65,0.26,0.92,0.46
		c0.17,0.12,0.31,0.27,0.44,0.43l0.1,0.11c0.47,0.66-0.39,1.31-1.24,1.69C37.53,36.77,38.11,36.25,37.99,35.86z M17.98,16.88
		c0.04-0.34,0.07-0.66,0.11-0.95l0.08-0.59c0.04-0.3,0.1-0.67,0.17-1.09l0.02-0.11c0.29-1.77,0.77-4.45,1.12-6.39l0.08-0.42
		l-0.06-0.04c-0.05-0.03-0.09-0.07-0.13-0.1c-0.04-0.03-0.07-0.07-0.11-0.11c-0.04-0.04-0.08-0.08-0.11-0.13
		c-0.03-0.03-0.05-0.07-0.07-0.11c-0.03-0.04-0.06-0.1-0.1-0.17l-0.03-0.08c-0.02-0.06-0.05-0.14-0.07-0.22l-0.02-0.08
		c-0.01-0.07-0.02-0.15-0.03-0.22c0-0.02,0-0.05,0-0.07c-0.01-0.21,0.03-0.47,0.1-0.74c0.03-0.11,0.07-0.23,0.12-0.36
		c0.03-0.1,0.07-0.2,0.12-0.3l0.03-0.07l-0.05-0.07c-0.26-0.28-0.36-0.68-0.24-1.05l0.39-1.25c0.2-0.87,1.29-1.07,1.76-1.16
		c0.64-0.12,1.5-0.18,2.43-0.18c0.93,0,1.79,0.06,2.43,0.18c0.47,0.09,1.56,0.29,1.77,1.19l0.38,1.22c0.12,0.37,0.02,0.77-0.24,1.05
		L27.77,4.5l0.02,0.07c0.05,0.12,0.09,0.22,0.12,0.32c0.05,0.12,0.09,0.24,0.12,0.36c0.03,0.11,0.06,0.23,0.08,0.35
		c0.03,0.17,0.03,0.32,0.03,0.45c0,0.05-0.01,0.09-0.02,0.13c-0.01,0.06-0.02,0.12-0.03,0.17c-0.04,0.14-0.07,0.22-0.11,0.3
		l-0.03,0.06c-0.03,0.07-0.08,0.15-0.14,0.22c-0.03,0.04-0.07,0.09-0.11,0.13c-0.03,0.04-0.07,0.07-0.11,0.11
		c-0.04,0.04-0.09,0.07-0.13,0.1l-0.06,0.04l0.01,0.07c0.12,0.68,0.32,1.78,0.53,2.98l0.72,4.19c0.05,0.29,0.09,0.55,0.12,0.77
		l0.03,0.18c0.06,0.45,0.13,1.04,0.19,1.65c-0.09,0.25-0.19,0.5-0.24,0.76c-0.06,0.25-0.09,0.5-0.1,0.76
		c-0.01,0.03-0.03,0.05-0.04,0.08c-0.01,0.01-0.01,0.03-0.02,0.04c-0.02-0.15-0.03-0.3-0.05-0.44l-0.04-0.36
		c-0.09-0.87-0.19-1.77-0.27-2.41c-0.08-0.55-0.24-1.54-0.48-2.94l-0.23-1.33c-0.25-1.43-0.5-2.83-0.66-3.69L26.8,7.19l0.01-0.16
		l0.07-0.04l-0.14-0.24l0.19,0.21c0.04-0.02,0.07-0.04,0.1-0.06c0.19-0.12,0.33-0.27,0.41-0.43l0.03-0.05
		c0.12-0.25,0.13-0.54,0.04-0.91c-0.03-0.15-0.08-0.3-0.15-0.47c-0.05-0.13-0.1-0.27-0.16-0.42l-0.17-0.4
		c0.11,0.01,0.24-0.04,0.34-0.12c0.15-0.13,0.21-0.34,0.15-0.53l-0.39-1.24c-0.1-0.49-0.72-0.67-1.32-0.78
		c-1.26-0.23-3.4-0.23-4.65,0c-0.6,0.11-1.23,0.29-1.31,0.75l-0.4,1.27c-0.06,0.19,0,0.4,0.15,0.53c0.09,0.08,0.2,0.12,0.34,0.12
		l-0.27,0.65c-0.15,0.39-0.29,0.79-0.27,1.16l0.01,0.06c0.02,0.13,0.04,0.24,0.11,0.38c0.06,0.12,0.14,0.22,0.23,0.3
		c0.03,0.03,0.07,0.06,0.13,0.1l0.06,0.04c0.03,0.02,0.07,0.04,0.1,0.06l0.16-0.23l-0.11,0.25l0.07,0.04l0.12-0.25l0,0l-0.1,0.33
		l-0.05,0.26c-0.14,0.8-0.43,2.37-0.71,4.01l-0.09,0.53c-0.32,1.84-0.52,3.05-0.61,3.69c-0.02,0.12-0.03,0.26-0.05,0.4
		c-0.08,0.66-0.17,1.51-0.26,2.4l-0.02,0.17c-0.06,0.56-0.12,1.13-0.18,1.67c-0.04,0.36-0.08,0.7-0.12,1.02
		c-0.11,0.86-0.2,1.4-0.28,1.61c-0.11,0.3-0.43,0.77-0.76,1.27c-0.35,0.52-0.72,1.08-0.98,1.61c-0.14-0.16-0.28-0.31-0.43-0.45
		c-0.19-0.17-0.38-0.35-0.55-0.54c-0.01-0.01-0.02-0.02-0.02-0.03c0.13-0.01,0.26-0.03,0.38-0.03c0.18,0,0.36,0.01,0.54,0.03
		c0.16-0.27,0.34-0.53,0.51-0.78c-0.11-0.05-0.25-0.34-0.75-0.35c-0.3-0.01-0.54-0.04-0.76-0.11c-0.22-0.08-0.46-0.18-0.75-0.33
		c0,0,0.15,0.11,0.32,0.24c0.09,0.06,0.18,0.13,0.26,0.2c0.08,0.06,0.16,0.11,0.22,0.15c0.22,0.12,0.92,0.2,0.84,0.36
		c-0.06,0.12-0.32,0.19-0.64,0.16c-0.24-0.07-0.46-0.16-0.65-0.28c-0.12-0.07-0.23-0.16-0.34-0.26c-0.1-0.09-0.21-0.19-0.32-0.3
		c-0.15-0.16-0.29-0.33-0.43-0.52c0.54-0.11,1.02-0.14,1.44-0.1c0.22,0.02,0.42,0.07,0.6,0.13c0.16,0.06,0.3,0.14,0.44,0.25
		c0.23,0.17,0.41,0.4,0.56,0.69c0,0,0,0,0,0c0.21-0.31,0.37-0.56,0.5-0.77c0.11-0.18,0.18-0.32,0.22-0.41
		c0.02-0.06,0.11-0.35,0.25-1.49c0.05-0.42,0.11-0.91,0.18-1.55L17.98,16.88z M11.42,20.13c-0.12-0.07-0.23-0.16-0.36-0.26
		c-0.17-0.14-0.33-0.3-0.5-0.47c0.52-0.18,1-0.27,1.42-0.27c0.44-0.01,0.81,0.07,1.09,0.24c0.27,0.15,0.5,0.38,0.68,0.67
		c0,0.01,0,0.02-0.01,0.02c-0.13,0.11-0.26-0.3-0.86-0.24c-0.3,0.03-0.54,0.03-0.77-0.01c-0.24-0.04-0.48-0.12-0.79-0.24
		c0,0,0.16,0.09,0.35,0.2c0.1,0.05,0.2,0.11,0.29,0.16c0.09,0.05,0.18,0.09,0.24,0.12c0.24,0.09,0.94,0.08,0.88,0.25
		c-0.04,0.12-0.29,0.23-0.61,0.25c-0.25-0.04-0.48-0.1-0.68-0.19c-0.13-0.06-0.24-0.13-0.36-0.2L11.42,20.13z M8.93,17.77
		c0.22-0.09,0.44-0.16,0.65-0.22c0.14-0.04,0.27-0.07,0.4-0.09c0.12-0.02,0.24-0.03,0.36-0.04c0.42-0.03,0.79,0.04,1.1,0.19
		c0.15,0.07,0.28,0.15,0.39,0.25c0.11,0.09,0.21,0.21,0.3,0.33c0.01,0.01,0.02,0.03,0.03,0.04c0,0.01,0,0.02-0.01,0.03
		c-0.06,0.06-0.13-0.02-0.25-0.09c-0.13-0.08-0.31-0.16-0.61-0.1c-0.6,0.11-0.96,0.05-1.58-0.17c0,0,0.16,0.09,0.36,0.19
		c0.2,0.1,0.42,0.21,0.55,0.25c0.13,0.04,0.36,0.04,0.56,0.06c0.2,0.02,0.36,0.05,0.33,0.14c-0.03,0.09-0.14,0.17-0.31,0.22
		c-0.08,0.03-0.18,0.05-0.29,0.06c-0.07-0.01-0.16-0.01-0.23-0.03c-0.17-0.03-0.32-0.07-0.46-0.13c-0.48-0.18-0.85-0.5-1.27-0.87
		C8.95,17.78,8.94,17.78,8.93,17.77z M6.87,13.68c-0.09-0.17-0.17-0.35-0.26-0.54l-0.04-0.08c-0.06-0.13-0.12-0.26-0.18-0.4
		c0.76,0.03,1.44,0.16,2.05,0.4c0.14,0.06,0.28,0.12,0.41,0.19c0.11,0.06,0.22,0.13,0.34,0.22c0.2,0.15,0.38,0.32,0.53,0.5
		c0.14,0.17,0.25,0.35,0.35,0.55c0.06,0.14,0.1,0.3,0.15,0.46c0.02,0.14,0.01,0.24-0.03,0.26c-0.11,0.04-0.15-0.09-0.26-0.26
		c-0.11-0.17-0.3-0.37-0.7-0.48c-0.39-0.11-0.69-0.23-0.96-0.41c-0.28-0.18-0.55-0.4-0.87-0.71c0,0,0.16,0.21,0.35,0.45
		c0.09,0.12,0.2,0.24,0.29,0.36c0.09,0.11,0.18,0.21,0.24,0.28c0.26,0.25,1.13,0.57,0.98,0.76c-0.14,0.17-0.64,0.18-1.16-0.06
		c-0.19-0.14-0.35-0.28-0.51-0.45C7.32,14.43,7.09,14.11,6.87,13.68z M14.69,17.63c0.03-0.07,0.05-0.13,0.08-0.2l0.15,0.21
		c0.12,0.17,0.21,0.31,0.29,0.44c0.09,0.15,0.17,0.3,0.23,0.44c0.08,0.17,0.12,0.31,0.15,0.45c0.05,0.22,0.06,0.45,0.06,0.69
		c-0.09,0.35-0.26,0.57-0.4,0.58c-0.18,0.01,0-0.68-0.05-0.95c-0.02-0.14-0.11-0.39-0.19-0.61c-0.08-0.22-0.16-0.41-0.16-0.41
		c0.16,0.69,0.19,1.05-0.02,1.64c-0.2,0.58,0.16,0.81,0.03,0.91c-0.01,0.01-0.02,0-0.03,0c-0.01-0.01-0.03-0.02-0.04-0.03
		c-0.22-0.25-0.36-0.51-0.44-0.8c-0.1-0.34-0.12-0.71-0.05-1.14c0.04-0.24,0.11-0.5,0.2-0.77C14.57,17.94,14.63,17.79,14.69,17.63z
		 M17.19,21.5c0,0.06-0.02,0.14-0.03,0.21c0,0,0,0.01,0,0.01c-0.04,0.11-0.08,0.2-0.13,0.28c-0.1,0.15-0.21,0.24-0.3,0.24
		c-0.09,0-0.07-0.17-0.05-0.37c0.03-0.2,0.07-0.44,0.05-0.58c-0.02-0.14-0.08-0.4-0.15-0.63c-0.06-0.23-0.13-0.42-0.13-0.42
		c0.11,0.7,0.1,1.08-0.13,1.65c-0.23,0.56,0.1,0.82-0.04,0.91c-0.01,0-0.02,0-0.03,0c-0.01-0.01-0.02-0.02-0.03-0.03
		c-0.15-0.22-0.32-0.49-0.4-0.83c-0.08-0.33-0.06-0.72,0.04-1.16c0.09-0.41,0.27-0.87,0.53-1.38c0.15,0.23,0.3,0.46,0.41,0.68
		c0.17,0.34,0.27,0.64,0.33,0.93C17.18,21.17,17.19,21.33,17.19,21.5z M14.05,17.56c0.01,0.05,0.01,0.09,0.01,0.13
		c-0.02,0.15-0.05,0.28-0.1,0.38c-0.08,0.16-0.17,0.27-0.26,0.28c-0.18,0.02-0.05-0.67-0.12-0.94c-0.03-0.13-0.13-0.38-0.22-0.6
		c-0.05-0.11-0.09-0.21-0.12-0.28c-0.03-0.07-0.05-0.12-0.05-0.12c0.19,0.68,0.23,1.05,0.07,1.64c-0.08,0.3-0.02,0.49,0.04,0.63
		c0.06,0.14,0.12,0.22,0.05,0.27c-0.01,0.01-0.02,0-0.03,0c-0.01-0.01-0.02-0.02-0.03-0.03c-0.1-0.11-0.2-0.23-0.29-0.36
		c-0.09-0.13-0.16-0.27-0.21-0.41c-0.12-0.32-0.15-0.7-0.11-1.15c0.04-0.42,0.16-0.9,0.37-1.43c0.18,0.21,0.34,0.41,0.48,0.61
		c0.21,0.31,0.34,0.59,0.43,0.87C14,17.23,14.03,17.39,14.05,17.56z M12.15,15.68c0,0.35-0.11,0.61-0.25,0.65
		c-0.17,0.06-0.16-0.66-0.28-0.91c-0.11-0.25-0.57-0.9-0.57-0.9c0.15,0.31,0.26,0.56,0.32,0.8c0.06,0.24,0.07,0.48,0.04,0.79
		c-0.06,0.61,0.35,0.75,0.24,0.87c-0.01,0.01-0.02,0.01-0.03,0.01c-0.01-0.01-0.03-0.02-0.04-0.03c-0.27-0.19-0.47-0.41-0.62-0.67
		c-0.18-0.3-0.28-0.66-0.31-1.09c-0.03-0.41,0.01-0.91,0.12-1.48c0.21,0.18,0.4,0.35,0.57,0.52c0.26,0.26,0.44,0.51,0.58,0.77
		C12.03,15.21,12.1,15.43,12.15,15.68z M9.85,15.98c0.27,0.13,0.5,0.31,0.7,0.57c0.01,0.01,0.02,0.03,0.03,0.04
		c0,0.01,0,0.02-0.01,0.03c-0.12,0.12-0.28-0.28-0.88-0.18c-0.3,0.05-0.54,0.07-0.78,0.04c-0.12-0.01-0.24-0.04-0.37-0.07
		c-0.13-0.03-0.27-0.07-0.43-0.12c0,0,0.17,0.08,0.37,0.18c0.2,0.1,0.42,0.21,0.55,0.25c0.25,0.08,0.95,0.01,0.9,0.19
		c-0.04,0.13-0.27,0.25-0.6,0.29c-0.25-0.03-0.48-0.07-0.68-0.14c-0.49-0.19-0.89-0.51-1.32-0.89C8.39,15.74,9.23,15.68,9.85,15.98z
		 M12.75,20.96c0.3-0.05,0.56-0.06,0.77-0.05c0.41,0.02,0.77,0.13,1.07,0.31c0.15,0.09,0.27,0.19,0.35,0.29
		c0.09,0.11,0.18,0.23,0.26,0.37c0.01,0.01,0.01,0.03,0.02,0.04c0,0.01,0,0.02-0.01,0.03c-0.07,0.05-0.13-0.03-0.24-0.12
		c-0.06-0.05-0.13-0.09-0.23-0.13c-0.05-0.02-0.1-0.03-0.16-0.04c-0.06-0.01-0.13-0.01-0.21-0.01c-0.61,0.03-0.95-0.06-1.54-0.34
		c0,0,0.15,0.1,0.33,0.22c0.18,0.12,0.39,0.25,0.51,0.31c0.12,0.05,0.35,0.08,0.55,0.12c0.19,0.04,0.35,0.09,0.31,0.17
		c-0.06,0.12-0.3,0.21-0.63,0.21c-0.07-0.02-0.16-0.03-0.22-0.05c-0.19-0.06-0.33-0.12-0.44-0.18c-0.24-0.12-0.46-0.29-0.69-0.51
		l-0.33-0.34c-0.05-0.05-0.1-0.1-0.14-0.15C12.31,21.04,12.54,20.99,12.75,20.96z M45.07,54.68c-0.06,0.16-0.17,0.29-0.29,0.33
		c-0.04,0.01-0.08,0.02-0.12,0.02l-12.75,0c-0.18,1.09-1.89,4.22-8.42,4.3c-6.55-0.09-8.27-3.21-8.45-4.31l-12.63,0
		c-0.03,0-0.07,0-0.1-0.01C2.19,54.98,2.07,54.85,2,54.68C1.96,54.57,1.88,54.3,2.03,54l7.89-15.86c-0.99-0.31-1.7-0.77-2.18-1.41
		c-0.02-0.03-0.04-0.06-0.06-0.1c-0.52-0.9-0.36-1.7-0.22-2.41c0.07-0.33,0.13-0.67,0.12-1.01c-0.02-0.64-0.08-1.21-0.13-1.72
		c-0.18-1.79,0.17-3.04,1.03-3.61c0.22-0.19,0.48-0.36,0.7-0.47c0.08,0.01,0.15,0.02,0.23,0.02c0.04,0,0.09,0,0.13,0l0.09,0.04
		c0.19,0.09,0.37,0.18,0.55,0.26c-0.18,0.06-0.33,0.11-0.44,0.16c-0.03,0.02-0.08,0.04-0.14,0.07c-0.02,0-0.03,0-0.05,0
		c-0.22,0-0.44,0.04-0.65,0.1c0.11-0.02,0.22-0.04,0.33-0.05c0.09-0.01,0.18,0,0.27,0.01c-0.19,0.1-0.42,0.25-0.62,0.43c0,0,0,0,0,0
		c-0.73,0.48-0.87,1.67-0.74,2.96c0.05,0.52,0.11,1.11,0.14,1.77c0.02,0.42-0.06,0.8-0.13,1.17c-0.13,0.64-0.25,1.25,0.14,1.93
		c0.01,0.01,0.01,0.02,0.02,0.03c0.8,1.08,2.55,1.59,5.45,1.59c0.45,0,0.93-0.01,1.43-0.04c0.24-0.01,0.48-0.03,0.73-0.05v4.05
		c-0.19,0.02-0.38,0.03-0.57,0.04v-3.2c-2.1,0.55-3.53,1.34-4.23,1.99c0,0,0,0-0.01,0c-0.88,0.66-0.77,1.55-0.66,2.66
		c0.05,0.44,0.1,0.94,0.12,1.5c0.01,0.35-0.05,0.67-0.11,0.98c-0.11,0.53-0.21,1.08,0.12,1.66c0.01,0.01,0.01,0.02,0.02,0.03
		c0.75,1.01,2.45,1.37,4.67,1.37c0.21,0,0.43-0.01,0.65-0.02v1.85c0,0.27-0.07,0.55-0.2,0.79c-0.08,0.15-0.12,0.32-0.12,0.49v2.83
		c0,0.63,1.37,3.84,7.89,3.92c6.51-0.09,7.88-3.29,7.88-3.92v-2.83c0-0.17-0.04-0.34-0.12-0.49c-0.13-0.24-0.2-0.52-0.2-0.79V46.9
		c0.19-0.02,0.38-0.04,0.57-0.06l0,2.96c2.12-0.57,4.52-1.73,4.71-2.52c0.18-0.42,0.15-0.93,0.1-1.56
		c-0.01-0.12-0.02-0.26-0.03-0.39c0-0.03,0-0.06-0.01-0.09c-0.02-0.36-0.04-0.73-0.02-1.06c0-0.01,0-0.01,0-0.02
		c0-0.29,0.06-0.64,0.11-0.97c0.12-0.72,0.25-1.47-0.16-1.95c-0.83-0.98-2.79-1.26-5.28-1.18v-4.36c0.19-0.03,0.39-0.05,0.57-0.08
		l0,3.54c2.09-0.46,4.83-1.28,5.7-1.74c0.4-0.22,1.04-0.64,1.27-1.13c0,0,0.01-0.01,0.01-0.01c0.18-0.33,0.2-0.84,0.15-1.7
		l0.01-0.01c0,0-0.01,0-0.01-0.01c-0.01-0.11-0.02-0.23-0.03-0.36c-0.01-0.16-0.02-0.33-0.03-0.49l0,0c0,0,0,0,0,0
		c-0.03-0.45-0.05-0.91-0.03-1.33c0-0.01,0-0.01,0-0.02c0-0.35,0.06-0.76,0.12-1.15c0.13-0.83,0.26-1.69-0.15-2.26
		c-0.55-0.75-1.62-1.17-3.03-1.36c0.14-0.09,0.28-0.18,0.43-0.28l0.15-0.1c0.2-0.01,0.38-0.04,0.56-0.09c0.01,0,0.01,0,0.02-0.01
		c1.14,0.29,1.94,0.77,2.43,1.44c0.59,0.8,0.42,1.84,0.28,2.77c-0.06,0.37-0.12,0.75-0.12,1.05l0,0.04
		c-0.04,0.54,0.01,1.18,0.06,1.74c0.09,1.22,0.09,1.93-0.2,2.47c-0.34,0.69-1.12,1.18-1.56,1.42c-0.12,0.06-0.27,0.13-0.44,0.2
		L45.05,54C45.19,54.3,45.12,54.57,45.07,54.68z"/>
	<polygon class="st0" points="38.53,51.35 38.48,51.37 38.48,51.82 38.53,51.84 38.85,51.84 38.9,51.82 38.9,51.37 38.85,51.35 	"/>
	<path class="st0" d="M36.59,38.48c-0.84,0.31-1.98,0.66-3.14,0.96c1.67,0.16,2.77,0.61,3.41,1.37c0.61,0.72,0.44,1.71,0.31,2.51
		c-0.05,0.31-0.11,0.62-0.11,0.86c-0.03,0.5,0.01,1.03,0.05,1.5c0.05,0.62,0.1,1.26-0.13,1.84c-0.33,1.22-3.26,2.46-5.36,3l0,0.23
		c0,0.18,0.05,0.37,0.13,0.53c0.12,0.23,0.18,0.49,0.18,0.75v2.36l12.55,0c0-0.03,0-0.06-0.02-0.09L36.59,38.48z M35.13,52.73
		l0.05-0.1v-1.21l-0.05-0.02h-0.16l0.15-0.25h0.47v1.48l0.05,0.1H35.13z M37.48,52.63l-0.21,0.1h-0.83l-0.2-0.1v-0.2l-0.05-0.1h0.52
		l-0.06,0.1v0.08l0.05,0.02h0.32l0.05-0.02v-0.45l-0.05-0.02h-0.57l-0.2-0.1v-0.69l0.2-0.1h0.83l0.21,0.1V52.63z M39.32,52.63
		l-0.21,0.1h-0.83l-0.2-0.1v-0.2l-0.05-0.1h0.52l-0.06,0.1v0.08l0.05,0.02h0.32l0.05-0.02v-0.45l-0.05-0.02h-0.57l-0.2-0.1v-0.69
		l0.2-0.1h0.83l0.21,0.1V52.63z M39.96,52.73l0.05-0.1v-1.21l-0.05-0.02H39.8l0.15-0.25h0.47v1.48l0.05,0.1H39.96z"/>
	<polygon class="st0" points="11.85,51.35 11.81,51.37 11.81,52.51 11.85,52.53 12.14,52.53 12.18,52.51 12.18,51.37 12.14,51.35 	
		"/>
	<path class="st0" d="M15.03,54.38v-2.36c0-0.26,0.06-0.52,0.18-0.75c0.09-0.16,0.13-0.35,0.13-0.53V49.6c-0.03,0-0.06,0-0.08,0
		c-2.69,0-4.39-0.54-5.22-1.65c-0.02-0.03-0.05-0.07-0.07-0.1c-0.46-0.8-0.31-1.54-0.2-2.13c0.06-0.3,0.11-0.55,0.1-0.82
		c-0.02-0.54-0.07-1.02-0.11-1.45l-0.01-0.06c-0.12-1.15-0.24-2.33,0.92-3.21c0.63-0.57,1.61-1.12,2.8-1.57
		c-1.14-0.01-2.1-0.1-2.91-0.28L2.62,54.29C2.6,54.32,2.6,54.35,2.6,54.38L15.03,54.38z M6.97,51.84h0.15l0.18-0.02v0.25l-0.18-0.02
		H6.97l-0.04,0.02v0.45l0.04,0.02H7.5l0.19-0.02l-0.07,0.22H6.51l0.05-0.1v-1.39l-0.05-0.1h1.12l0.07,0.22L7.5,51.35H6.97
		l-0.04,0.02v0.45L6.97,51.84z M8.83,51.35H8.54L8.5,51.37v0.45l0.04,0.02h0.52l0.18,0.1v0.69l-0.18,0.1H8.31l-0.19-0.1v-0.2
		l-0.04-0.1h0.47l-0.05,0.1v0.08l0.04,0.02h0.29l0.04-0.02v-0.45l-0.04-0.02H8.31l-0.19-0.1v-0.69l0.19-0.1h0.75l0.18,0.1v0.2
		l0.05,0.1H8.83l0.04-0.1v-0.08L8.83,51.35z M10.81,51.35h-0.24l-0.04,0.02v1.26l0.05,0.1H10.1l0.05-0.1v-1.26l-0.04-0.02H9.86
		l-0.19,0.02l0.07-0.22h1.2L11,51.37L10.81,51.35z M12.56,52.63l-0.19,0.1h-0.98l0.04-0.1v-1.39l-0.04-0.1h0.98l0.19,0.1V52.63z"/>
	<path class="st0" d="M15.7,25.2c-0.08-0.05-0.15-0.09-0.24-0.15c0,0,0.09,0.08,0.21,0.19C15.68,25.23,15.69,25.21,15.7,25.2z"/>
	<path class="st0" d="M17.21,34.51l-0.96,0.08c-0.08,0.2-0.18,0.35-0.31,0.45c-0.13,0.1-0.29,0.16-0.48,0.18
		c-0.26,0.02-0.48-0.06-0.67-0.26c-0.19-0.19-0.29-0.44-0.32-0.75c-0.03-0.32,0.04-0.59,0.2-0.81c0.16-0.22,0.37-0.34,0.65-0.36
		c0.2-0.02,0.38,0.02,0.53,0.12c0.15,0.1,0.27,0.25,0.36,0.45l0.88-0.07l-0.12-1.5l-0.81,0.06l0.03,0.35
		c-0.13-0.13-0.28-0.22-0.44-0.28c-0.17-0.06-0.35-0.08-0.54-0.07c-0.24,0.02-0.46,0.08-0.66,0.18c-0.2,0.1-0.38,0.24-0.53,0.41
		c-0.19,0.22-0.32,0.46-0.41,0.73c-0.08,0.27-0.11,0.55-0.09,0.85c0.02,0.3,0.1,0.58,0.23,0.83c0.13,0.25,0.3,0.47,0.52,0.65
		c0.18,0.15,0.38,0.26,0.59,0.33c0.21,0.07,0.44,0.09,0.68,0.07c0.44-0.03,0.8-0.2,1.1-0.49C16.93,35.37,17.12,34.99,17.21,34.51z"
		/>
	<path class="st0" d="M19.72,35.6l-0.11-0.77l-0.28,0.04l-0.13-0.87l0.28-0.04c0.18-0.03,0.31,0,0.39,0.07
		c0.08,0.08,0.14,0.28,0.19,0.6l0.13,0.9l1.2-0.18l-0.11-0.77l-0.31,0.05l-0.1-0.67c-0.02-0.16-0.07-0.27-0.14-0.34
		c-0.07-0.07-0.19-0.12-0.37-0.15c0.18-0.11,0.31-0.25,0.39-0.4c0.07-0.15,0.09-0.33,0.06-0.55c-0.04-0.3-0.16-0.53-0.36-0.69
		c-0.19-0.16-0.43-0.22-0.69-0.18l-2.12,0.31l0.11,0.77l0.35-0.05L18.43,35l-0.35,0.05l0.11,0.77L19.72,35.6z M18.99,32.54
		l0.35-0.05c0.16-0.02,0.29-0.01,0.38,0.05c0.09,0.05,0.14,0.15,0.16,0.29c0.02,0.14,0,0.25-0.07,0.33
		c-0.07,0.08-0.18,0.13-0.35,0.15l-0.35,0.05L18.99,32.54z"/>
	<path class="st0" d="M21.93,31.27l0.15,0.77l0.34-0.07l-0.17,2.43l-0.29,0.06l0.15,0.77l1.49-0.3l-0.15-0.77l-0.3,0.06l0.02-0.54
		l0.93-0.19l0.24,0.49l-0.3,0.06l0.15,0.77l1.49-0.3l-0.15-0.77l-0.29,0.06l-1.09-2.18l0.33-0.07l-0.15-0.77L21.93,31.27z
		 M23.83,32.83l-0.66,0.13l0.08-1.28L23.83,32.83z"/>
	<polygon class="st0" points="25.5,30.58 25.61,31.36 25.95,31.31 26.28,33.63 25.93,33.68 26.04,34.45 27.74,34.22 27.63,33.44 
		27.18,33.5 27.06,32.67 27.7,32.58 27.58,31.72 26.94,31.81 26.85,31.18 27.83,31.04 28.13,31.63 28.72,31.55 28.53,30.16 	"/>
	<polygon class="st0" points="31.74,33.03 31.39,33.06 31.22,30.71 31.5,30.69 31.72,31.29 32.27,31.25 32.17,29.86 29.25,30.08 
		29.35,31.46 29.9,31.42 30.04,30.79 30.32,30.77 30.49,33.12 30.14,33.15 30.19,33.93 31.8,33.81 	"/>
	<path class="st0" d="M19.68,46.09c-0.03-0.24-0.12-0.42-0.26-0.54c-0.15-0.12-0.36-0.19-0.64-0.22c0.22-0.09,0.37-0.2,0.46-0.34
		c0.09-0.13,0.13-0.29,0.1-0.47c-0.04-0.29-0.17-0.51-0.39-0.64c-0.22-0.14-0.52-0.18-0.88-0.13l-1.74,0.23l0.09,0.7l0.36-0.05
		l0.28,2.09l-0.36,0.05l0.09,0.7l1.88-0.25c0.37-0.05,0.64-0.17,0.81-0.36C19.65,46.66,19.72,46.4,19.68,46.09z M17.69,44.5
		l0.28-0.04c0.15-0.02,0.26,0,0.34,0.04c0.08,0.05,0.13,0.13,0.14,0.24c0.01,0.11-0.01,0.2-0.08,0.27
		c-0.06,0.07-0.17,0.11-0.31,0.13l-0.28,0.04L17.69,44.5z M18.61,46.41c-0.08,0.08-0.2,0.13-0.37,0.15l-0.28,0.04l-0.11-0.83
		l0.28-0.04c0.17-0.02,0.3,0,0.39,0.06c0.1,0.06,0.15,0.16,0.17,0.29C18.72,46.22,18.69,46.33,18.61,46.41z"/>
	<polygon class="st0" points="22.87,45.17 22.77,45.88 21.71,46.05 21.59,45.3 22.28,45.19 22.16,44.42 21.47,44.53 21.38,43.97 
		22.43,43.8 22.73,44.32 23.34,44.22 23.14,42.97 19.99,43.48 20.1,44.17 20.46,44.11 20.8,46.2 20.44,46.26 20.55,46.95 
		23.7,46.45 23.48,45.07 	"/>
	<polygon class="st0" points="26.85,44.49 26.75,45.2 25.7,45.38 25.58,44.63 26.26,44.51 26.13,43.74 25.45,43.86 25.35,43.29 
		26.4,43.12 26.71,43.64 27.32,43.53 27.11,42.28 23.96,42.81 24.08,43.51 24.44,43.45 24.79,45.53 24.43,45.59 24.55,46.28 
		27.69,45.76 27.46,44.39 	"/>
	<path class="st0" d="M31.67,45.22l-0.09-0.7l-0.32,0.04l-0.08-0.61c-0.02-0.14-0.06-0.24-0.13-0.31c-0.07-0.06-0.19-0.11-0.37-0.14
		c0.19-0.1,0.33-0.22,0.41-0.36c0.08-0.14,0.11-0.3,0.08-0.49c-0.03-0.27-0.15-0.48-0.34-0.62c-0.19-0.15-0.43-0.2-0.7-0.17
		l-2.18,0.27l0.09,0.7l0.35-0.04l0.26,2.1l-0.35,0.04l0.09,0.7l1.56-0.2l-0.09-0.7l-0.28,0.04l-0.1-0.79l0.28-0.03
		c0.19-0.02,0.32,0,0.39,0.07c0.08,0.07,0.13,0.25,0.17,0.54l0.1,0.81L31.67,45.22z M30.13,43.24c-0.07,0.07-0.19,0.12-0.36,0.14
		l-0.36,0.05l-0.09-0.74l0.36-0.05c0.17-0.02,0.3-0.01,0.38,0.04c0.09,0.05,0.14,0.14,0.15,0.26C30.23,43.07,30.2,43.17,30.13,43.24
		z"/>
</g>
</svg>
