<?xml version="1.0" encoding="utf-8"?>
<!-- Generator: Adobe Illustrator 26.1.0, SVG Export Plug-In . SVG Version: 6.00 Build 0)  -->
<svg version="1.1" id="Warstwa_1" xmlns="http://www.w3.org/2000/svg" xmlns:xlink="http://www.w3.org/1999/xlink" x="0px" y="0px"
	 viewBox="0 0 65.73 58.3" style="enable-background:new 0 0 65.73 58.3;" xml:space="preserve">
<style type="text/css">
	.st0{fill:#DDDDDD;}
</style>
<g>
	<path class="st0" d="M55.08,29.25c0-12.03-9.76-21.79-21.79-21.79c-12.03,0-21.79,9.76-21.79,21.79c0,12.03,9.76,21.79,21.79,21.79
		C45.32,51.04,55.08,41.29,55.08,29.25z M48.66,43.21c-0.22,0.25-0.45,0.49-0.69,0.72c-0.7,0.7-1.46,1.36-2.26,1.96
		c-0.27,0.2-0.54,0.39-0.81,0.58c-0.55,0.37-1.12,0.72-1.71,1.04c-2.94,1.6-6.31,2.51-9.9,2.51c-11.47,0-20.76-9.29-20.76-20.76
		c0-3.58,0.91-6.95,2.51-9.9c0.32-0.59,0.67-1.16,1.04-1.71c0.19-0.28,0.38-0.55,0.58-0.81c0.6-0.8,1.25-1.55,1.96-2.26
		c0.23-0.23,0.48-0.46,0.72-0.69c3.69-3.35,8.58-5.39,13.96-5.39c11.47,0,20.76,9.29,20.76,20.76
		C54.05,34.62,52.01,39.52,48.66,43.21z"/>
	<path class="st0" d="M38.15,18.01c0,0.12-0.22,0.01-0.38-0.08c-0.05-0.03-0.11-0.06-0.16-0.1c0,0-0.01,0-0.01-0.01c0,0,0,0,0,0
		c-0.88-0.49-2.29-0.8-3.92-0.8c-1.12,0-2.16,0.15-3.03,0.42c-0.05,0.02-0.09,0.03-0.13,0.05c-0.03,0-0.05,0.01-0.08,0.02
		c-0.03,0.01-0.06,0.01-0.08,0.02c0,0-0.01,0-0.01,0c-0.02,0.01-0.04,0.02-0.05,0.03c-0.01,0.01-0.02,0.01-0.03,0.02
		c-0.19,0.08-0.36,0.15-0.52,0.24l-0.01,0l-0.02,0.02c-0.01,0-0.01,0.01-0.01,0.01c-0.12,0.07-0.46,0.3-0.46,0.14
		c0-0.19,0.27-0.46,0.99-0.95c-1.03,0.4-1.68,0.98-1.68,1.63c0,0.43,0.28,0.84,0.77,1.21c0.47,0.4,1.26,0.71,2.27,0.91
		c0.07,0.01,0.15,0.03,0.22,0.04c0.07,0.01,0.14,0.03,0.21,0.04l0.13,0.02c0.07,0.01,0.13,0.02,0.2,0.02
		c0.14,0.02,0.29,0.03,0.43,0.04c0.04,0,0.08,0.01,0.12,0.01c0.15,0.01,0.3,0.02,0.46,0.02c0.06,0,0.13,0,0.19,0l0.01,0
		c0.04,0,0.09,0,0.13,0c0.05,0,0.09,0,0.13,0l0.01,0c0.06,0,0.13,0,0.19,0c0.15,0,0.31-0.01,0.46-0.02c0.04,0,0.08-0.01,0.12-0.01
		c0.14-0.01,0.28-0.02,0.43-0.04c0.07-0.01,0.13-0.02,0.2-0.02l0.13-0.02c1.09-0.16,1.96-0.47,2.52-0.85
		c0.62-0.39,0.98-0.86,0.98-1.34c0-0.65-0.65-1.23-1.68-1.63C37.88,17.55,38.15,17.82,38.15,18.01z M29.02,19.02
		c0-0.42,0.39-0.74,0.74-0.95l0.04-0.02c0.06-0.04,0.14-0.07,0.21-0.1c-0.01,0.05-0.01,0.1-0.01,0.16c0.04,0.59,0.77,1.36,1.09,1.46
		c0.26,0.08,0.59,0.06,0.96,0.04c0.23-0.01,0.48-0.03,0.75-0.02c0.29,0.01,0.57,0.06,0.84,0.1c0.29,0.05,0.59,0.1,0.9,0.1
		c0.09,0,0.18,0,0.27-0.01c0.25-0.03,0.38-0.13,0.46-0.24c0.18,0.03,0.39,0.04,0.65,0.01c1.11-0.13,1.62-0.89,1.04-1.41
		c-0.46-0.41-1.91-0.63-2.77-0.59c-0.1-0.06-0.2-0.1-0.28-0.12c-0.22-0.05-0.73,0.01-1.23,0.08c-0.3,0.04-0.58,0.07-0.72,0.07
		c-0.15,0-0.32-0.01-0.51-0.03c-0.08-0.01-0.16-0.01-0.24-0.02c0.74-0.18,1.58-0.28,2.45-0.28c2.52,0,4.65,0.81,4.65,1.77
		c0,0.73-1.21,1.39-3.02,1.66l-0.12,0.02c-0.06,0.01-0.13,0.02-0.19,0.02c-0.15,0.02-0.29,0.03-0.42,0.04
		c-0.04,0-0.08,0.01-0.12,0.01c-0.15,0.01-0.3,0.02-0.45,0.02c-0.06,0-0.12,0-0.18,0l-0.01,0c-0.04,0-0.09,0-0.13,0
		c-0.04,0-0.09,0-0.13,0l-0.01,0c-0.06,0-0.12,0-0.19,0c-0.15,0-0.31-0.01-0.45-0.02c-0.04,0-0.07,0-0.11-0.01
		c-0.14-0.01-0.28-0.02-0.42-0.04c-0.07-0.01-0.13-0.02-0.19-0.02l-0.12-0.02C30.23,20.41,29.02,19.74,29.02,19.02z M31.44,17.75
		c0.19,0.02,0.37,0.03,0.53,0.03c0.16,0,0.45-0.04,0.75-0.08c0.44-0.06,0.98-0.12,1.15-0.08c0.12,0.03,0.29,0.13,0.5,0.28h0
		c0.18,0.14,0.34,0.3,0.47,0.49c0.31,0.45,0.3,0.65,0.26,0.72c-0.03,0.06-0.11,0.1-0.24,0.12c-0.39,0.04-0.74-0.02-1.12-0.09
		c-0.28-0.05-0.56-0.1-0.87-0.1c-0.05,0-0.1,0-0.15,0c-0.22,0-0.43,0.01-0.62,0.02c-0.35,0.02-0.66,0.04-0.88-0.03
		c-0.26-0.08-0.9-0.86-0.87-1.2c0-0.03,0.01-0.1,0.15-0.11C30.81,17.7,31.14,17.73,31.44,17.75z M31.59,19.39
		c-0.15-0.01-0.31-0.03-0.46-0.08c0.15,0.03,0.3,0.04,0.46,0.03c0.15-0.01,0.31-0.02,0.46-0.03c0.31-0.03,0.62-0.04,0.93-0.02
		c0.31,0.02,0.62,0.09,0.92,0.14c0.3,0.06,0.61,0.1,0.92,0.09c-0.31,0.05-0.62,0.04-0.93-0.01c-0.31-0.04-0.61-0.1-0.91-0.12
		c-0.3-0.02-0.61-0.01-0.92,0C31.9,19.39,31.74,19.39,31.59,19.39z"/>
	<path class="st0" d="M31.87,17.99c-0.16-0.09-0.6-0.12-0.73-0.09c-0.06,0.02-0.11,0.05-0.13,0.11c-0.07,0.14-0.03,0.39,0.2,0.64
		c0.17,0.17,0.43,0.23,0.63,0.23c0.02,0,0.03,0,0.05,0c0.16-0.01,0.29-0.05,0.35-0.13c0.04-0.05,0.05-0.13,0.03-0.24
		C32.24,18.43,32.17,18.16,31.87,17.99z M31.18,18.25c0.01-0.02,0.03-0.04,0.06-0.05c0.02-0.01,0.06-0.01,0.1-0.01
		c0.11,0,0.28,0.02,0.35,0.06c0.18,0.1,0.23,0.27,0.23,0.31c0.01,0.06,0,0.1-0.01,0.12c-0.03,0.03-0.09,0.06-0.17,0.06
		c-0.14,0.01-0.32-0.04-0.43-0.15C31.16,18.45,31.15,18.32,31.18,18.25z M31.61,18.1c-0.14-0.04-0.29-0.03-0.44-0.04
		c0.14-0.04,0.3-0.05,0.45-0.01c0.07,0.02,0.15,0.05,0.21,0.1c0.06,0.05,0.11,0.11,0.15,0.17C31.87,18.22,31.75,18.14,31.61,18.1z"
		/>
	<path class="st0" d="M34.56,18.53c-0.01,0.14-0.09,0.34-0.73,0.24c0.38-0.14,0.38-0.57-0.16-0.62c0.24-0.15,0.28-0.29,0.1-0.3
		c-0.27-0.03-1.11,0.07-1.17,0.26c-0.06,0.2,0.1,0.72,1,0.79C34.49,18.97,34.64,18.84,34.56,18.53z M32.89,18.48
		c-0.2-0.22-0.09-0.32,0.07-0.4c0,0,0,0.09,0.02,0.14c0.02,0.05,0.11,0.09,0.11,0.09S32.92,18.36,32.89,18.48z M33.15,18.63
		c-0.03-0.01-0.07-0.03-0.09-0.07c-0.02-0.04,0-0.09,0.03-0.12c0.03-0.03,0.06-0.04,0.1-0.04c-0.03,0.02-0.05,0.05-0.07,0.07
		c-0.02,0.02-0.02,0.05-0.01,0.07c0.01,0.02,0.03,0.04,0.06,0.06c0.03,0.02,0.06,0.03,0.09,0.04
		C33.22,18.64,33.18,18.64,33.15,18.63z M33.59,18.58c-0.18,0.01-0.33-0.03-0.34-0.09c0-0.06,0.14-0.13,0.32-0.14
		c0.18-0.01,0.33,0.03,0.34,0.09C33.92,18.5,33.78,18.56,33.59,18.58z"/>
	<path class="st0" d="M34.4,18.38c-0.02-0.09-0.07-0.15-0.13-0.21c-0.06-0.05-0.12-0.1-0.2-0.13c0.02,0.09,0.07,0.15,0.13,0.21
		C34.25,18.31,34.31,18.36,34.4,18.38z"/>
	<path class="st0" d="M31.41,20.2l0.07,0.01c0.02,0,0.05,0,0.07,0.01c0.38,0.03,0.75,0.01,1.11-0.05c0.36-0.06,0.72-0.16,1.05-0.31
		c-0.36,0.07-0.72,0.12-1.07,0.15c-0.36,0.03-0.72,0.03-1.07,0c-0.17-0.02-0.34-0.06-0.51-0.11c-0.17-0.05-0.33-0.11-0.48-0.19
		c-0.15-0.09-0.28-0.2-0.36-0.35c-0.09-0.15-0.11-0.33-0.11-0.51c-0.05,0.17-0.06,0.37,0.01,0.56c0.07,0.18,0.21,0.33,0.37,0.44
		c0.16,0.11,0.33,0.19,0.51,0.25c0.09,0.03,0.18,0.05,0.27,0.07C31.32,20.18,31.37,20.19,31.41,20.2z"/>
	<path class="st0" d="M21.15,36.9c0.02-0.04,0.01-0.11-0.01-0.2c-0.03-0.09-0.07-0.2-0.14-0.33c-0.06-0.13-0.15-0.26-0.25-0.41
		c-0.13-0.19-0.26-0.32-0.38-0.4c-0.12-0.08-0.19-0.1-0.22-0.06c-0.04,0.06-0.04,0.14,0,0.25c0.04,0.11,0.1,0.23,0.19,0.37
		c0.09,0.13,0.19,0.27,0.31,0.4c0.12,0.14,0.24,0.26,0.37,0.36C21.09,36.93,21.14,36.94,21.15,36.9z"/>
	<path class="st0" d="M17.56,39.8c-0.06-0.19-0.12-0.37-0.15-0.56c-0.04-0.22-0.06-0.43-0.05-0.6c0-0.25,0.04-0.48,0.11-0.69
		c0.02-0.06,0.05-0.11,0.08-0.16l-0.11-10.96c-0.01-0.01-0.03-0.02-0.04-0.03c-0.15-0.15-0.29-0.32-0.4-0.51v14.69
		c0.19,0.27,0.39,0.53,0.59,0.78L17.56,39.8z"/>
	<path class="st0" d="M19.99,39.42c0.04,0.02,0.07,0.04,0.11,0.06c0.03,0.02,0.07,0.04,0.11,0.06c-0.04-0.1-0.09-0.22-0.16-0.35
		C20.02,39.26,20,39.33,19.99,39.42z"/>
	<path class="st0" d="M19.53,38.45c-0.07-0.07-0.16-0.14-0.25-0.2c-0.09-0.06-0.19-0.12-0.3-0.16c-0.1-0.04-0.2-0.07-0.3-0.08
		c-0.1-0.01-0.19-0.01-0.27,0.02c0.1,0.23,0.26,0.43,0.47,0.62c0.21,0.18,0.44,0.36,0.69,0.52c0.03-0.15,0.09-0.31,0.17-0.47
		c-0.04-0.06-0.08-0.1-0.11-0.15C19.58,38.51,19.55,38.47,19.53,38.45z"/>
	<path class="st0" d="M21.18,34.59c0.02-0.04,0.01-0.11-0.01-0.2c-0.03-0.09-0.07-0.2-0.14-0.33c-0.06-0.13-0.15-0.26-0.25-0.41
		c-0.13-0.19-0.26-0.32-0.38-0.4c-0.12-0.08-0.19-0.1-0.22-0.06c-0.04,0.06-0.04,0.14,0,0.25c0.04,0.11,0.1,0.23,0.19,0.37
		c0.09,0.13,0.19,0.27,0.31,0.4c0.12,0.14,0.24,0.26,0.37,0.36C21.12,34.62,21.16,34.63,21.18,34.59z"/>
	<path class="st0" d="M27.65,21.6c0,0.12-0.22,0.01-0.39-0.09c-0.05-0.03-0.11-0.06-0.16-0.1c0,0-0.01-0.01-0.01-0.01c0,0,0,0,0,0
		c-0.89-0.49-2.31-0.81-3.96-0.81c-1.13,0-2.18,0.15-3.06,0.43c-0.05,0.02-0.09,0.03-0.14,0.05c-0.03,0-0.06,0.01-0.08,0.02
		c-0.03,0.01-0.06,0.01-0.08,0.02c0,0-0.01,0-0.01,0c-0.02,0.01-0.04,0.02-0.05,0.04c-0.01,0.01-0.02,0.01-0.03,0.02
		c-0.19,0.08-0.37,0.16-0.52,0.24l-0.02,0l-0.02,0.02c-0.01,0-0.01,0.01-0.01,0.01c-0.12,0.07-0.47,0.3-0.47,0.14
		c0-0.19,0.27-0.46,1-0.96c-1.04,0.41-1.7,0.99-1.7,1.64c0,0.43,0.29,0.85,0.78,1.22c0.47,0.4,1.28,0.72,2.29,0.92
		c0.07,0.01,0.15,0.03,0.22,0.04c0.07,0.01,0.14,0.03,0.22,0.04l0.13,0.02c0.07,0.01,0.13,0.02,0.2,0.02
		c0.14,0.02,0.29,0.03,0.43,0.04c0.04,0,0.08,0.01,0.12,0.01c0.15,0.01,0.31,0.02,0.46,0.02c0.06,0,0.13,0,0.19,0l0.01,0
		c0.05,0,0.09,0,0.14,0c0.05,0,0.09,0,0.14,0l0.01,0c0.06,0,0.13,0,0.19,0c0.15,0,0.31-0.01,0.46-0.02c0.04,0,0.08-0.01,0.12-0.01
		c0.14-0.01,0.28-0.02,0.43-0.04c0.07-0.01,0.13-0.02,0.2-0.02l0.13-0.02c1.1-0.16,1.98-0.47,2.54-0.86
		c0.62-0.39,0.99-0.86,0.99-1.35c0-0.65-0.65-1.24-1.7-1.64C27.37,21.14,27.65,21.41,27.65,21.6z M22.22,24.37
		c-0.14-0.01-0.29-0.02-0.43-0.04c-0.07-0.01-0.13-0.02-0.2-0.02l-0.13-0.02c-1.82-0.27-3.04-0.94-3.04-1.67
		c0-0.42,0.4-0.75,0.75-0.96l0.04-0.03c0.06-0.04,0.14-0.07,0.21-0.11c-0.01,0.05-0.01,0.1-0.01,0.16c0.04,0.59,0.78,1.37,1.1,1.47
		c0.26,0.08,0.59,0.07,0.97,0.04c0.23-0.01,0.48-0.03,0.76-0.02c0.3,0.01,0.58,0.06,0.85,0.1c0.29,0.05,0.59,0.1,0.91,0.1
		c0.09,0,0.18,0,0.28-0.01c0.25-0.03,0.38-0.14,0.46-0.25c0.18,0.03,0.4,0.04,0.65,0.01c1.12-0.13,1.63-0.9,1.05-1.42
		c-0.46-0.41-1.93-0.64-2.79-0.59c-0.1-0.06-0.2-0.1-0.28-0.12c-0.22-0.05-0.74,0.01-1.25,0.08c-0.3,0.04-0.58,0.07-0.73,0.07
		c-0.15,0-0.33-0.01-0.51-0.03c-0.08-0.01-0.16-0.01-0.24-0.02c0.74-0.18,1.6-0.28,2.47-0.28c2.55,0,4.7,0.82,4.7,1.79
		c0,0.73-1.22,1.41-3.04,1.67l-0.13,0.02c-0.06,0.01-0.13,0.02-0.19,0.02c-0.15,0.02-0.29,0.03-0.43,0.04
		c-0.04,0-0.08,0.01-0.12,0.01c-0.15,0.01-0.3,0.02-0.45,0.02c-0.06,0-0.12,0-0.19,0l-0.01,0c-0.04,0-0.09,0-0.13,0
		c-0.04,0-0.09,0-0.13,0l-0.01,0c-0.06,0-0.12,0-0.19,0c-0.16,0-0.31-0.01-0.46-0.02C22.3,24.37,22.26,24.37,22.22,24.37z
		 M20.88,21.34c0.19,0.02,0.37,0.03,0.53,0.03c0.16,0,0.45-0.04,0.76-0.08c0.44-0.06,0.99-0.13,1.16-0.08
		c0.12,0.03,0.3,0.13,0.51,0.29l0,0c0.18,0.14,0.34,0.3,0.47,0.5c0.31,0.46,0.3,0.65,0.26,0.73c-0.03,0.07-0.11,0.11-0.25,0.12
		c-0.39,0.04-0.75-0.02-1.13-0.09c-0.28-0.05-0.57-0.1-0.88-0.11c-0.05,0-0.1,0-0.15,0c-0.22,0-0.44,0.01-0.63,0.02
		c-0.36,0.02-0.67,0.04-0.89-0.03c-0.26-0.08-0.91-0.87-0.87-1.22c0-0.03,0.01-0.1,0.15-0.11C20.24,21.28,20.58,21.31,20.88,21.34z
		 M21.49,22.99c-0.16,0-0.31,0.01-0.47,0c-0.16-0.01-0.32-0.03-0.46-0.08c0.15,0.03,0.31,0.04,0.46,0.03
		c0.15-0.01,0.31-0.02,0.46-0.03c0.31-0.03,0.62-0.04,0.94-0.02c0.32,0.02,0.62,0.09,0.93,0.15c0.3,0.06,0.61,0.1,0.92,0.09
		c-0.31,0.05-0.63,0.04-0.94-0.01c-0.31-0.04-0.62-0.1-0.92-0.12C22.12,22.96,21.8,22.98,21.49,22.99z"/>
	<path class="st0" d="M21.7,22.11c-0.02-0.08-0.09-0.35-0.39-0.53c-0.16-0.1-0.61-0.12-0.73-0.09c-0.06,0.02-0.11,0.05-0.13,0.11
		c-0.07,0.14-0.03,0.4,0.2,0.64c0.17,0.18,0.44,0.24,0.64,0.24c0.02,0,0.03,0,0.05,0c0.16-0.01,0.29-0.05,0.35-0.13
		C21.71,22.3,21.72,22.21,21.7,22.11z M21.42,21.91c-0.11-0.1-0.23-0.19-0.37-0.22c-0.14-0.04-0.29-0.03-0.44-0.04
		c0.15-0.04,0.3-0.05,0.45-0.01c0.07,0.02,0.15,0.05,0.21,0.1C21.33,21.79,21.38,21.85,21.42,21.91z M20.62,21.84
		c0.01-0.02,0.03-0.04,0.06-0.05c0.02-0.01,0.06-0.01,0.1-0.01c0.11,0,0.28,0.02,0.35,0.06c0.18,0.11,0.23,0.27,0.24,0.32
		c0.01,0.06,0,0.1-0.01,0.12c-0.03,0.03-0.09,0.06-0.18,0.06c-0.14,0.01-0.32-0.04-0.43-0.15C20.6,22.04,20.58,21.91,20.62,21.84z"
		/>
	<path class="st0" d="M24.03,22.12c-0.01,0.14-0.09,0.35-0.74,0.25c0.39-0.14,0.38-0.57-0.16-0.62c0.24-0.15,0.28-0.29,0.1-0.31
		c-0.27-0.03-1.12,0.07-1.18,0.27c-0.06,0.2,0.1,0.73,1.01,0.79C23.96,22.56,24.11,22.44,24.03,22.12z M23.37,22.03
		c0,0.06-0.14,0.13-0.32,0.14c-0.18,0.01-0.33-0.03-0.34-0.09c-0.01-0.06,0.14-0.13,0.32-0.14C23.22,21.92,23.37,21.96,23.37,22.03z
		 M22.34,22.07c-0.2-0.22-0.1-0.33,0.07-0.4c0,0,0,0.09,0.02,0.14c0.02,0.05,0.12,0.09,0.12,0.09S22.38,21.95,22.34,22.07z
		 M22.62,22.18c0.03,0.02,0.06,0.03,0.09,0.04c-0.03,0.01-0.07,0.01-0.11,0c-0.03-0.01-0.07-0.03-0.09-0.07
		c-0.02-0.04,0-0.1,0.03-0.12c0.03-0.03,0.06-0.04,0.1-0.04c-0.03,0.02-0.05,0.05-0.07,0.07c-0.02,0.02-0.02,0.05-0.01,0.07
		C22.57,22.15,22.59,22.17,22.62,22.18z"/>
	<path class="st0" d="M23.86,21.97c-0.02-0.09-0.07-0.15-0.13-0.21c-0.06-0.06-0.12-0.1-0.2-0.13c0.02,0.09,0.07,0.15,0.13,0.21
		C23.71,21.9,23.78,21.95,23.86,21.97z"/>
	<path class="st0" d="M22.11,23.78c0.37-0.06,0.73-0.16,1.06-0.31c-0.36,0.07-0.72,0.12-1.08,0.15c-0.36,0.03-0.72,0.03-1.08,0
		c-0.17-0.02-0.35-0.06-0.52-0.11c-0.17-0.05-0.33-0.11-0.48-0.2c-0.15-0.09-0.28-0.2-0.37-0.35c-0.09-0.15-0.11-0.33-0.11-0.52
		c-0.05,0.18-0.06,0.38,0.01,0.56c0.07,0.18,0.21,0.34,0.37,0.45c0.16,0.11,0.34,0.19,0.52,0.25c0.09,0.03,0.18,0.05,0.27,0.07
		c0.05,0.01,0.09,0.02,0.14,0.03l0.07,0.01c0.02,0,0.05,0,0.07,0.01C21.37,23.86,21.75,23.84,22.11,23.78z"/>
	<path class="st0" d="M42.03,34.59c0.02-0.04,0.01-0.11-0.01-0.2c-0.03-0.09-0.07-0.2-0.14-0.33c-0.06-0.13-0.15-0.26-0.25-0.41
		c-0.13-0.19-0.26-0.32-0.38-0.4c-0.12-0.08-0.19-0.1-0.22-0.06c-0.04,0.06-0.04,0.14,0,0.25c0.04,0.11,0.1,0.23,0.19,0.37
		c0.09,0.13,0.19,0.27,0.31,0.4c0.12,0.14,0.24,0.26,0.37,0.36C41.97,34.63,42.01,34.63,42.03,34.59z"/>
	<path class="st0" d="M41.87,36.89c0.07,0.05,0.11,0.05,0.13,0.01c0.02-0.04,0.01-0.11-0.01-0.2c-0.03-0.09-0.07-0.2-0.13-0.33
		c-0.06-0.13-0.15-0.26-0.25-0.41c-0.13-0.19-0.26-0.32-0.38-0.4c-0.12-0.08-0.19-0.1-0.22-0.06c-0.04,0.06-0.04,0.14,0,0.25
		c0.04,0.11,0.1,0.23,0.19,0.37c0.09,0.13,0.19,0.27,0.31,0.4C41.63,36.66,41.75,36.78,41.87,36.89z"/>
	<path class="st0" d="M53.38,29.25c0-11.08-9.01-20.09-20.09-20.09c-11.08,0-20.09,9.01-20.09,20.09c0,4.15,1.26,8.01,3.43,11.21
		V25.77c0-0.18,0.04-0.52,0.17-0.89c0.05-0.18,0.11-0.36,0.2-0.53c0.1-0.19,0.22-0.36,0.36-0.52c0.14-0.16,0.29-0.3,0.45-0.43
		c-0.24,0.34-0.46,0.68-0.6,1.05c-0.07,0.18-0.12,0.37-0.14,0.56c-0.01,0.09-0.01,0.19-0.01,0.28c0,0.09,0.01,0.18,0.03,0.27
		c0.08,0.36,0.29,0.68,0.56,0.96c0.27,0.28,0.59,0.5,0.94,0.69c0.35,0.19,0.72,0.35,1.1,0.48c0.38,0.13,0.77,0.23,1.17,0.31
		c0.79,0.16,1.61,0.24,2.43,0.26c-0.82,0.1-1.65,0.1-2.47-0.01c-0.41-0.06-0.82-0.14-1.22-0.26c-0.4-0.12-0.79-0.27-1.17-0.47
		c-0.24-0.13-0.46-0.28-0.68-0.44l-0.11,10.52c0.04-0.06,0.08-0.12,0.13-0.16c0.13-0.12,0.3-0.19,0.49-0.21
		c0.19-0.02,0.41,0.04,0.65,0.16c0.2,0.1,0.39,0.24,0.57,0.41c0.17,0.17,0.33,0.36,0.46,0.58c0.13-0.14,0.29-0.25,0.46-0.33
		c0.17-0.08,0.34-0.1,0.51-0.08c0.18,0.03,0.35,0.1,0.52,0.19c0.17,0.09,0.33,0.21,0.48,0.35c0.15,0.14,0.29,0.29,0.43,0.46
		c0.13,0.17,0.25,0.35,0.35,0.54c0.14,0.27,0.26,0.56,0.36,0.88c0.09,0.32,0.16,0.65,0.2,0.97c0.04,0.33,0.04,0.65,0.02,0.96
		c-0.03,0.31-0.09,0.59-0.19,0.84c-0.1,0.25-0.24,0.46-0.42,0.63c-0.18,0.17-0.41,0.27-0.67,0.3c-0.22,0.03-0.43,0-0.65-0.08
		c-0.22-0.08-0.41-0.21-0.58-0.38c-0.07-0.07-0.13-0.16-0.2-0.26c-0.07-0.1-0.12-0.2-0.17-0.31c-0.05-0.11-0.07-0.21-0.08-0.32
		c-0.01-0.1,0-0.2,0.04-0.28c0.04-0.07,0.08-0.12,0.14-0.16c0.06-0.04,0.13-0.05,0.2-0.03c0.07,0.02,0.12,0.04,0.14,0.06
		c0.03,0.02,0.04,0.04,0.05,0.07c0.01,0.03,0.01,0.06,0,0.1c-0.01,0.04-0.01,0.08-0.02,0.13c-0.01,0.06,0,0.14,0.03,0.25
		c0.03,0.11,0.1,0.21,0.19,0.33c0.09,0.11,0.21,0.2,0.36,0.29c0.15,0.09,0.31,0.14,0.48,0.16c0.17,0.01,0.33-0.02,0.49-0.1
		c0.16-0.08,0.28-0.23,0.36-0.45c0.11-0.27,0.15-0.59,0.15-0.95c-0.01-0.36-0.06-0.72-0.16-1.08c-0.1-0.36-0.24-0.71-0.42-1.04
		c-0.18-0.33-0.39-0.62-0.63-0.85c-0.12-0.11-0.24-0.2-0.37-0.28c-0.13-0.08-0.27-0.13-0.4-0.16c-0.14-0.03-0.27-0.04-0.39-0.01
		c-0.12,0.02-0.23,0.07-0.32,0.15c0.02,0.05,0.04,0.1,0.06,0.15c0.02,0.05,0.03,0.1,0.05,0.15c0.02,0.07,0.05,0.14,0.07,0.22
		c0.02,0.08,0.04,0.16,0.06,0.25l0.34,0.22c0.15,0.1,0.32,0.23,0.53,0.37c0.21,0.15,0.41,0.31,0.61,0.5
		c0.2,0.19,0.36,0.39,0.51,0.61c0.14,0.22,0.21,0.45,0.22,0.68c0,0.06-0.01,0.12-0.03,0.16c-0.02,0.05-0.06,0.06-0.11,0.05
		c-0.03-0.01-0.06-0.02-0.08-0.04c-0.03-0.02-0.06-0.05-0.09-0.09c-0.04-0.04-0.08-0.09-0.14-0.16c-0.06-0.06-0.13-0.15-0.22-0.25
		c-0.22-0.23-0.46-0.45-0.71-0.66c-0.25-0.2-0.54-0.43-0.88-0.69c-0.01,0.03-0.05,0.06-0.09,0.08c-0.04,0.02-0.08,0.02-0.12,0.01
		c-0.06-0.01-0.12-0.04-0.17-0.08c-0.06-0.04-0.11-0.1-0.16-0.16c-0.05-0.06-0.1-0.13-0.13-0.2c-0.04-0.07-0.07-0.13-0.09-0.19
		c-0.16-0.11-0.31-0.23-0.46-0.36c-0.15-0.13-0.29-0.26-0.42-0.41c-0.13-0.14-0.24-0.29-0.34-0.44c-0.1-0.15-0.17-0.31-0.22-0.48
		c-0.16,0.14-0.27,0.34-0.32,0.6c-0.06,0.26-0.06,0.53-0.02,0.82c0.05,0.29,0.14,0.57,0.28,0.85c0.14,0.27,0.33,0.49,0.57,0.66
		c0.14,0.1,0.27,0.12,0.39,0.08c0.12-0.04,0.19-0.14,0.21-0.29c0.02-0.14,0-0.27-0.06-0.4c-0.06-0.13-0.14-0.23-0.24-0.31
		c0.02-0.09,0.04-0.15,0.08-0.18c0.04-0.04,0.08-0.06,0.12-0.07c0.04-0.01,0.09,0,0.14,0.02c0.05,0.02,0.09,0.04,0.12,0.06
		c0.06,0.04,0.12,0.1,0.18,0.17c0.06,0.08,0.11,0.17,0.15,0.28c0.04,0.11,0.06,0.22,0.07,0.34c0.01,0.12,0,0.24-0.03,0.36
		c-0.03,0.12-0.09,0.22-0.17,0.31c-0.08,0.09-0.19,0.15-0.31,0.17c-0.19,0.04-0.37,0.01-0.54-0.07c-0.17-0.08-0.33-0.21-0.48-0.37
		c-0.15-0.16-0.28-0.35-0.4-0.57c-0.11-0.21-0.21-0.42-0.29-0.64l-0.02,1.8c1.85,2.32,4.21,4.22,6.9,5.54
		c0.24-0.18,0.4-0.45,0.4-0.78V28.47c0,0,0.27,0.01,1.14-0.22c-1.46,0.16-2.72-0.45-2.72-1.01c0-1.23,0.8-1.39,1.88-1.83
		c-0.63,0.12-1.27,0.18-1.91,0.18c-0.88-0.01-1.76-0.09-2.61-0.32c-0.42-0.11-0.84-0.25-1.24-0.44c-0.4-0.19-0.78-0.41-1.1-0.7
		c0.36,0.24,0.75,0.43,1.16,0.57c0.4,0.15,0.82,0.26,1.24,0.34c0.42,0.08,0.84,0.15,1.27,0.18c0.43,0.04,0.86,0.05,1.28,0.03
		c0.21,0,0.43-0.01,0.64-0.02c0.21-0.02,0.43-0.03,0.64-0.06c0.43-0.04,0.85-0.11,1.27-0.21c0.42-0.09,0.83-0.22,1.22-0.39
		c0.4-0.17,0.76-0.39,1.11-0.65c-0.12,0.19-0.28,0.35-0.46,0.48c-0.09,0.07-0.18,0.12-0.28,0.18c0.26-0.05,0.47-0.06,0.63-0.04
		c-0.35,0.39-0.56,0.83-0.56,1.3c0,0.25,0.06,0.5,0.17,0.73c-0.79,0.68-1.29,1.48-1.29,2.35v18.4c-0.14,0.05-0.29,0.1-0.43,0.14
		c-0.19,0.05-0.39,0.11-0.58,0.15c-0.05,0.01-0.1,0.02-0.15,0.03c0.15,0.07,0.3,0.13,0.45,0.19c0.24-0.06,0.47-0.11,0.71-0.18
		c0,0,0,0,0.01,0v0.13c-0.16,0.06-0.32,0.09-0.49,0.14c0.15,0.06,0.29,0.12,0.44,0.17l0.05-0.01v0.03c0.16,0.06,0.32,0.11,0.49,0.17
		V29.4c0-0.19,0.04-0.54,0.17-0.93c0.05-0.19,0.11-0.38,0.21-0.55c0.11-0.2,0.23-0.38,0.38-0.54c0.14-0.16,0.3-0.31,0.47-0.45
		c-0.25,0.35-0.48,0.71-0.62,1.09c-0.07,0.19-0.12,0.39-0.14,0.58c-0.01,0.1-0.01,0.2-0.01,0.3c0,0.1,0.01,0.19,0.03,0.28
		c0.08,0.37,0.3,0.71,0.58,1c0.28,0.29,0.62,0.52,0.98,0.72c0.36,0.2,0.75,0.36,1.14,0.5c0.4,0.14,0.8,0.24,1.22,0.33
		c0.83,0.17,1.68,0.25,2.53,0.27c-0.85,0.1-1.72,0.1-2.57-0.01c-0.43-0.06-0.85-0.15-1.27-0.27c-0.42-0.13-0.83-0.28-1.22-0.49
		c-0.25-0.13-0.48-0.29-0.7-0.46l-0.11,10.96c0.04-0.06,0.09-0.12,0.14-0.17c0.14-0.13,0.31-0.2,0.51-0.22
		c0.2-0.02,0.42,0.04,0.68,0.17c0.21,0.11,0.41,0.25,0.59,0.43c0.18,0.18,0.34,0.38,0.48,0.6c0.14-0.15,0.3-0.26,0.47-0.34
		c0.18-0.08,0.35-0.11,0.53-0.08c0.18,0.04,0.36,0.1,0.54,0.2c0.18,0.1,0.34,0.22,0.5,0.36c0.16,0.14,0.31,0.3,0.44,0.48
		c0.14,0.18,0.26,0.36,0.36,0.56c0.15,0.28,0.27,0.58,0.37,0.92c0.1,0.33,0.17,0.67,0.21,1.01c0.04,0.34,0.05,0.68,0.02,1
		c-0.03,0.32-0.09,0.62-0.2,0.88c-0.11,0.26-0.25,0.48-0.44,0.65c-0.19,0.17-0.42,0.28-0.7,0.32c-0.22,0.03-0.45,0-0.68-0.08
		c-0.23-0.08-0.43-0.21-0.6-0.39c-0.07-0.07-0.14-0.16-0.21-0.27c-0.07-0.1-0.13-0.21-0.18-0.32c-0.05-0.11-0.08-0.22-0.09-0.33
		c-0.01-0.11,0-0.21,0.05-0.3c0.04-0.07,0.09-0.13,0.15-0.16c0.06-0.04,0.13-0.05,0.21-0.03c0.07,0.02,0.12,0.04,0.15,0.06
		c0.03,0.02,0.05,0.05,0.05,0.08c0.01,0.03,0.01,0.07,0,0.11c-0.01,0.04-0.01,0.08-0.02,0.14c-0.01,0.06,0,0.15,0.04,0.26
		c0.03,0.11,0.1,0.22,0.2,0.34c0.1,0.11,0.22,0.21,0.37,0.3c0.15,0.09,0.32,0.15,0.5,0.16c0.17,0.01,0.34-0.02,0.51-0.11
		c0.17-0.09,0.29-0.24,0.38-0.46c0.11-0.29,0.16-0.61,0.15-0.99c-0.01-0.37-0.06-0.75-0.17-1.12c-0.1-0.38-0.25-0.74-0.44-1.09
		c-0.19-0.35-0.41-0.64-0.65-0.88c-0.12-0.11-0.25-0.21-0.39-0.29c-0.14-0.08-0.28-0.14-0.42-0.17c-0.14-0.03-0.28-0.04-0.4-0.02
		c-0.13,0.02-0.24,0.08-0.33,0.16c0.02,0.05,0.05,0.11,0.06,0.16c0.02,0.05,0.03,0.1,0.05,0.15c0.02,0.07,0.05,0.15,0.07,0.23
		c0.02,0.08,0.04,0.17,0.06,0.26l0.36,0.23c0.15,0.11,0.34,0.24,0.56,0.39c0.22,0.15,0.43,0.32,0.64,0.52
		c0.2,0.19,0.38,0.4,0.53,0.63c0.15,0.23,0.22,0.47,0.22,0.71c0,0.06-0.01,0.12-0.03,0.17c-0.02,0.05-0.06,0.07-0.12,0.05
		c-0.03-0.01-0.06-0.02-0.09-0.04c-0.03-0.02-0.06-0.05-0.1-0.09c-0.04-0.04-0.09-0.1-0.15-0.17c-0.06-0.07-0.14-0.15-0.23-0.26
		c-0.23-0.24-0.48-0.47-0.74-0.68c-0.26-0.21-0.56-0.45-0.91-0.72c-0.02,0.04-0.05,0.06-0.09,0.08c-0.05,0.02-0.09,0.02-0.12,0.01
		c-0.06-0.01-0.12-0.04-0.18-0.09c-0.06-0.05-0.11-0.1-0.17-0.17c-0.05-0.07-0.1-0.13-0.14-0.21c-0.04-0.07-0.07-0.14-0.1-0.2
		c-0.16-0.12-0.32-0.24-0.48-0.38c-0.16-0.13-0.31-0.27-0.44-0.42c-0.14-0.15-0.25-0.3-0.36-0.46c-0.1-0.16-0.18-0.32-0.23-0.5
		c-0.16,0.15-0.28,0.35-0.34,0.62c-0.06,0.27-0.06,0.55-0.02,0.85c0.05,0.3,0.14,0.6,0.29,0.88c0.15,0.29,0.34,0.51,0.59,0.69
		c0.15,0.1,0.28,0.13,0.4,0.09c0.12-0.04,0.2-0.14,0.22-0.3c0.02-0.14,0-0.28-0.06-0.42c-0.06-0.13-0.14-0.24-0.25-0.32
		c0.02-0.09,0.04-0.15,0.08-0.19c0.04-0.04,0.08-0.06,0.13-0.07c0.05-0.01,0.09,0,0.14,0.02c0.05,0.02,0.09,0.04,0.12,0.06
		c0.06,0.04,0.12,0.1,0.18,0.18c0.06,0.08,0.11,0.18,0.15,0.29c0.04,0.11,0.06,0.23,0.07,0.35c0.01,0.12,0,0.25-0.03,0.37
		c-0.03,0.12-0.09,0.23-0.18,0.32c-0.08,0.09-0.19,0.15-0.33,0.18c-0.19,0.04-0.38,0.01-0.56-0.07c-0.18-0.09-0.35-0.22-0.5-0.39
		c-0.15-0.17-0.29-0.37-0.42-0.6c-0.12-0.21-0.22-0.44-0.3-0.67l-0.03,2.52l-0.03-2.69c-0.06-0.19-0.12-0.39-0.16-0.58
		c-0.05-0.23-0.06-0.44-0.06-0.63c0-0.26,0.04-0.5,0.12-0.72c0.02-0.06,0.05-0.11,0.08-0.17L27.7,30.49
		c-0.01-0.01-0.03-0.02-0.04-0.04c-0.16-0.15-0.3-0.33-0.41-0.53v18.48c1.91,0.6,3.94,0.93,6.05,0.93c0.42,0,0.83-0.02,1.24-0.04
		c-0.06-1.31-0.1-2.62-0.12-3.93c-0.02-0.7-0.02-1.41-0.03-2.11l-0.01-2.11l0.01-2.11c0.01-0.7,0.01-1.41,0.03-2.11
		c0.02-1.41,0.06-2.81,0.13-4.22c0.07,1.41,0.11,2.81,0.13,4.22c0.02,0.7,0.02,1.41,0.03,2.11l0.01,2.11l-0.01,2.11
		c-0.01,0.7-0.01,1.41-0.03,2.11c-0.02,1.31-0.06,2.62-0.12,3.93c0.31-0.02,0.61-0.04,0.92-0.08V32.2c0,0,0.29,0.01,1.18-0.23
		c-1.52,0.17-2.84-0.47-2.84-1.05c0-1.28,0.83-1.45,1.96-1.91c-0.65,0.13-1.32,0.19-1.99,0.19c-0.92-0.01-1.83-0.1-2.72-0.33
		c-0.44-0.12-0.88-0.26-1.29-0.45c-0.41-0.2-0.81-0.43-1.15-0.73c0.38,0.25,0.78,0.45,1.2,0.6c0.42,0.16,0.85,0.27,1.29,0.36
		c0.44,0.08,0.88,0.15,1.33,0.19c0.44,0.04,0.89,0.05,1.34,0.04c0.22,0,0.45-0.01,0.67-0.02c0.22-0.02,0.44-0.04,0.67-0.06
		c0.44-0.04,0.88-0.12,1.32-0.21c0.44-0.1,0.86-0.23,1.27-0.41c0.41-0.18,0.79-0.41,1.16-0.68c-0.13,0.2-0.29,0.37-0.48,0.5
		c-0.09,0.07-0.19,0.13-0.29,0.19c1.17-0.21,1.25,0.28,1.38,0.63c0.37,0.96-0.42,2.14-1.48,2.75c0.96-0.38,1.62-0.93,1.94-1.25
		l0.22-0.24c0,0,0.01-0.01,0.01-0.01v0l0.14-0.15l-0.06,13.49l-0.39-12.7c-0.29,0.19-0.57,0.38-0.83,0.53
		c-0.49,0.3-0.8,0.83-0.8,1.4v16.1c1.15-0.29,2.25-0.69,3.31-1.17c-0.02-0.01-0.05-0.01-0.07-0.02c0.03,0,0.06,0,0.09,0.01
		c1.49-0.68,2.89-1.54,4.16-2.54V28.47c0,0,0.27,0.01,1.14-0.22c-1.46,0.16-2.72-0.45-2.72-1.01c0-1.23,0.8-1.39,1.88-1.83
		c-0.63,0.12-1.27,0.18-1.91,0.18c-0.88-0.01-1.76-0.09-2.61-0.32c-0.42-0.11-0.84-0.25-1.24-0.44c-0.4-0.19-0.78-0.41-1.1-0.7
		c0.36,0.24,0.75,0.43,1.16,0.57c0.4,0.15,0.82,0.26,1.24,0.34c0.42,0.08,0.84,0.15,1.27,0.18c0.43,0.04,0.86,0.05,1.28,0.03
		c0.21,0,0.43-0.01,0.64-0.02c0.21-0.02,0.43-0.03,0.64-0.06c0.43-0.04,0.85-0.11,1.27-0.21c0.42-0.09,0.83-0.22,1.22-0.39
		c0.4-0.17,0.76-0.39,1.11-0.65c-0.12,0.19-0.28,0.35-0.46,0.48c-0.09,0.07-0.18,0.12-0.28,0.18c1.12-0.21,1.2,0.27,1.33,0.61
		c0.36,0.92-0.4,2.05-1.42,2.64c0.92-0.37,1.55-0.89,1.86-1.2l0.21-0.23c0,0,0.01-0.01,0.01-0.01v0l0.14-0.14l-0.05,12.95
		l-0.37-12.19c-0.27,0.19-0.55,0.36-0.79,0.51c-0.47,0.28-0.76,0.79-0.76,1.35v13.59C51.5,38.93,53.38,34.31,53.38,29.25z
		 M21.58,37.94c-0.14-0.07-0.28-0.17-0.43-0.3c-0.29-0.25-0.52-0.49-0.7-0.73c-0.18-0.24-0.32-0.47-0.42-0.67
		c-0.1-0.21-0.15-0.39-0.17-0.56c-0.02-0.16,0-0.29,0.04-0.38c0.04-0.07,0.1-0.12,0.17-0.15c0.08-0.03,0.16-0.03,0.26-0.01
		c0.1,0.02,0.2,0.07,0.32,0.14c0.11,0.07,0.23,0.17,0.34,0.29c0.15,0.17,0.28,0.34,0.37,0.52c0.09,0.18,0.15,0.34,0.18,0.49
		c0.03,0.15,0.03,0.28,0,0.38c-0.03,0.1-0.09,0.17-0.17,0.19c0.16,0.1,0.3,0.16,0.43,0.18c0.12,0.02,0.21-0.02,0.25-0.12
		c0.04-0.08,0.05-0.19,0.02-0.35c-0.02-0.15-0.08-0.32-0.16-0.49c-0.08-0.18-0.18-0.35-0.3-0.53c-0.12-0.18-0.26-0.34-0.41-0.47
		c-0.01-0.01-0.03-0.02-0.04-0.03c-0.29-0.25-0.52-0.49-0.7-0.73c-0.18-0.24-0.32-0.47-0.42-0.67c-0.09-0.21-0.15-0.39-0.17-0.56
		c-0.02-0.16,0-0.29,0.04-0.38c0.04-0.07,0.1-0.12,0.17-0.15c0.08-0.03,0.16-0.03,0.26,0c0.1,0.02,0.2,0.07,0.32,0.14
		c0.11,0.07,0.23,0.17,0.34,0.29c0.15,0.17,0.28,0.34,0.37,0.52c0.09,0.18,0.15,0.34,0.18,0.49c0.03,0.15,0.03,0.28,0,0.38
		c-0.03,0.1-0.09,0.17-0.18,0.19c0.16,0.1,0.3,0.16,0.43,0.18c0.12,0.02,0.21-0.02,0.25-0.12c0.04-0.08,0.05-0.19,0.02-0.35
		c-0.03-0.15-0.08-0.32-0.16-0.49c-0.08-0.17-0.18-0.35-0.3-0.53c-0.12-0.17-0.25-0.32-0.39-0.45l-0.97-0.82
		c-0.08,0.02-0.17,0.02-0.27-0.01c-0.1-0.03-0.19-0.09-0.29-0.18c-0.11-0.1-0.17-0.21-0.18-0.32c-0.02-0.11,0-0.19,0.04-0.24
		c0.04-0.05,0.11-0.07,0.19-0.05c0.09,0.02,0.18,0.1,0.27,0.24c0.04,0.06,0.07,0.09,0.1,0.1c0.03,0.01,0.05,0.01,0.07,0
		c0.02-0.01,0.04-0.04,0.05-0.06c0.02-0.03,0.03-0.06,0.04-0.08c0.05-0.1,0.12-0.17,0.21-0.18c0.09-0.02,0.18,0.01,0.27,0.09
		l0.83,0.68c0.17,0.14,0.3,0.24,0.38,0.29c0.08,0.05,0.13,0.03,0.13-0.04c0-0.11-0.08-0.26-0.23-0.43c-0.16-0.17-0.37-0.37-0.64-0.6
		l0.18-0.14c0.37,0.31,0.66,0.6,0.87,0.87c0.2,0.27,0.31,0.54,0.3,0.79c0,0.24-0.09,0.35-0.26,0.35c-0.17,0-0.41-0.13-0.73-0.39
		c-0.11-0.09-0.2-0.16-0.28-0.23c-0.08-0.07-0.15-0.13-0.21-0.19c-0.06-0.06-0.12-0.11-0.17-0.16c-0.06-0.05-0.12-0.11-0.18-0.18
		c-0.05-0.05-0.11-0.08-0.16-0.09c-0.05-0.01-0.1,0-0.14,0.04l1.02,0.85l-0.01,0.01c0.2,0.2,0.38,0.41,0.53,0.63
		c0.18,0.25,0.32,0.51,0.42,0.76c0.1,0.25,0.17,0.49,0.19,0.7c0.02,0.22-0.02,0.4-0.11,0.54c-0.05,0.08-0.12,0.13-0.21,0.16
		c-0.09,0.03-0.19,0.03-0.31,0.01c-0.05-0.01-0.1-0.03-0.14-0.04c0.05,0.06,0.1,0.12,0.14,0.18c0.18,0.25,0.32,0.51,0.42,0.75
		c0.1,0.25,0.17,0.48,0.19,0.71c0.02,0.22-0.02,0.4-0.11,0.54c-0.05,0.08-0.12,0.13-0.21,0.16c-0.09,0.03-0.19,0.03-0.31,0.01
		C21.85,38.06,21.72,38.02,21.58,37.94z M24.13,33c0.01,0.68,0.02,1.35,0.03,2.03l0.01,2.03l-0.01,2.03
		c-0.01,0.68-0.01,1.35-0.03,2.03c-0.02,1.35-0.06,2.7-0.13,4.05c-0.07-1.35-0.1-2.7-0.13-4.05c-0.02-0.68-0.02-1.35-0.03-2.03
		l-0.01-2.03l0.01-2.03c0.01-0.68,0.01-1.35,0.03-2.03c0.02-1.35,0.06-2.7,0.13-4.05C24.07,30.3,24.1,31.65,24.13,33z M43.46,32.97
		c0,0.24-0.09,0.35-0.26,0.35c-0.17,0-0.41-0.13-0.73-0.39c-0.11-0.09-0.2-0.16-0.28-0.23c-0.08-0.07-0.15-0.13-0.21-0.19
		c-0.06-0.06-0.12-0.11-0.17-0.16c-0.06-0.05-0.12-0.11-0.18-0.18c-0.05-0.05-0.11-0.08-0.16-0.09c-0.05-0.01-0.1,0-0.14,0.04
		l1.02,0.85l-0.01,0.01c0.2,0.2,0.38,0.41,0.53,0.63c0.18,0.25,0.32,0.51,0.42,0.76c0.1,0.25,0.17,0.48,0.19,0.7
		c0.02,0.22-0.02,0.4-0.11,0.54c-0.05,0.08-0.12,0.13-0.21,0.16c-0.09,0.03-0.19,0.03-0.31,0.01c-0.05-0.01-0.09-0.02-0.14-0.04
		c0.05,0.06,0.1,0.12,0.14,0.18c0.18,0.25,0.32,0.51,0.42,0.76c0.1,0.25,0.17,0.48,0.19,0.7c0.02,0.22-0.02,0.4-0.11,0.54
		c-0.05,0.08-0.12,0.13-0.21,0.16c-0.09,0.03-0.19,0.03-0.31,0.01c-0.12-0.02-0.25-0.07-0.39-0.15c-0.14-0.07-0.28-0.17-0.43-0.3
		c-0.29-0.25-0.52-0.49-0.7-0.73c-0.17-0.23-0.3-0.44-0.4-0.64v-1.1c0.01,0,0.02-0.01,0.03-0.02c0.08-0.03,0.16-0.03,0.26,0
		c0.1,0.02,0.2,0.07,0.32,0.14c0.11,0.07,0.23,0.17,0.34,0.29c0.15,0.17,0.28,0.34,0.37,0.52c0.09,0.18,0.15,0.34,0.18,0.49
		c0.03,0.15,0.03,0.28,0,0.38c-0.03,0.1-0.09,0.17-0.17,0.19c0.16,0.1,0.3,0.16,0.43,0.18c0.12,0.02,0.21-0.02,0.25-0.12
		c0.04-0.08,0.05-0.19,0.02-0.35c-0.02-0.15-0.08-0.32-0.16-0.49c-0.08-0.18-0.18-0.35-0.3-0.53c-0.12-0.18-0.26-0.34-0.41-0.48
		c-0.01-0.01-0.03-0.02-0.04-0.03c-0.29-0.25-0.52-0.49-0.7-0.73c-0.18-0.24-0.32-0.47-0.42-0.67c0-0.01-0.01-0.02-0.01-0.03v-1.02
		c0.02-0.01,0.04-0.03,0.06-0.03c0.08-0.03,0.16-0.03,0.26-0.01c0.1,0.02,0.2,0.07,0.32,0.14c0.11,0.07,0.23,0.17,0.34,0.29
		c0.15,0.17,0.28,0.34,0.37,0.52c0.09,0.18,0.15,0.34,0.18,0.49c0.03,0.15,0.03,0.28,0,0.38c-0.03,0.1-0.09,0.17-0.17,0.19
		c0.16,0.1,0.3,0.16,0.43,0.18c0.12,0.02,0.21-0.02,0.25-0.12c0.04-0.08,0.05-0.2,0.02-0.35c-0.02-0.15-0.08-0.32-0.16-0.49
		c-0.08-0.17-0.18-0.35-0.3-0.53c-0.12-0.17-0.25-0.32-0.39-0.46l-0.97-0.82c-0.08,0.02-0.16,0.02-0.24,0v-0.57
		c0,0,0.01,0.01,0.01,0.01c0.04,0.06,0.07,0.09,0.1,0.1c0.03,0.01,0.05,0.01,0.07,0c0.02-0.01,0.04-0.04,0.05-0.06
		c0.01-0.03,0.03-0.06,0.04-0.08c0.05-0.1,0.12-0.16,0.21-0.18c0.09-0.02,0.18,0.01,0.27,0.09l0.83,0.68
		c0.17,0.14,0.3,0.24,0.38,0.29c0.09,0.05,0.13,0.03,0.13-0.04c0-0.11-0.08-0.26-0.23-0.43c-0.16-0.17-0.37-0.37-0.64-0.6l0.18-0.14
		c0.37,0.31,0.66,0.6,0.87,0.87C43.36,32.45,43.46,32.72,43.46,32.97z M38.5,22.36c0-1.4,2.46-2.54,5.48-2.54
		c3.02,0,5.48,1.14,5.48,2.54S47,24.9,43.98,24.9C40.96,24.9,38.5,23.76,38.5,22.36z M27.93,25.84c0-1.46,2.56-2.64,5.7-2.64
		c3.15,0,5.7,1.19,5.7,2.64c0,1.46-2.56,2.64-5.7,2.64C30.49,28.49,27.93,27.3,27.93,25.84z M23.13,24.9
		c-3.02,0-5.48-1.14-5.48-2.54s2.46-2.54,5.48-2.54c3.02,0,5.48,1.14,5.48,2.54S26.15,24.9,23.13,24.9z M39.1,18.77
		c0,1.39-2.43,2.52-5.43,2.52s-5.43-1.13-5.43-2.52c0-1.39,2.43-2.52,5.43-2.52S39.1,17.38,39.1,18.77z M28.4,19.8
		c-0.19,0.26-0.35,0.53-0.48,0.81c-0.06-0.04-0.11-0.08-0.18-0.12c0.07-0.09,0.13-0.19,0.21-0.27C28.08,20.07,28.24,19.93,28.4,19.8
		z M38.36,23.85c-0.04-0.02-0.07-0.04-0.11-0.06c0.13-0.14,0.26-0.27,0.41-0.38C38.55,23.55,38.45,23.7,38.36,23.85z M37.76,23.55
		c-0.99-0.45-2.29-0.73-3.73-0.78c0.3-0.51,0.91-0.68,1.67-0.99c-0.62,0.12-1.26,0.18-1.89,0.18c-0.87-0.01-1.74-0.09-2.59-0.31
		c-0.42-0.11-0.83-0.25-1.23-0.43c-0.39-0.19-0.77-0.41-1.09-0.7c0.36,0.24,0.74,0.43,1.15,0.57c0.4,0.15,0.81,0.26,1.23,0.34
		c0.42,0.08,0.84,0.15,1.26,0.18c0.42,0.03,0.85,0.05,1.27,0.03c0.21,0,0.42-0.01,0.64-0.02c0.21-0.02,0.42-0.03,0.63-0.06
		c0.42-0.04,0.84-0.11,1.26-0.2c0.41-0.09,0.82-0.22,1.21-0.39c0.39-0.17,0.76-0.39,1.1-0.65c-0.12,0.19-0.28,0.35-0.46,0.48
		c-0.09,0.07-0.18,0.12-0.27,0.18c0.39-0.07,0.65-0.06,0.83,0c-0.43,0.41-0.67,0.89-0.67,1.39c0,0.24,0.06,0.48,0.17,0.7
		C38.07,23.22,37.91,23.38,37.76,23.55z M50.95,35.66L50.95,35.66l0.05,0.02L50.95,35.66z M50.95,33.98v-0.04l0.54,0.17L50.95,33.98
		z M50.95,32.38v-0.06l0.9,0.19L50.95,32.38z M50.95,30.83v-0.08l1.11,0.14L50.95,30.83z M50.95,29.29v-0.08l1.18,0.04L50.95,29.29z
		 M50.95,27.75v-0.08l1.11-0.06L50.95,27.75z M50.95,26.18v-0.06l0.9-0.13L50.95,26.18z M50.82,24.6c-0.01-0.02-0.01-0.03-0.01-0.05
		l0.69-0.16L50.82,24.6z M49.93,23.26c-0.02-0.02-0.05-0.04-0.07-0.06l1.14-0.37L49.93,23.26z M49.7,21.65
		c-0.01-0.02-0.02-0.03-0.02-0.05l0.68-0.29L49.7,21.65z M48.59,20.5c-0.03-0.02-0.06-0.04-0.09-0.05l1.1-0.58L48.59,20.5z
		 M46.98,19.81c-0.07-0.02-0.14-0.04-0.21-0.06l1.96-1.26L46.98,19.81z M47.72,17.19l-2.52,2.28c-0.13-0.01-0.26-0.02-0.4-0.03
		L47.72,17.19z M43.43,19.42c-0.2,0.01-0.4,0.02-0.6,0.04l3.78-3.48L43.43,19.42z M41.72,19.62c-0.31,0.06-0.59,0.14-0.87,0.22
		l4.54-4.97L41.72,19.62z M40.09,20.13c-0.03,0.01-0.05,0.02-0.08,0.04c-0.12-0.15-0.24-0.31-0.39-0.45l4.48-5.84L40.09,20.13z
		 M39.43,19.26c0.05-0.16,0.09-0.32,0.09-0.49c0-0.2-0.04-0.4-0.11-0.59L42.71,13L39.43,19.26z M39.03,17.58
		c-0.11-0.13-0.24-0.25-0.38-0.36l2.6-4.98L39.03,17.58z M38.08,16.83c-0.14-0.08-0.28-0.15-0.43-0.22l2.08-5L38.08,16.83z
		 M37.01,16.35c-0.15-0.05-0.3-0.1-0.46-0.14l1.61-5.09L37.01,16.35z M35.87,16.05c-0.15-0.03-0.31-0.06-0.47-0.08l1.16-5.2
		L35.87,16.05z M34.71,15.88c-0.16-0.01-0.32-0.03-0.48-0.03l0.71-5.3L34.71,15.88z M33.53,15.84c-0.16,0-0.33,0-0.49,0.01
		l0.24-5.37L33.53,15.84z M32.36,15.91c-0.16,0.02-0.33,0.04-0.49,0.06l-0.23-5.42L32.36,15.91z M31.21,16.1
		c-0.16,0.04-0.32,0.08-0.48,0.12l-0.71-5.46L31.21,16.1z M30.1,16.44c-0.16,0.06-0.32,0.13-0.46,0.2l-1.22-5.51L30.1,16.44z
		 M29.06,16.95c-0.16,0.1-0.3,0.21-0.43,0.32l-1.79-5.66L29.06,16.95z M28.19,17.73c-0.15,0.2-0.26,0.42-0.31,0.65l-2.55-6.14
		L28.19,17.73z M27.97,19.43c0.01,0.01,0.01,0.03,0.02,0.04c-0.18,0.15-0.34,0.31-0.48,0.48L23.87,13L27.97,19.43z M27.32,20.18
		c-0.01,0.02-0.03,0.04-0.04,0.06c-0.29-0.14-0.61-0.27-0.95-0.38l-3.84-5.99L27.32,20.18z M25.56,19.66
		c-0.25-0.06-0.51-0.1-0.78-0.14l-3.6-4.65L25.56,19.66z M23.71,19.42c-0.19-0.01-0.38-0.01-0.57-0.01l-3.17-3.43L23.71,19.42z
		 M21.82,19.48c-0.13,0.01-0.26,0.03-0.38,0.05l-2.58-2.34L21.82,19.48z M19.98,19.85c-0.08,0.02-0.15,0.05-0.23,0.07l-1.9-1.44
		L19.98,19.85z M18.37,20.6c-0.04,0.02-0.07,0.05-0.11,0.07l-1.29-0.81L18.37,20.6z M17.34,21.79c-0.01,0.03-0.02,0.06-0.03,0.09
		l-1.1-0.56L17.34,21.79z M17.12,23.32c-0.03,0.03-0.05,0.06-0.08,0.09l-1.45-0.58L17.12,23.32z M16.27,24.66
		c-0.01,0.03-0.02,0.05-0.02,0.08l-1.15-0.35L16.27,24.66z M16.16,26.19v0.1l-1.42-0.3L16.16,26.19z M16.16,27.7v0.11l-1.64-0.2
		L16.16,27.7z M16.16,29.19v0.12l-1.71-0.06L16.16,29.19z M16.16,30.69v0.11l-1.64,0.09L16.16,30.69z M16.16,32.21v0.1l-1.42,0.2
		L16.16,32.21z M16.16,33.78v0.08l-1.07,0.25L16.16,33.78z M15.59,35.67l0.57-0.23v0.05L15.59,35.67z M32.97,42.05
		c-0.05,0.08-0.12,0.13-0.22,0.16c-0.09,0.03-0.2,0.03-0.32,0.01c-0.12-0.02-0.26-0.07-0.4-0.15c-0.14-0.08-0.29-0.18-0.45-0.32
		c-0.3-0.26-0.54-0.51-0.73-0.76c-0.19-0.25-0.34-0.49-0.43-0.7c-0.1-0.22-0.16-0.41-0.18-0.58c-0.02-0.17,0-0.3,0.04-0.39
		c0.04-0.08,0.1-0.13,0.18-0.15c0.08-0.03,0.17-0.03,0.27-0.01c0.1,0.02,0.21,0.07,0.33,0.14c0.12,0.07,0.24,0.17,0.35,0.3
		c0.16,0.18,0.29,0.36,0.39,0.54c0.1,0.18,0.16,0.35,0.19,0.51c0.03,0.16,0.03,0.29,0,0.39c-0.03,0.11-0.09,0.17-0.18,0.2
		c0.17,0.1,0.32,0.16,0.44,0.19c0.13,0.02,0.22-0.02,0.26-0.12c0.04-0.08,0.05-0.2,0.02-0.36c-0.03-0.16-0.08-0.33-0.16-0.51
		c-0.08-0.18-0.19-0.37-0.31-0.55c-0.13-0.18-0.27-0.35-0.42-0.49c-0.01-0.01-0.03-0.02-0.04-0.03c-0.3-0.26-0.54-0.51-0.73-0.76
		c-0.19-0.25-0.33-0.48-0.43-0.7c-0.1-0.22-0.16-0.41-0.18-0.58c-0.02-0.17,0-0.3,0.04-0.39c0.04-0.08,0.1-0.13,0.18-0.16
		c0.08-0.03,0.17-0.03,0.27,0c0.1,0.02,0.21,0.07,0.33,0.14c0.12,0.07,0.24,0.17,0.35,0.3c0.16,0.18,0.29,0.36,0.39,0.54
		c0.1,0.18,0.16,0.35,0.19,0.51c0.03,0.16,0.03,0.29,0,0.39c-0.03,0.11-0.09,0.17-0.18,0.2c0.17,0.1,0.32,0.16,0.44,0.19
		c0.13,0.02,0.22-0.02,0.26-0.12c0.04-0.08,0.05-0.2,0.02-0.36c-0.03-0.16-0.08-0.33-0.16-0.51c-0.08-0.18-0.19-0.37-0.31-0.55
		c-0.12-0.17-0.25-0.32-0.39-0.46l-1.02-0.87c-0.09,0.02-0.18,0.02-0.28-0.01c-0.1-0.03-0.2-0.09-0.3-0.19
		c-0.11-0.11-0.17-0.22-0.19-0.33c-0.02-0.11,0-0.19,0.05-0.25c0.05-0.06,0.11-0.08,0.2-0.06c0.09,0.02,0.18,0.1,0.28,0.25
		c0.04,0.06,0.08,0.1,0.11,0.11c0.03,0.01,0.06,0.01,0.08,0c0.02-0.01,0.04-0.04,0.05-0.07c0.02-0.03,0.03-0.06,0.04-0.09
		c0.05-0.11,0.13-0.17,0.22-0.19c0.09-0.02,0.19,0.01,0.28,0.09l0.86,0.71c0.18,0.15,0.31,0.25,0.4,0.3
		c0.09,0.05,0.13,0.04,0.13-0.04c0-0.12-0.08-0.27-0.24-0.45c-0.16-0.18-0.39-0.39-0.67-0.62l0.19-0.15
		c0.39,0.32,0.69,0.63,0.9,0.91c0.21,0.28,0.32,0.56,0.31,0.82c0,0.25-0.09,0.37-0.27,0.37c-0.18,0-0.43-0.14-0.76-0.41
		c-0.11-0.09-0.21-0.17-0.29-0.24c-0.08-0.07-0.15-0.13-0.22-0.19c-0.06-0.06-0.12-0.12-0.18-0.17c-0.06-0.05-0.12-0.12-0.19-0.18
		c-0.06-0.05-0.11-0.08-0.16-0.1c-0.05-0.01-0.1,0-0.14,0.04l1.06,0.89l-0.01,0.01c0.21,0.21,0.39,0.42,0.56,0.66
		c0.18,0.26,0.33,0.53,0.44,0.79c0.11,0.26,0.17,0.51,0.19,0.73c0.02,0.23-0.02,0.42-0.12,0.57c-0.05,0.08-0.12,0.13-0.22,0.16
		c-0.09,0.03-0.2,0.03-0.32,0.01c-0.05-0.01-0.1-0.03-0.15-0.04c0.05,0.06,0.1,0.13,0.15,0.19c0.18,0.26,0.33,0.53,0.44,0.79
		c0.11,0.26,0.17,0.51,0.19,0.73C33.11,41.72,33.07,41.91,32.97,42.05z M43.91,43.18c-0.1,0.25-0.24,0.46-0.42,0.63
		c-0.18,0.17-0.41,0.27-0.67,0.3c-0.22,0.03-0.43,0-0.65-0.08c-0.22-0.08-0.41-0.21-0.58-0.38c-0.07-0.07-0.13-0.16-0.2-0.26
		c-0.07-0.1-0.12-0.2-0.17-0.31c-0.04-0.11-0.07-0.21-0.08-0.32c-0.01-0.1,0-0.2,0.04-0.28c0.04-0.07,0.08-0.12,0.15-0.16
		c0.06-0.04,0.13-0.05,0.2-0.03c0.07,0.02,0.12,0.04,0.14,0.06c0.03,0.02,0.04,0.04,0.05,0.07c0.01,0.03,0.01,0.06,0,0.1
		c-0.01,0.04-0.01,0.08-0.02,0.13c-0.01,0.06,0,0.14,0.03,0.25c0.03,0.11,0.1,0.21,0.19,0.33c0.09,0.11,0.21,0.2,0.36,0.29
		c0.15,0.09,0.31,0.14,0.48,0.16c0.17,0.01,0.33-0.02,0.49-0.1c0.16-0.08,0.28-0.23,0.36-0.45c0.11-0.27,0.16-0.59,0.15-0.95
		c-0.01-0.36-0.06-0.72-0.16-1.08c-0.1-0.36-0.24-0.71-0.42-1.04c-0.18-0.33-0.39-0.62-0.63-0.85c-0.12-0.11-0.24-0.2-0.37-0.28
		c-0.13-0.08-0.27-0.13-0.4-0.16c-0.14-0.03-0.27-0.04-0.39-0.01c-0.12,0.02-0.23,0.07-0.32,0.15c0.02,0.05,0.04,0.1,0.06,0.15
		c0.02,0.05,0.03,0.1,0.05,0.15c0.02,0.07,0.05,0.14,0.07,0.22c0.02,0.08,0.04,0.16,0.06,0.25l0.34,0.22
		c0.15,0.1,0.32,0.23,0.53,0.37c0.21,0.15,0.41,0.31,0.61,0.5c0.2,0.19,0.36,0.39,0.51,0.61c0.14,0.22,0.21,0.45,0.22,0.68
		c0,0.06-0.01,0.12-0.03,0.16c-0.02,0.05-0.06,0.06-0.11,0.05c-0.03-0.01-0.06-0.02-0.08-0.04c-0.03-0.02-0.06-0.05-0.09-0.09
		c-0.04-0.04-0.08-0.09-0.14-0.16c-0.06-0.06-0.13-0.15-0.22-0.25c-0.22-0.23-0.46-0.45-0.71-0.66c-0.25-0.2-0.54-0.43-0.88-0.69
		c-0.01,0.03-0.04,0.06-0.09,0.08c-0.04,0.02-0.08,0.02-0.12,0.01c-0.05-0.01-0.09-0.04-0.14-0.07v-0.96
		c0.02,0.01,0.03,0.02,0.05,0.03c0.03,0.02,0.07,0.04,0.11,0.06c-0.04-0.1-0.09-0.21-0.15-0.33V38.3c0.11-0.09,0.22-0.17,0.34-0.23
		c0.17-0.08,0.34-0.1,0.51-0.08c0.18,0.03,0.35,0.1,0.52,0.19c0.17,0.09,0.33,0.21,0.48,0.35c0.15,0.14,0.29,0.29,0.43,0.46
		c0.13,0.17,0.25,0.35,0.35,0.54c0.14,0.27,0.26,0.56,0.36,0.88c0.09,0.32,0.16,0.65,0.2,0.97c0.04,0.33,0.04,0.65,0.02,0.96
		C44.07,42.65,44.01,42.93,43.91,43.18z M44.98,33c0.02,0.68,0.02,1.35,0.03,2.03l0.01,2.03l-0.01,2.03
		c-0.01,0.68-0.01,1.35-0.03,2.03c-0.02,1.35-0.06,2.7-0.13,4.05c-0.07-1.35-0.1-2.7-0.13-4.05c-0.02-0.68-0.02-1.35-0.03-2.03
		l-0.01-2.03l0.01-2.03c0.01-0.68,0.01-1.35,0.03-2.03c0.02-1.35,0.06-2.7,0.13-4.05C44.92,30.3,44.95,31.65,44.98,33z M44.14,28.28
		c-0.82,0.1-1.65,0.1-2.47-0.01c-0.31-0.04-0.62-0.11-0.93-0.19c-0.05-0.13-0.11-0.25-0.18-0.37c0.37,0.13,0.76,0.23,1.15,0.31
		C42.5,28.18,43.32,28.25,44.14,28.28z"/>
	<path class="st0" d="M48.49,21.6c0,0.12-0.22,0.01-0.39-0.09c-0.05-0.03-0.11-0.06-0.17-0.1c0,0-0.01,0-0.01-0.01c0,0,0,0,0,0
		c-0.89-0.49-2.31-0.81-3.96-0.81c-1.13,0-2.18,0.15-3.06,0.43c-0.05,0.02-0.09,0.03-0.13,0.05c-0.03,0-0.06,0.01-0.08,0.02
		c-0.03,0.01-0.06,0.01-0.08,0.02c0,0-0.01,0-0.01,0c-0.02,0.01-0.04,0.02-0.05,0.04c-0.01,0.01-0.02,0.01-0.03,0.02
		c-0.19,0.08-0.37,0.16-0.52,0.24l-0.02,0l-0.02,0.02c-0.01,0-0.01,0.01-0.01,0.01c-0.12,0.07-0.47,0.3-0.47,0.14
		c0-0.19,0.27-0.46,1-0.96c-1.04,0.41-1.7,0.99-1.7,1.64c0,0.43,0.29,0.85,0.78,1.22c0.47,0.4,1.28,0.72,2.29,0.92
		c0.07,0.01,0.15,0.03,0.22,0.04c0.07,0.01,0.14,0.03,0.22,0.04l0.13,0.02c0.07,0.01,0.13,0.02,0.2,0.02
		c0.14,0.02,0.29,0.03,0.43,0.04c0.04,0,0.08,0.01,0.12,0.01c0.15,0.01,0.31,0.02,0.46,0.02c0.06,0,0.13,0,0.19,0l0.01,0
		c0.05,0,0.09,0,0.14,0c0.05,0,0.09,0,0.14,0l0.01,0c0.06,0,0.13,0,0.19,0c0.15,0,0.31-0.01,0.46-0.02c0.04,0,0.08-0.01,0.12-0.01
		c0.14-0.01,0.28-0.02,0.43-0.04c0.07-0.01,0.13-0.02,0.2-0.02l0.13-0.02c1.1-0.16,1.98-0.47,2.54-0.86
		c0.62-0.39,0.99-0.86,0.99-1.35c0-0.65-0.65-1.24-1.7-1.64C48.22,21.14,48.49,21.41,48.49,21.6z M44.31,24.4c-0.06,0-0.12,0-0.19,0
		l-0.01,0c-0.04,0-0.09,0-0.13,0c-0.04,0-0.09,0-0.13,0l-0.01,0c-0.06,0-0.12,0-0.19,0c-0.16,0-0.31-0.01-0.46-0.02
		c-0.04,0-0.08,0-0.11-0.01c-0.14-0.01-0.29-0.02-0.43-0.04c-0.07-0.01-0.13-0.02-0.2-0.02l-0.13-0.02
		c-1.82-0.27-3.04-0.94-3.04-1.67c0-0.42,0.4-0.75,0.75-0.96l0.04-0.03c0.06-0.04,0.14-0.07,0.21-0.11
		c-0.01,0.05-0.01,0.1-0.01,0.16c0.04,0.59,0.78,1.37,1.1,1.47c0.26,0.08,0.59,0.07,0.97,0.04c0.23-0.01,0.48-0.03,0.76-0.02
		c0.3,0.01,0.58,0.06,0.85,0.1c0.29,0.05,0.59,0.1,0.91,0.1c0.09,0,0.18,0,0.28-0.01c0.25-0.03,0.38-0.14,0.46-0.25
		c0.18,0.03,0.4,0.04,0.65,0.01c1.12-0.13,1.63-0.9,1.05-1.42c-0.46-0.41-1.93-0.64-2.79-0.59c-0.1-0.06-0.2-0.1-0.28-0.12
		c-0.22-0.05-0.74,0.01-1.25,0.08c-0.3,0.04-0.58,0.07-0.73,0.07c-0.15,0-0.33-0.01-0.51-0.03c-0.08-0.01-0.16-0.01-0.24-0.02
		c0.74-0.18,1.6-0.28,2.47-0.28c2.55,0,4.7,0.82,4.7,1.79c0,0.73-1.22,1.41-3.04,1.67L45.5,24.3c-0.06,0.01-0.13,0.02-0.19,0.02
		c-0.15,0.02-0.29,0.03-0.43,0.04c-0.04,0-0.08,0.01-0.12,0.01C44.61,24.38,44.46,24.39,44.31,24.4z M41.72,21.34
		c0.19,0.02,0.37,0.03,0.53,0.03c0.16,0,0.45-0.04,0.76-0.08c0.44-0.06,0.99-0.13,1.16-0.08c0.12,0.03,0.3,0.13,0.5,0.29h0
		c0.18,0.14,0.34,0.3,0.47,0.5c0.31,0.46,0.3,0.65,0.26,0.73c-0.03,0.07-0.11,0.11-0.25,0.12c-0.39,0.04-0.75-0.02-1.13-0.09
		c-0.28-0.05-0.57-0.1-0.88-0.11c-0.05,0-0.1,0-0.15,0c-0.22,0-0.44,0.01-0.63,0.02c-0.36,0.02-0.67,0.04-0.89-0.03
		c-0.26-0.08-0.91-0.87-0.87-1.22c0-0.03,0.01-0.1,0.15-0.11C41.09,21.28,41.43,21.31,41.72,21.34z M41.87,22.99
		c-0.16-0.01-0.32-0.03-0.46-0.08c0.15,0.03,0.31,0.04,0.46,0.03c0.15-0.01,0.31-0.02,0.46-0.03c0.31-0.03,0.62-0.04,0.94-0.02
		c0.32,0.02,0.62,0.09,0.93,0.15c0.3,0.06,0.61,0.1,0.92,0.09c-0.31,0.05-0.63,0.04-0.94-0.01c-0.31-0.04-0.62-0.1-0.92-0.12
		c-0.31-0.02-0.62-0.01-0.93,0C42.19,22.99,42.03,22.99,41.87,22.99z"/>
	<path class="st0" d="M42.55,22.11c-0.02-0.08-0.09-0.35-0.39-0.53c-0.16-0.1-0.61-0.12-0.74-0.09c-0.06,0.02-0.11,0.05-0.13,0.11
		c-0.07,0.14-0.03,0.4,0.2,0.64c0.17,0.18,0.44,0.24,0.64,0.24c0.02,0,0.03,0,0.05,0c0.17-0.01,0.29-0.05,0.35-0.13
		C42.56,22.3,42.57,22.21,42.55,22.11z M41.46,21.65c0.15-0.04,0.3-0.05,0.45-0.01c0.08,0.02,0.15,0.05,0.21,0.1
		c0.06,0.05,0.11,0.11,0.15,0.17c-0.11-0.1-0.23-0.19-0.37-0.22C41.76,21.65,41.61,21.66,41.46,21.65z M41.47,21.84
		c0.01-0.02,0.03-0.04,0.06-0.05c0.02-0.01,0.06-0.01,0.1-0.01c0.11,0,0.28,0.02,0.35,0.06c0.18,0.11,0.23,0.27,0.24,0.32
		c0.01,0.06,0,0.1-0.01,0.12c-0.03,0.03-0.09,0.06-0.18,0.06c-0.14,0.01-0.32-0.04-0.43-0.15C41.45,22.04,41.43,21.91,41.47,21.84z"
		/>
	<path class="st0" d="M44.88,22.12c-0.01,0.14-0.09,0.35-0.74,0.25c0.39-0.14,0.38-0.57-0.16-0.62c0.24-0.15,0.28-0.29,0.1-0.31
		c-0.27-0.03-1.12,0.07-1.18,0.27c-0.06,0.2,0.1,0.73,1.01,0.79C44.81,22.56,44.96,22.44,44.88,22.12z M43.26,21.67
		c0,0,0,0.09,0.02,0.14c0.02,0.05,0.12,0.09,0.12,0.09s-0.17,0.05-0.2,0.17C42.99,21.86,43.1,21.75,43.26,21.67z M43.36,22.15
		c-0.02-0.04,0-0.1,0.03-0.12c0.03-0.03,0.06-0.04,0.1-0.04c-0.03,0.02-0.05,0.05-0.07,0.07c-0.02,0.02-0.02,0.05-0.01,0.07
		c0.01,0.02,0.03,0.04,0.06,0.06c0.03,0.02,0.06,0.03,0.09,0.04c-0.03,0.01-0.07,0.01-0.11,0C43.42,22.21,43.38,22.19,43.36,22.15z
		 M43.9,22.17c-0.18,0.01-0.33-0.03-0.34-0.09c-0.01-0.06,0.14-0.13,0.32-0.14c0.18-0.01,0.33,0.03,0.34,0.09
		C44.23,22.09,44.08,22.15,43.9,22.17z"/>
	<path class="st0" d="M44.71,21.97c-0.02-0.09-0.07-0.15-0.13-0.21c-0.06-0.06-0.12-0.1-0.2-0.13c0.02,0.09,0.07,0.15,0.13,0.21
		C44.56,21.9,44.63,21.95,44.71,21.97z"/>
	<path class="st0" d="M42.94,23.61c-0.36,0.03-0.72,0.03-1.08,0c-0.17-0.02-0.35-0.06-0.52-0.11c-0.17-0.05-0.33-0.11-0.48-0.2
		c-0.15-0.09-0.28-0.2-0.37-0.35c-0.09-0.15-0.11-0.33-0.11-0.52c-0.05,0.18-0.06,0.38,0.01,0.56c0.07,0.18,0.21,0.34,0.37,0.45
		c0.16,0.11,0.34,0.19,0.52,0.25c0.09,0.03,0.18,0.05,0.27,0.07c0.05,0.01,0.09,0.02,0.14,0.03l0.07,0.01c0.02,0,0.05,0,0.07,0.01
		c0.38,0.03,0.75,0.01,1.12-0.05c0.37-0.06,0.73-0.16,1.06-0.31C43.67,23.53,43.3,23.58,42.94,23.61z"/>
	<path class="st0" d="M30.37,43.61c0.04,0.02,0.08,0.05,0.11,0.07c0.03,0.02,0.07,0.04,0.11,0.07c-0.04-0.1-0.1-0.23-0.17-0.37
		C30.4,43.44,30.38,43.52,30.37,43.61z"/>
	<path class="st0" d="M31.57,40.78c-0.03-0.1-0.07-0.21-0.14-0.34c-0.07-0.13-0.15-0.28-0.26-0.42c-0.14-0.19-0.27-0.33-0.4-0.41
		c-0.12-0.08-0.2-0.1-0.22-0.06c-0.04,0.06-0.04,0.15,0,0.26c0.04,0.12,0.1,0.24,0.19,0.38c0.09,0.14,0.2,0.28,0.32,0.42
		c0.13,0.14,0.25,0.27,0.39,0.38c0.07,0.05,0.12,0.05,0.13,0.01C31.6,40.94,31.59,40.87,31.57,40.78z"/>
	<path class="st0" d="M31.46,38.03c-0.07-0.13-0.15-0.27-0.26-0.42c-0.14-0.19-0.27-0.33-0.4-0.41c-0.12-0.08-0.2-0.1-0.22-0.07
		c-0.04,0.06-0.04,0.15,0,0.26c0.04,0.12,0.1,0.24,0.19,0.38c0.09,0.14,0.2,0.28,0.32,0.42c0.13,0.14,0.25,0.27,0.39,0.38
		c0.07,0.05,0.12,0.05,0.13,0.01c0.02-0.04,0.01-0.11-0.01-0.21C31.57,38.28,31.52,38.16,31.46,38.03z"/>
	<path class="st0" d="M29.91,43.34c0.03-0.16,0.09-0.32,0.18-0.49c-0.04-0.06-0.08-0.11-0.12-0.15c-0.04-0.04-0.07-0.08-0.09-0.1
		c-0.08-0.07-0.16-0.15-0.26-0.21c-0.1-0.07-0.2-0.12-0.31-0.16c-0.11-0.04-0.21-0.07-0.32-0.09c-0.1-0.02-0.2-0.01-0.29,0.02
		c0.1,0.24,0.27,0.45,0.48,0.64C29.42,42.99,29.65,43.17,29.91,43.34z"/>
	<path class="st0" d="M28.22,25.76c0,0.45,0.3,0.89,0.81,1.27c0.49,0.42,1.33,0.75,2.39,0.96c0.08,0.02,0.16,0.03,0.24,0.04
		c0.08,0.01,0.15,0.03,0.23,0.04l0.13,0.02c0.07,0.01,0.14,0.02,0.21,0.03c0.15,0.02,0.3,0.03,0.45,0.04c0.04,0,0.08,0.01,0.12,0.01
		c0.16,0.01,0.32,0.02,0.48,0.02c0.07,0,0.13,0,0.2,0l0.01,0c0.05,0,0.09,0,0.14,0c0.05,0,0.09,0,0.14,0l0.01,0c0.07,0,0.13,0,0.2,0
		c0.16,0,0.32-0.01,0.48-0.02c0.04,0,0.09-0.01,0.13-0.01c0.15-0.01,0.3-0.03,0.45-0.04c0.07-0.01,0.14-0.02,0.21-0.03l0.13-0.02
		c1.15-0.17,2.06-0.49,2.64-0.89c0.65-0.4,1.03-0.9,1.03-1.41c0-0.68-0.68-1.29-1.77-1.71c0.76,0.51,1.04,0.8,1.04,1
		c0,0.12-0.23,0.01-0.4-0.09c-0.05-0.03-0.11-0.07-0.17-0.1c0,0-0.01,0-0.01-0.01c0,0,0,0,0,0c-0.92-0.51-2.41-0.84-4.12-0.84
		c-1.17,0-2.28,0.15-3.19,0.45c-0.04,0.01-0.07,0.03-0.1,0.04c-0.07,0.01-0.14,0.02-0.2,0.05c0,0,0,0,0,0c-0.01,0-0.01,0-0.02,0.01
		c-0.02,0.01-0.04,0.03-0.06,0.04c-0.01,0.01-0.03,0.01-0.04,0.02c-0.2,0.08-0.38,0.16-0.54,0.25l-0.02,0l-0.03,0.02
		c-0.01,0-0.01,0.01-0.02,0.01c-0.12,0.08-0.49,0.31-0.49,0.15c0-0.2,0.28-0.48,1.04-1C28.9,24.47,28.22,25.08,28.22,25.76z
		 M29.57,25.08c0.07-0.04,0.15-0.07,0.22-0.11c-0.01,0.05-0.01,0.11-0.01,0.17c0.04,0.62,0.81,1.43,1.14,1.53
		c0.28,0.09,0.62,0.07,1.01,0.05c0.24-0.01,0.5-0.03,0.79-0.02c0.31,0.01,0.6,0.06,0.88,0.11c0.3,0.05,0.62,0.11,0.95,0.11
		c0.09,0,0.19,0,0.29-0.01c0.26-0.03,0.4-0.14,0.48-0.26c0.19,0.03,0.41,0.04,0.68,0.01c1.17-0.14,1.7-0.94,1.1-1.48
		c-0.48-0.43-2.01-0.66-2.91-0.62c-0.11-0.06-0.21-0.11-0.29-0.13c-0.23-0.06-0.77,0.01-1.3,0.08c-0.31,0.04-0.61,0.08-0.76,0.08
		c-0.15,0-0.34-0.02-0.53-0.03c-0.08-0.01-0.17-0.01-0.25-0.02c0.77-0.19,1.66-0.29,2.58-0.29c2.65,0,4.89,0.85,4.89,1.86
		c0,0.76-1.27,1.46-3.17,1.74l-0.13,0.02c-0.07,0.01-0.13,0.02-0.2,0.02c-0.15,0.02-0.3,0.03-0.44,0.04c-0.04,0-0.08,0.01-0.12,0.01
		c-0.16,0.01-0.32,0.02-0.47,0.02c-0.06,0-0.13,0-0.19,0l-0.01,0c-0.05,0-0.09,0-0.14,0c-0.04,0-0.09,0-0.14,0l-0.01,0
		c-0.06,0-0.13,0-0.19,0c-0.16,0-0.32-0.01-0.48-0.02c-0.04,0-0.08,0-0.12-0.01c-0.15-0.01-0.3-0.03-0.44-0.04
		c-0.07-0.01-0.14-0.02-0.2-0.03l-0.13-0.02c-1.9-0.28-3.17-0.98-3.17-1.74c0-0.44,0.41-0.78,0.78-1L29.57,25.08z M32.9,26.49
		c-0.32-0.02-0.64-0.01-0.97,0c-0.16,0.01-0.33,0.01-0.49,0c-0.16-0.01-0.33-0.03-0.48-0.09c0.16,0.03,0.32,0.04,0.48,0.03
		c0.16-0.01,0.32-0.02,0.48-0.03c0.32-0.03,0.65-0.05,0.98-0.03c0.33,0.02,0.65,0.09,0.97,0.15c0.32,0.06,0.64,0.11,0.96,0.09
		c-0.32,0.06-0.65,0.04-0.98-0.01C33.54,26.57,33.22,26.51,32.9,26.49z M34.37,24.94L34.37,24.94c0.19,0.14,0.36,0.32,0.49,0.52
		c0.32,0.48,0.31,0.68,0.27,0.76c-0.03,0.07-0.12,0.11-0.26,0.12c-0.41,0.04-0.78-0.02-1.18-0.09c-0.29-0.05-0.59-0.1-0.92-0.11
		c-0.05,0-0.1,0-0.15,0c-0.23,0-0.45,0.01-0.65,0.02c-0.37,0.02-0.69,0.04-0.93-0.04c-0.27-0.09-0.95-0.91-0.91-1.27
		c0-0.04,0.01-0.1,0.16-0.11c0.33-0.03,0.68,0,0.99,0.03c0.2,0.02,0.39,0.03,0.55,0.03c0.17,0,0.47-0.04,0.79-0.08
		c0.46-0.06,1.03-0.13,1.21-0.08C33.97,24.67,34.15,24.78,34.37,24.94z M31.49,28c0.05,0.01,0.1,0.02,0.15,0.03
		C31.6,28.02,31.54,28.01,31.49,28z"/>
	<path class="st0" d="M32.15,25.57c-0.02-0.08-0.09-0.37-0.41-0.55c-0.17-0.1-0.63-0.12-0.77-0.09c-0.06,0.02-0.11,0.06-0.14,0.11
		c-0.07,0.15-0.03,0.41,0.21,0.67c0.17,0.18,0.46,0.25,0.66,0.25c0.02,0,0.03,0,0.05,0c0.17-0.01,0.3-0.06,0.36-0.13
		C32.16,25.77,32.17,25.68,32.15,25.57z M31.02,25.3c0.01-0.02,0.03-0.04,0.06-0.05c0.02-0.01,0.06-0.01,0.1-0.01
		c0.12,0,0.29,0.02,0.36,0.06c0.19,0.11,0.24,0.28,0.25,0.33c0.01,0.07,0,0.11-0.01,0.12c-0.03,0.03-0.1,0.06-0.18,0.06
		c-0.14,0.01-0.34-0.04-0.45-0.16C31,25.51,30.99,25.37,31.02,25.3z M31.48,25.09c0.08,0.02,0.15,0.06,0.22,0.11
		c0.06,0.05,0.12,0.11,0.16,0.18c-0.11-0.11-0.24-0.19-0.39-0.23c-0.15-0.04-0.3-0.03-0.46-0.04
		C31.16,25.06,31.33,25.05,31.48,25.09z"/>
	<path class="st0" d="M34.57,25.59c-0.01,0.14-0.09,0.36-0.77,0.26c0.4-0.14,0.4-0.6-0.17-0.65c0.25-0.16,0.29-0.3,0.1-0.32
		c-0.28-0.03-1.17,0.07-1.23,0.28c-0.06,0.21,0.11,0.76,1.05,0.83C34.5,26.05,34.66,25.92,34.57,25.59z M32.82,25.54
		c-0.21-0.23-0.1-0.34,0.07-0.42c0,0,0,0.09,0.02,0.15c0.02,0.06,0.12,0.09,0.12,0.09S32.85,25.42,32.82,25.54z M32.99,25.62
		c-0.02-0.04,0-0.1,0.03-0.12c0.03-0.03,0.07-0.04,0.1-0.04c-0.03,0.03-0.05,0.05-0.07,0.07c-0.02,0.03-0.02,0.05-0.01,0.07
		c0.01,0.02,0.03,0.04,0.06,0.06c0.03,0.02,0.06,0.03,0.09,0.05c-0.04,0.01-0.07,0.01-0.11,0C33.05,25.69,33.01,25.66,32.99,25.62z
		 M33.56,25.64c-0.19,0.01-0.35-0.03-0.35-0.09c-0.01-0.07,0.14-0.13,0.33-0.15c0.19-0.01,0.35,0.03,0.35,0.09
		C33.9,25.56,33.75,25.63,33.56,25.64z"/>
	<path class="st0" d="M34.27,25.22c-0.06-0.06-0.12-0.11-0.21-0.14c0.03,0.09,0.08,0.16,0.13,0.22c0.06,0.06,0.12,0.11,0.21,0.14
		C34.38,25.35,34.33,25.28,34.27,25.22z"/>
	<path class="st0" d="M32.56,27.14c-0.37,0.03-0.75,0.04-1.12,0c-0.18-0.02-0.36-0.06-0.54-0.11c-0.18-0.05-0.35-0.12-0.51-0.2
		c-0.15-0.09-0.29-0.21-0.38-0.36c-0.09-0.15-0.12-0.34-0.12-0.54c-0.05,0.18-0.06,0.39,0.01,0.58c0.08,0.19,0.22,0.35,0.39,0.47
		c0.17,0.12,0.35,0.2,0.54,0.26c0.09,0.03,0.19,0.06,0.28,0.08c0.05,0.01,0.1,0.02,0.15,0.03l0.07,0.01c0.02,0,0.05,0,0.07,0.01
		c0.4,0.03,0.78,0.01,1.17-0.05c0.38-0.07,0.76-0.17,1.11-0.33C33.31,27.06,32.94,27.11,32.56,27.14z"/>
	<path class="st0" d="M6.77,18.41l0.75,0.25l0.25-0.22l0.63,0.31c0.21,0.14,0.34,0.34,0.38,0.62c0.26-0.13,0.5-0.15,0.74-0.07
		l0.62,0.31l-0.02,0.33l0.67,0.47c0.34,0.21,0.58,0.21,0.71,0l0.58-1.18c0.09-0.23-0.05-0.42-0.43-0.56l-0.77-0.25l-0.25,0.21
		l-0.81-0.4l0.48-0.96l0.81,0.4L11.09,18l0.67,0.46c0.34,0.21,0.58,0.21,0.71,0l0.58-1.18c0.09-0.23-0.05-0.41-0.43-0.56l-0.77-0.25
		l-0.25,0.21l-0.62-0.31c-0.21-0.14-0.34-0.35-0.39-0.63c-0.25,0.13-0.49,0.16-0.72,0.07l-0.63-0.31l0.02-0.33L8.6,14.73
		c-0.34-0.21-0.58-0.21-0.71,0L7.31,15.9c-0.09,0.23,0.05,0.42,0.43,0.56l0.75,0.25l0.25-0.22l0.81,0.4l-0.48,0.96l-0.81-0.4
		l0.02-0.33l-0.66-0.45c-0.34-0.21-0.58-0.21-0.71,0l-0.58,1.17C6.25,18.08,6.39,18.27,6.77,18.41z"/>
	<path class="st0" d="M9.91,12.75l0.68,0.41l0.3-0.16l0.47,0.5c0.12,0.21,0.14,0.43,0.07,0.64c0.27-0.02,0.5,0.04,0.7,0.18
		l0.58,0.61l-0.09,0.32l0.56,0.59c0.29,0.28,0.52,0.33,0.69,0.15l0.81-1.01c0.14-0.21,0.04-0.42-0.3-0.64l-0.7-0.41l-0.29,0.16
		l-0.63-0.67l0.52-0.65l0.79,0.46L14,13.54l0.56,0.59c0.29,0.28,0.52,0.33,0.69,0.15l0.81-1.01c0.14-0.2,0.04-0.41-0.3-0.64
		l-0.7-0.41l-0.29,0.15l-0.72-0.43c-0.17-0.16-0.28-0.38-0.33-0.65c-0.2,0.12-0.41,0.14-0.65,0.07l-0.59-0.35l0.09-0.33l-0.55-0.58
		c-0.29-0.28-0.52-0.33-0.69-0.15l-1.72,2.15C9.47,12.31,9.57,12.53,9.91,12.75z M11.62,11.98l0.03-0.04l0.15-0.07l0.76,0.45
		l-0.38,0.47l-0.6-0.65L11.62,11.98z"/>
	<path class="st0" d="M14.25,8.93l0.32-0.09l0.44,0.54c0.14,0.21,0.16,0.45,0.09,0.72c0.29-0.01,0.52,0.07,0.7,0.24l0.44,0.54
		l-0.16,0.28l0.41,0.7c0.23,0.33,0.44,0.43,0.65,0.29l1-0.82c0.18-0.17,0.13-0.4-0.15-0.69l-0.6-0.55l-0.31,0.1l-0.87-1.07l2.5,1.53
		c0.11,0.03,0.22,0.01,0.32-0.06l0.8-0.65c0.18-0.17,0.13-0.4-0.15-0.69l-0.59-0.54l-0.32,0.09l-0.44-0.55
		c-0.13-0.21-0.16-0.45-0.09-0.72c-0.29,0.01-0.52-0.07-0.7-0.24L17.1,6.78l0.16-0.28l-0.41-0.7c-0.23-0.33-0.44-0.43-0.65-0.28
		l-1,0.82c-0.18,0.17-0.13,0.4,0.15,0.69l0.6,0.55l0.31-0.1l0.87,1.07L14.62,7c-0.11-0.03-0.22-0.01-0.32,0.06l-0.8,0.65
		c-0.18,0.17-0.13,0.4,0.15,0.69L14.25,8.93z"/>
	<path class="st0" d="M19.03,5.34l0.33-0.03l0.31,0.61c0.09,0.23,0.07,0.48-0.06,0.74c0.28,0.05,0.49,0.18,0.63,0.39l0.31,0.61
		l-0.21,0.25l0.26,0.77c0.15,0.37,0.34,0.51,0.57,0.42l1.77-0.91c0.34-0.19,0.56-0.47,0.66-0.84c0.1-0.37-0.07-0.96-0.5-1.77
		c-0.09-0.23-0.07-0.48,0.06-0.74c-0.28-0.05-0.49-0.18-0.63-0.39c-0.41-0.83-0.79-1.31-1.15-1.44c-0.36-0.13-0.71-0.12-1.07,0.05
		l-1.76,0.92c-0.21,0.13-0.21,0.37,0.01,0.71L19.03,5.34z M20.9,4.36c0.13-0.03,0.25,0.01,0.37,0.14c0.12,0.12,0.22,0.27,0.31,0.44
		c0.09,0.24,0.08,0.48-0.04,0.74c0.27,0.05,0.48,0.18,0.62,0.39c0.09,0.17,0.15,0.35,0.18,0.52c0.03,0.17-0.01,0.3-0.11,0.38
		l-0.66,0.34l-0.38-0.74c-0.09-0.23-0.07-0.48,0.04-0.73c-0.27-0.05-0.48-0.19-0.62-0.4L20.24,4.7L20.9,4.36z"/>
	<path class="st0" d="M28.03,4.04c0.12,0.92,0.32,1.49,0.62,1.74c0.29,0.24,0.62,0.35,0.98,0.31L30.21,6
		c0.39-0.07,0.68-0.26,0.89-0.57c0.21-0.31,0.26-0.83,0.15-1.55L31.23,3.7c-0.03-0.11-0.09-0.16-0.15-0.16l-0.8,0.11
		c-0.06,0.02-0.1,0.09-0.1,0.2c0.02,0.11,0.01,0.25-0.02,0.42c-0.03,0.16-0.1,0.27-0.23,0.32l-0.4,0.06
		c-0.13-0.01-0.23-0.09-0.31-0.24c-0.07-0.15-0.12-0.32-0.15-0.52c0.01-0.25,0.1-0.47,0.28-0.68c-0.23-0.15-0.38-0.34-0.46-0.57
		c-0.03-0.19-0.03-0.37,0-0.54c0.03-0.17,0.1-0.27,0.23-0.32l0.4-0.06c0.13,0.01,0.23,0.09,0.3,0.24c0.07,0.15,0.12,0.29,0.14,0.4
		c0.04,0.11,0.09,0.17,0.15,0.17l0.78-0.11c0.06-0.02,0.1-0.09,0.1-0.2l-0.03-1.5c-0.02-0.4-0.15-0.6-0.4-0.58l-0.63,0.09
		C29.76,0.27,29.68,0.4,29.7,0.6c-0.09-0.21-0.22-0.3-0.37-0.29l-0.48,0.07c-0.39,0.07-0.69,0.26-0.9,0.58
		c-0.21,0.32-0.25,0.92-0.1,1.83c0.01,0.25-0.09,0.48-0.29,0.68C27.81,3.61,27.97,3.8,28.03,4.04z"/>
	<path class="st0" d="M33.02,5.74l1.3,0.08c0.25,0,0.37-0.21,0.35-0.61L34.6,4.4l-0.29-0.15l0.05-0.86l0.39,0.02l0.63,0.9
		l-0.31,0.11l-0.16,0.8c-0.06,0.4,0.03,0.61,0.28,0.65l1.3,0.08c0.25,0,0.37-0.21,0.35-0.61l-0.06-0.81l-0.29-0.15l-0.04-0.06
		c-0.07-0.24-0.07-0.48,0-0.73c-0.31,0-0.55-0.08-0.72-0.23c0.21-0.07,0.38-0.21,0.54-0.44c0.15-0.22,0.23-0.49,0.24-0.81l0.03-0.51
		c0.03-0.31-0.04-0.63-0.2-0.94c-0.16-0.31-0.48-0.49-0.94-0.54L33.38,0c-0.25,0-0.37,0.21-0.35,0.61l0.07,0.79l0.29,0.15
		l-0.04,0.69c-0.04,0.25-0.19,0.45-0.43,0.61c0.22,0.19,0.33,0.4,0.35,0.65l-0.04,0.69L32.91,4.3l-0.17,0.79
		C32.68,5.49,32.78,5.71,33.02,5.74z M34.48,1.48l0.72,0.04c0.19,0.06,0.29,0.28,0.29,0.65c-0.06,0.22-0.17,0.33-0.34,0.35
		l-0.73-0.04L34.48,1.48z"/>
	<path class="st0" d="M38,6.21l1.25,0.35c0.24,0.05,0.4-0.13,0.48-0.52l0.11-0.8l-0.25-0.21l0.37-0.83l0.8,0.23l-0.12,0.9L40.3,5.37
		l-0.33,0.74c-0.15,0.38-0.1,0.61,0.13,0.69l1.25,0.35c0.24,0.05,0.4-0.13,0.47-0.52l0.11-0.8l-0.26-0.21l0.12-0.83
		c0.08-0.22,0.24-0.41,0.47-0.55c-0.19-0.14-0.29-0.33-0.32-0.57l0.1-0.68l0.34-0.05l0.32-0.73c0.15-0.38,0.1-0.61-0.13-0.69
		l-2.65-0.75c-0.24-0.05-0.4,0.12-0.48,0.52l-0.11,0.79l0.27,0.22l-0.27,0.63c-0.15,0.19-0.34,0.3-0.57,0.32
		c0.12,0.24,0.16,0.48,0.11,0.72l-0.34,0.77L38.2,4.78l-0.33,0.74C37.72,5.89,37.77,6.12,38,6.21z M40.65,2.6l0.16-0.03l0.05,0.01
		l0.12,0.11l-0.11,0.88l-0.58-0.16L40.65,2.6z"/>
	<path class="st0" d="M42.78,7.73l1.16,0.62c0.23,0.1,0.42-0.04,0.58-0.41l0.28-0.76l-0.21-0.26l0.43-0.8l0.9,0.48
		c0.11,0.04,0.19,0.03,0.23-0.03l0.27-0.51c0.02-0.06-0.01-0.13-0.1-0.2l-0.9-0.48l0.49-0.91l0.9,0.48c0.1,0.09,0.13,0.21,0.1,0.37
		c-0.03,0.16-0.08,0.3-0.13,0.41c-0.04,0.11-0.03,0.19,0.03,0.23l0.7,0.37c0.06,0.02,0.13-0.01,0.2-0.1l0.87-1.23
		c0.22-0.34,0.23-0.57,0.02-0.71l-0.56-0.3c-0.17-0.07-0.31-0.02-0.42,0.16c0.05-0.22,0.01-0.37-0.13-0.45L45.5,2.66
		c-0.23-0.1-0.42,0.04-0.58,0.41l-0.28,0.75l0.21,0.26L44.53,4.7c-0.14,0.21-0.35,0.33-0.63,0.36c0.12,0.26,0.14,0.51,0.04,0.74
		L43.61,6.4l-0.33-0.03L42.8,7.03C42.58,7.37,42.58,7.6,42.78,7.73z"/>
	<path class="st0" d="M47.95,10.12c-0.28,0.29-0.34,0.52-0.16,0.69l1.01,0.84c0.2,0.14,0.42,0.05,0.65-0.28l0.43-0.69l-0.15-0.29
		l0.44-0.53c0.18-0.17,0.42-0.25,0.7-0.24c-0.07-0.27-0.04-0.51,0.1-0.72l0.52-0.62c0.04,0.1,0.03,0.21-0.03,0.35
		c-0.06,0.14-0.12,0.25-0.2,0.35c-0.06,0.1-0.07,0.18-0.02,0.23l0.37,0.31c0.06,0.04,0.13,0.02,0.22-0.06l1.1-1.03
		c0.29-0.28,0.34-0.51,0.16-0.69l-0.25-0.21c-0.16-0.1-0.3-0.08-0.44,0.07c0.09-0.21,0.08-0.36-0.03-0.47l-0.75-0.62
		c-0.12-0.09-0.28-0.08-0.46,0.05c0.12-0.16,0.12-0.31-0.01-0.45L50.88,5.9c-0.2-0.14-0.42-0.05-0.65,0.28l-0.81,1.27
		c-0.06,0.1-0.07,0.18-0.02,0.23l0.37,0.31C49.83,8.02,49.91,8,50,7.93c0.08-0.09,0.18-0.17,0.31-0.25c0.12-0.08,0.23-0.11,0.32-0.1
		l-0.51,0.62c-0.18,0.17-0.41,0.25-0.69,0.23c0.07,0.28,0.03,0.52-0.11,0.73l-0.44,0.53l-0.31-0.09L47.95,10.12z"/>
	<path class="st0" d="M52.63,11.27c0.01,0.29-0.08,0.52-0.25,0.7l-0.54,0.43l-0.29-0.16l-0.7,0.41c-0.34,0.22-0.43,0.44-0.3,0.64
		l1.4,1.76c0.1,0.12,0.25,0.13,0.46,0.04c-0.15,0.14-0.18,0.28-0.08,0.44l0.39,0.49c0.17,0.18,0.4,0.13,0.69-0.15l1.05-1.07
		c0.08-0.09,0.1-0.16,0.07-0.22l-0.49-0.62c-0.05-0.05-0.12-0.04-0.23,0.01c-0.1,0.07-0.22,0.14-0.38,0.2
		c-0.16,0.06-0.28,0.05-0.39-0.03l-0.63-0.8l0.82-0.65l0.63,0.8c0.09,0.08,0.16,0.1,0.22,0.07l0.45-0.36
		c0.05-0.05,0.04-0.12-0.02-0.23l-0.63-0.8l0.81-0.64l0.63,0.8c0.06,0.12,0.04,0.25-0.06,0.38c-0.1,0.14-0.19,0.24-0.28,0.32
		c-0.08,0.09-0.1,0.16-0.07,0.22l0.49,0.62c0.05,0.05,0.12,0.04,0.23-0.02l1.28-0.78c0.34-0.22,0.44-0.43,0.3-0.64l-0.39-0.49
		c-0.13-0.13-0.28-0.14-0.45-0.02c0.13-0.19,0.15-0.34,0.06-0.46l-1.39-1.75c-0.17-0.18-0.4-0.13-0.69,0.15l-0.55,0.58l0.09,0.32
		l-0.55,0.44C53.15,11.32,52.9,11.35,52.63,11.27z"/>
	<path class="st0" d="M56.78,15.92c-0.24,0.09-0.48,0.06-0.74-0.07c-0.05,0.28-0.18,0.49-0.39,0.63l-0.62,0.31l-0.25-0.21
		l-0.77,0.25c-0.37,0.15-0.52,0.34-0.42,0.56l0.88,1.78c0.19,0.34,0.46,0.57,0.83,0.67s0.96-0.06,1.78-0.48
		c0.24-0.09,0.48-0.06,0.74,0.07c0.05-0.28,0.18-0.49,0.39-0.63c0.83-0.4,1.32-0.77,1.46-1.13c0.14-0.35,0.13-0.71-0.03-1.07
		l-0.89-1.77c-0.13-0.21-0.36-0.21-0.71,0l-0.66,0.45l0.02,0.33L56.78,15.92z M58.33,17.17c0.03,0.13-0.01,0.25-0.14,0.37
		c-0.13,0.12-0.27,0.22-0.45,0.31c-0.24,0.09-0.49,0.07-0.74-0.05c-0.06,0.27-0.19,0.48-0.4,0.61c-0.18,0.09-0.35,0.15-0.52,0.17
		c-0.17,0.03-0.3-0.01-0.38-0.11l-0.33-0.67l0.75-0.37c0.24-0.08,0.48-0.07,0.73,0.05c0.06-0.27,0.19-0.48,0.41-0.62l0.74-0.37
		L58.33,17.17z"/>
	<path class="st0" d="M9.23,42.77l0.03-0.06c0.18-0.17,0.39-0.29,0.64-0.36c-0.14-0.24-0.18-0.46-0.12-0.67
		c0.15,0.12,0.36,0.19,0.62,0.2c0.26,0.01,0.53-0.06,0.81-0.21l0.46-0.23c0.29-0.13,0.53-0.34,0.73-0.62
		c0.2-0.28,0.22-0.61,0.05-0.98l-0.8-1.62c-0.12-0.19-0.35-0.18-0.69,0.03l-0.66,0.44l0,0.3l-0.62,0.31
		c-0.23,0.09-0.47,0.08-0.72-0.03c-0.06,0.26-0.2,0.46-0.41,0.59l-0.62,0.31L7.7,39.98l-0.77,0.26c-0.37,0.15-0.52,0.33-0.44,0.53
		L7,41.8c0.12,0.19,0.35,0.18,0.69-0.03l0.67-0.45l0-0.3l0.77-0.38l0.15,0.31l-0.5,0.93L8.55,41.7l-0.77,0.26
		c-0.38,0.15-0.52,0.32-0.44,0.53l0.52,1.04c0.12,0.19,0.35,0.18,0.69-0.03l0.67-0.45L9.23,42.77z M10.86,39.79l0.28,0.57
		c0.03,0.18-0.11,0.36-0.44,0.54c-0.21,0.06-0.37,0.03-0.46-0.09l-0.29-0.58L10.86,39.79z"/>
	<path class="st0" d="M12.94,46.78l-0.43-0.56c-0.04-0.04-0.12-0.03-0.22,0.02c-0.1,0.07-0.22,0.14-0.38,0.2
		c-0.15,0.06-0.28,0.06-0.37-0.02L11,45.71l0.83-0.64l0.55,0.72c0.08,0.07,0.15,0.09,0.2,0.05l0.46-0.35c0.05-0.05,0.05-0.12,0-0.21
		l-0.55-0.72l0.82-0.63l0.55,0.72c0.05,0.11,0.02,0.23-0.08,0.36c-0.1,0.13-0.2,0.23-0.29,0.31c-0.08,0.08-0.11,0.15-0.08,0.2
		l0.43,0.56c0.04,0.04,0.12,0.03,0.22-0.02l1.29-0.78c0.34-0.22,0.45-0.42,0.33-0.61l-0.34-0.45c-0.12-0.12-0.26-0.12-0.43,0
		c0.14-0.18,0.17-0.32,0.09-0.43l-1.21-1.58c-0.15-0.16-0.37-0.11-0.67,0.16l-0.57,0.56l0.06,0.3l-0.56,0.43
		c-0.21,0.13-0.45,0.16-0.7,0.1c-0.01,0.27-0.11,0.49-0.29,0.66l-0.55,0.42l-0.27-0.13l-0.7,0.4c-0.34,0.22-0.45,0.42-0.33,0.61
		l1.22,1.59c0.09,0.11,0.23,0.11,0.44,0.02c-0.16,0.13-0.19,0.27-0.11,0.41l0.34,0.45c0.15,0.16,0.37,0.11,0.67-0.16l1.08-1.04
		C12.95,46.9,12.97,46.84,12.94,46.78z"/>
	<path class="st0" d="M17.18,49.81c-0.09-0.19-0.09-0.39,0-0.61l0.39-0.56l0.3,0.09l0.6-0.53c0.29-0.28,0.36-0.5,0.21-0.66
		l-1.83-1.63c-0.18-0.13-0.39-0.04-0.63,0.28l-0.45,0.65l0.12,0.29l-0.52,0.45c-0.21,0.11-0.41,0.14-0.61,0.07
		c-0.01,0.26-0.09,0.48-0.24,0.67l-0.63,0.55l-0.29-0.08l-0.61,0.53c-0.29,0.28-0.36,0.5-0.21,0.65l0.86,0.77
		c0.18,0.13,0.39,0.04,0.63-0.28l0.46-0.67l-0.11-0.27l0.69-0.6l0.55,0.49l-0.51,0.75l-0.29-0.08l-0.61,0.53
		c-0.29,0.28-0.36,0.5-0.21,0.66l0.86,0.77c0.17,0.13,0.38,0.03,0.62-0.29l0.46-0.67l-0.11-0.27l0.48-0.69
		C16.71,49.95,16.92,49.85,17.18,49.81z M15.94,48.36l0.67-0.58l0.15,0.04l0.03,0.03l0.05,0.14l-0.5,0.73L15.94,48.36z"/>
	<path class="st0" d="M20.17,50.44l0.3,0.03l0.49-0.63c0.23-0.33,0.26-0.56,0.08-0.69l-1-0.59c-0.2-0.1-0.39,0.04-0.56,0.4
		l-0.32,0.73l0.17,0.25l-0.36,0.6c-0.15,0.2-0.35,0.32-0.61,0.35c0.09,0.25,0.08,0.49-0.03,0.72l-0.35,0.59l-0.3-0.03l-0.5,0.64
		c-0.23,0.33-0.26,0.56-0.08,0.69l1.72,1.02c0.12,0.07,0.26,0.02,0.42-0.14c-0.1,0.18-0.08,0.32,0.05,0.42l0.48,0.29
		c0.2,0.1,0.39-0.04,0.56-0.4l0.62-1.37c0.04-0.11,0.04-0.18,0-0.22l-0.6-0.36c-0.06-0.02-0.12,0.01-0.19,0.1
		c-0.06,0.1-0.16,0.21-0.27,0.32c-0.12,0.12-0.23,0.16-0.35,0.12l-0.78-0.46l0.42-0.72c0.15-0.2,0.36-0.32,0.62-0.37
		c-0.09-0.24-0.09-0.48,0.02-0.71L20.17,50.44z"/>
	<path class="st0" d="M28.65,52.2l-0.54-0.14c-0.17-0.02-0.28,0.06-0.34,0.26c0-0.23-0.06-0.36-0.19-0.4l-0.42-0.11
		c-0.34-0.07-0.66,0-0.95,0.21c-0.29,0.22-0.55,0.77-0.76,1.65c-0.09,0.23-0.25,0.41-0.49,0.52c0.15,0.22,0.21,0.45,0.17,0.7
		c-0.24,0.89-0.29,1.5-0.14,1.83c0.15,0.33,0.38,0.54,0.68,0.64l0.48,0.12c0.14,0.01,0.26-0.07,0.36-0.25
		c-0.04,0.2,0.01,0.33,0.17,0.39l0.54,0.14c0.22,0.04,0.36-0.14,0.43-0.54l0.31-2.1c0.04-0.37-0.03-0.58-0.2-0.63L27,54.3
		c-0.1-0.01-0.17,0.02-0.19,0.08l-0.14,0.56c-0.01,0.07,0.03,0.12,0.13,0.17l0.26,0.07l-0.09,0.33c-0.03,0.11-0.09,0.24-0.17,0.39
		c-0.08,0.14-0.18,0.21-0.31,0.2L26.13,56c-0.1-0.06-0.16-0.17-0.16-0.33c0-0.17,0.02-0.34,0.07-0.53c0.1-0.23,0.26-0.4,0.48-0.53
		c-0.13-0.22-0.19-0.45-0.16-0.69c0.05-0.19,0.12-0.36,0.2-0.5c0.08-0.14,0.18-0.21,0.3-0.21l0.35,0.09
		c0.1,0.06,0.16,0.17,0.16,0.33c0,0.17-0.01,0.31-0.04,0.42c-0.01,0.12,0.01,0.19,0.06,0.21l0.68,0.18
		c0.06,0.01,0.11-0.04,0.16-0.15l0.54-1.4C28.9,52.5,28.86,52.27,28.65,52.2z"/>
	<path class="st0" d="M32.45,53.08c-0.2-0.3-0.48-0.47-0.83-0.51l-0.48-0.04c-0.35-0.01-0.65,0.11-0.9,0.37
		c-0.25,0.26-0.4,0.85-0.47,1.76c-0.05,0.25-0.18,0.45-0.39,0.6c0.19,0.19,0.29,0.41,0.29,0.66c-0.09,0.92-0.03,1.53,0.18,1.83
		c0.2,0.3,0.48,0.47,0.83,0.51l0.48,0.04c0.35,0.01,0.65-0.11,0.9-0.37c0.25-0.26,0.41-0.85,0.47-1.78c0.05-0.25,0.18-0.45,0.39-0.6
		c-0.19-0.19-0.29-0.41-0.29-0.66C32.71,53.98,32.65,53.37,32.45,53.08z M31.68,54.81c-0.05,0.25-0.17,0.45-0.38,0.61
		c0.18,0.19,0.27,0.41,0.28,0.66c-0.02,0.2-0.05,0.37-0.11,0.53c-0.06,0.16-0.15,0.25-0.26,0.27l-0.36-0.03
		c-0.11-0.04-0.18-0.14-0.22-0.31c-0.03-0.17-0.04-0.35-0.02-0.54c0.05-0.25,0.17-0.45,0.38-0.6c-0.18-0.19-0.27-0.41-0.28-0.66
		c0.02-0.19,0.05-0.36,0.11-0.52c0.06-0.16,0.14-0.24,0.26-0.26l0.36,0.03c0.11,0.04,0.18,0.14,0.22,0.3
		C31.69,54.44,31.7,54.62,31.68,54.81z"/>
	<path class="st0" d="M37.05,54.62c-0.07-0.91-0.23-1.5-0.48-1.76c-0.25-0.26-0.55-0.38-0.9-0.36l-0.48,0.04
		c-0.35,0.05-0.62,0.22-0.82,0.52c-0.2,0.3-0.25,0.91-0.16,1.81c0,0.25-0.1,0.47-0.29,0.66c0.22,0.15,0.35,0.35,0.4,0.6
		c0.07,0.92,0.23,1.51,0.48,1.77c0.25,0.26,0.55,0.38,0.9,0.36l0.48-0.04c0.35-0.05,0.62-0.22,0.82-0.52
		c0.2-0.3,0.25-0.91,0.16-1.83c0-0.25,0.1-0.47,0.29-0.66C37.23,55.07,37.09,54.87,37.05,54.62z M36.2,56.51
		c-0.03,0.17-0.1,0.27-0.21,0.31l-0.36,0.03c-0.12-0.02-0.21-0.11-0.26-0.27c-0.06-0.16-0.1-0.34-0.12-0.53
		c0-0.25,0.09-0.47,0.27-0.66c-0.21-0.15-0.34-0.36-0.39-0.61c-0.02-0.19-0.01-0.37,0.02-0.53c0.03-0.16,0.1-0.26,0.21-0.3
		l0.36-0.03c0.12,0.02,0.2,0.1,0.26,0.26c0.06,0.16,0.1,0.33,0.11,0.52c0,0.26-0.09,0.48-0.27,0.67c0.21,0.15,0.34,0.35,0.39,0.6
		C36.24,56.16,36.23,56.34,36.2,56.51z"/>
	<path class="st0" d="M42.07,54.05c-0.24-0.11-0.41-0.28-0.5-0.52c-0.23-0.89-0.5-1.45-0.79-1.66c-0.29-0.21-0.61-0.28-0.95-0.2
		l-1.69,0.48c-0.21,0.08-0.24,0.31-0.1,0.68l0.3,0.74l0.3,0.05l0.18,0.66c0.04,0.25-0.01,0.48-0.16,0.7
		c0.24,0.11,0.41,0.28,0.5,0.52l0.18,0.66l-0.22,0.2l0.11,0.8c0.08,0.4,0.22,0.57,0.44,0.53l1.7-0.47c0.33-0.11,0.57-0.33,0.72-0.66
		c0.14-0.33,0.09-0.94-0.17-1.83C41.87,54.51,41.92,54.27,42.07,54.05z M40.92,55.89l-0.64,0.18l-0.22-0.8
		c-0.04-0.25,0.01-0.48,0.15-0.7c-0.23-0.11-0.4-0.29-0.49-0.53l-0.22-0.79l0.64-0.18c0.12,0,0.22,0.07,0.31,0.22
		c0.09,0.15,0.16,0.31,0.21,0.5c0.04,0.25-0.01,0.49-0.15,0.7c0.23,0.11,0.4,0.29,0.49,0.52c0.05,0.19,0.08,0.37,0.08,0.54
		C41.08,55.72,41.03,55.83,40.92,55.89z"/>
	<path class="st0" d="M48.66,51.7c-0.27-0.38-0.55-0.57-0.85-0.56c0.14-0.26,0.11-0.59-0.1-1l-0.29-0.47
		c-0.16-0.27-0.38-0.5-0.68-0.68c-0.3-0.18-0.62-0.16-0.98,0.04l-1.55,0.93c-0.18,0.13-0.15,0.36,0.09,0.69l0.49,0.62l0.3-0.03
		l0.36,0.59c0.11,0.23,0.12,0.47,0.03,0.72c0.26,0.04,0.47,0.16,0.62,0.36l0.36,0.59l-0.16,0.25l0.33,0.74
		c0.18,0.36,0.37,0.49,0.57,0.4l1.55-0.94c0.34-0.22,0.5-0.51,0.48-0.86c-0.02-0.35-0.11-0.65-0.28-0.91L48.66,51.7z M46.36,51.48
		l-0.52-0.86l0.57-0.34c0.17-0.05,0.37,0.08,0.58,0.39c0.08,0.21,0.06,0.36-0.05,0.46L46.36,51.48z M47.92,52.78l-0.57,0.34
		l-0.52-0.86l0.58-0.35c0.14-0.05,0.29,0.01,0.43,0.17C48.02,52.42,48.04,52.65,47.92,52.78z"/>
	<path class="st0" d="M52.41,48.39c-0.09-0.07-0.16-0.1-0.21-0.06l-0.53,0.46c-0.04,0.05-0.03,0.12,0.04,0.22
		c0.08,0.09,0.15,0.21,0.23,0.36c0.07,0.15,0.08,0.27,0.01,0.37l-0.68,0.6l-0.69-0.79l0.68-0.6c0.06-0.08,0.08-0.15,0.04-0.21
		l-0.38-0.43c-0.05-0.04-0.12-0.04-0.21,0.01l-0.68,0.6l-0.68-0.77l0.68-0.6c0.1-0.05,0.23-0.04,0.36,0.06
		c0.14,0.09,0.25,0.18,0.33,0.27c0.09,0.07,0.16,0.1,0.21,0.06l0.53-0.47c0.04-0.05,0.03-0.12-0.04-0.22l-0.86-1.23
		c-0.24-0.32-0.45-0.42-0.63-0.29l-0.42,0.37c-0.11,0.12-0.1,0.27,0.03,0.43c-0.19-0.13-0.33-0.15-0.44-0.06l-1.49,1.32
		c-0.15,0.16-0.08,0.38,0.21,0.66l0.59,0.53l0.29-0.08l0.47,0.53c0.15,0.2,0.2,0.43,0.15,0.69c0.27-0.01,0.49,0.08,0.68,0.24
		l0.46,0.52l-0.12,0.27l0.45,0.67c0.24,0.32,0.45,0.42,0.63,0.29l1.5-1.32c0.1-0.09,0.1-0.24-0.01-0.44
		c0.14,0.15,0.28,0.18,0.42,0.08l0.42-0.37c0.15-0.16,0.08-0.38-0.21-0.66L52.41,48.39z"/>
	<path class="st0" d="M57.04,45.1l-1.29-0.78c-0.1-0.06-0.17-0.06-0.22-0.02l-0.43,0.56c-0.03,0.05,0,0.12,0.08,0.2
		c0.09,0.08,0.19,0.18,0.29,0.31c0.1,0.13,0.13,0.25,0.08,0.36l-0.55,0.72l-0.83-0.64l0.55-0.72c0.05-0.09,0.05-0.16,0-0.21
		l-0.46-0.35c-0.06-0.03-0.13-0.02-0.2,0.05l-0.55,0.72l-0.82-0.63l0.55-0.72c0.09-0.07,0.22-0.08,0.37-0.02
		c0.15,0.06,0.28,0.13,0.38,0.2c0.1,0.06,0.17,0.06,0.22,0.02l0.43-0.56c0.03-0.05,0-0.12-0.08-0.2l-1.08-1.04
		c-0.3-0.27-0.52-0.33-0.67-0.16l-0.34,0.45c-0.09,0.14-0.05,0.28,0.11,0.41c-0.21-0.09-0.36-0.08-0.44,0.02l-1.21,1.58
		c-0.12,0.19-0.01,0.39,0.33,0.61l0.68,0.4l0.27-0.14l0.56,0.43c0.18,0.17,0.28,0.39,0.28,0.65c0.26-0.06,0.5-0.02,0.71,0.11
		l0.55,0.42l-0.06,0.29l0.57,0.57c0.3,0.27,0.53,0.32,0.67,0.16l1.21-1.59c0.08-0.11,0.05-0.26-0.09-0.43
		c0.17,0.12,0.31,0.12,0.43,0l0.34-0.45C57.49,45.52,57.38,45.32,57.04,45.1z"/>
	<path class="st0" d="M59.65,40.22l-0.77-0.26l-0.23,0.18l-0.07,0.01c-0.24-0.04-0.47-0.14-0.67-0.29c-0.11,0.25-0.26,0.42-0.46,0.5
		c0.01-0.2-0.07-0.4-0.22-0.61s-0.37-0.39-0.66-0.52L56.11,39c-0.28-0.15-0.59-0.22-0.93-0.21c-0.34,0.01-0.61,0.2-0.81,0.56
		l-0.8,1.62c-0.08,0.21,0.07,0.38,0.44,0.53l0.75,0.26L55,41.58l0.62,0.31c0.21,0.13,0.35,0.33,0.41,0.59
		c0.24-0.11,0.48-0.12,0.72-0.03l0.62,0.31l0,0.3l0.67,0.45c0.35,0.2,0.58,0.21,0.69,0.03l0.51-1.04c0.08-0.21-0.07-0.38-0.44-0.53
		l-0.77-0.26l-0.23,0.18l-0.77-0.38l0.15-0.31l1.04-0.17l0,0.3l0.67,0.45c0.34,0.21,0.58,0.22,0.69,0.03l0.51-1.04
		C60.18,40.55,60.03,40.37,59.65,40.22z M56.49,40.51l-0.29,0.58l-0.9-0.44l0.28-0.57c0.12-0.14,0.35-0.13,0.7,0.02
		C56.46,40.22,56.53,40.36,56.49,40.51z"/>
	<path class="st0" d="M60.68,27.45c-0.79,0.33-1.42,0.94-1.31,1.1c0.18,0.27,0.59-0.46,1.65-0.05c1.05,0.4,1.72,0.4,2.95,0.16
		c0,0-1.34,0.51-1.82,0.59c-0.49,0.08-1.73-0.27-1.71,0.08c0.03,0.35,0.72,0.86,1.64,0.94c1.4-0.1,2.43-0.8,3.66-1.69
		C63.47,27.21,61.88,27.02,60.68,27.45z"/>
	<path class="st0" d="M57.88,29.73c-0.04,0.03-0.06,0.06-0.06,0.08c0.04,0.24,0.54-0.08,1.12,0.57c0.58,0.65,1.04,0.89,1.93,1.18
		c0,0-1.05-0.16-1.41-0.28c-0.35-0.13-1.08-0.81-1.17-0.57c-0.08,0.22,0.18,0.71,0.69,1.1c0.99,0.5,1.9,0.44,3,0.31
		c-0.4-0.62-0.79-1.1-1.17-1.47C59.19,28.86,57.88,29.73,57.88,29.73z"/>
	<path class="st0" d="M57.31,28.46c-0.44,0.75-1,0.52-0.99,0.77c0,0.05,0.07,0.08,0.19,0.1c0.69,0.03,1.37-0.17,2.02-0.78
		c0.12-0.15,0.25-0.29,0.38-0.42c0.37-0.47,0.72-1.1,1.05-1.93c-1.11,0.08-2.01,0.18-2.89,0.86c-0.43,0.47-0.59,1-0.46,1.21
		c0.14,0.22,0.72-0.59,1.03-0.78c0.32-0.19,1.32-0.54,1.32-0.54C58.15,27.4,57.76,27.72,57.31,28.46z"/>
	<path class="st0" d="M5.46,29.38c0.03-0.36-1.26,0-1.76-0.08c-0.5-0.08-1.88-0.6-1.88-0.6c1.26,0.24,1.95,0.25,3.04-0.16
		c1.09-0.42,1.51,0.33,1.7,0.06c0.1-0.16-0.54-0.79-1.35-1.13C3.97,27,2.33,27.2,0,28.6c1.27,0.92,2.33,1.63,3.77,1.74
		C4.72,30.26,5.43,29.74,5.46,29.38z"/>
	<path class="st0" d="M7.66,30.8c-0.09-0.25-0.84,0.46-1.21,0.59C6.09,31.52,5,31.68,5,31.68c0.92-0.3,1.39-0.55,1.99-1.22
		s1.12-0.34,1.16-0.58c0-0.03-0.02-0.06-0.06-0.09c0,0-1.35-0.9-3.04,0.94c-0.39,0.38-0.79,0.88-1.2,1.51
		c1.14,0.13,2.07,0.2,3.09-0.32C7.47,31.54,7.74,31.03,7.66,30.8z"/>
	<path class="st0" d="M7.41,28.58c0.66,0.63,1.36,0.83,2.08,0.81c0.12-0.02,0.2-0.05,0.2-0.1c0.01-0.25-0.56-0.02-1.02-0.79
		c-0.46-0.77-0.86-1.1-1.71-1.57c0,0,1.03,0.36,1.36,0.55c0.33,0.19,0.93,1.03,1.07,0.8c0.13-0.21-0.04-0.76-0.48-1.24
		c-0.9-0.7-1.83-0.81-2.97-0.89c0.34,0.86,0.7,1.51,1.08,1.99C7.16,28.28,7.29,28.43,7.41,28.58z"/>
</g>
</svg>
